<?xml version="1.0" encoding="UTF-8"?>
<!DOCTYPE svg PUBLIC "-//W3C//DTD SVG 1.1//EN" "http://www.w3.org/Graphics/SVG/1.1/DTD/svg11.dtd">
<!-- Creator: CorelDRAW 2019 (64-Bit) -->
<svg xmlns="http://www.w3.org/2000/svg" xml:space="preserve" width="1030px" height="240px" version="1.1" style="shape-rendering:geometricPrecision; text-rendering:geometricPrecision; image-rendering:optimizeQuality; fill-rule:evenodd; clip-rule:evenodd"
viewBox="0 0 1030 240.04"
 xmlns:xlink="http://www.w3.org/1999/xlink"
 xmlns:xodm="http://www.corel.com/coreldraw/odm/2003">
 <defs>
  <style type="text/css">
   <![CDATA[
    .fil1 {fill:#332C2B}
    .fil2 {fill:#E5252A}
    .fil0 {fill:#D2272C}
    .fil3 {fill:#D1272C}
    .fil4 {fill:#BB292D}
    .fil5 {fill:#9D272A}
    .fil6 {fill:#8B2527}
   ]]>
  </style>
 </defs>
 <g id="Layer_x0020_1">
  <metadata id="CorelCorpID_0Corel-Layer"/>
  <path class="fil0" d="M16.24 137.6c0,2 0.36,3.99 0.71,5.81 3.04,11.09 12.14,18.72 23.56,18.72 16.42,0 26.24,-13.63 26.24,-33.8 0,-17.63 -8.93,-32.72 -25.7,-32.72 -10.71,0 -20.71,7.45 -23.92,19.63 -0.35,1.82 -0.89,4 -0.89,6.54l0 15.82zm-15.53 -93.79l15.53 0 0 55.26 0.36 0c5.53,-9.82 15.52,-16.18 29.44,-16.18 21.42,0 36.59,18.17 36.41,44.89 0,31.44 -19.45,47.07 -38.73,47.07 -12.49,0 -22.48,-4.9 -28.91,-16.53l-0.53 0 -0.72 14.54 -13.56 0c0.36,-6 0.71,-14.91 0.71,-22.72l0 -106.33z"/>
  <path class="fil0" d="M147.77 127.96c-17.13,-0.36 -36.59,2.73 -36.59,19.82 0,10.35 6.78,15.26 14.81,15.26 11.25,0 18.39,-7.27 20.89,-14.72 0.53,-1.64 0.89,-3.45 0.89,-5.09l0 -15.27zm15.17 23.81c0,7.64 0.35,15.09 1.42,21.09l-14.27 0 -1.25 -11.09 -0.54 0c-4.82,6.91 -14.09,13.08 -26.41,13.08 -17.49,0 -26.41,-12.54 -26.41,-25.26 0,-21.26 18.56,-32.89 51.93,-32.71l0 -1.82c0,-7.27 -1.96,-20.36 -19.63,-20.36 -8.03,0 -16.42,2.55 -22.49,6.55l-3.57 -10.54c7.14,-4.73 17.49,-7.82 28.38,-7.82 26.41,0 32.84,18.36 32.84,35.99l0 32.89z"/>
  <path class="fil0" d="M188.28 108.7c0,-9.09 -0.18,-16.54 -0.71,-23.81l13.92 0 0.89 14.54 0.36 0c4.28,-8.36 14.27,-16.54 28.55,-16.54 11.96,0 30.52,7.27 30.52,37.44l0 52.53 -15.71 0 0 -50.71c0,-14.18 -5.17,-25.99 -19.99,-25.99 -10.35,0 -18.38,7.45 -21.06,16.36 -0.71,2 -1.07,4.72 -1.07,7.45l0 52.89 -15.7 0 0 -64.16z"/>
  <path class="fil0" d="M302.85 125.24l0.36 0c2.14,-3.09 5.17,-6.91 7.68,-10l25.34 -30.35 18.91 0 -33.37 36.17 38.01 51.8 -19.09 0 -29.8 -42.17 -8.04 9.09 0 33.08 -15.52 0 0 -129.05 15.52 0 0 81.43z"/>
  <path class="fil1" d="M407.58 59.42c0,6.54 -4.8,12 -12.91,12 -7.55,0 -12.35,-5.46 -12.35,-12 0,-6.9 4.98,-12.18 12.72,-12.18 7.74,0 12.54,5.28 12.54,12.18zm-46.82 134.5c7.37,-0.55 13.27,-2.37 16.95,-6.36 4.24,-4.37 5.9,-11.46 5.9,-30.72l0 -72.7 22.68 0 0 79.06c0,18.36 -3.51,29.81 -11.62,37.8 -7.92,7.28 -20.46,10.36 -31.7,10.36l-2.21 -17.44z"/>
  <path class="fil1" d="M477.99 129.4c-16.04,-0.37 -31.34,3.09 -31.34,16.53 0,8.73 5.72,12.73 12.9,12.73 9.04,0 15.67,-5.82 17.7,-12.18 0.55,-1.64 0.74,-3.45 0.74,-4.91l0 -12.17zm22.12 21.99c0,7.99 0.37,15.81 1.29,21.26l-20.46 0 -1.48 -9.81 -0.55 0c-5.53,6.9 -14.93,11.81 -26.54,11.81 -18.07,0 -28.21,-12.9 -28.21,-26.35 0,-22.36 20.1,-33.63 53.27,-33.44l0 -1.46c0,-5.81 -2.39,-15.45 -18.24,-15.45 -8.85,0 -18.07,2.73 -24.15,6.55l-4.42 -14.54c6.63,-4 18.24,-7.82 32.44,-7.82 28.75,0 37.05,17.99 37.05,37.26l0 31.99z"/>
  <path class="fil1" d="M548.95 61.42l0 22.72 21.57 0 0 16.72 -21.57 0 0 39.08c0,10.72 2.96,16.35 11.62,16.35 4.24,0 6.27,-0.36 8.85,-1.09l0.37 17.09c-3.32,1.27 -9.22,2.36 -16.41,2.36 -8.3,0 -15.3,-2.91 -19.54,-7.45 -4.79,-5.09 -7.01,-13.09 -7.01,-24.72l0 -41.62 -12.9 0 0 -16.72 12.9 0 0 -16.36 22.12 -6.36z"/>
  <path class="fil1" d="M587.66 172.65l0 -88.51 22.86 0 0 88.51 -22.86 0zm24.15 -113.23c0,6.73 -4.98,12 -12.9,12 -7.56,0 -12.54,-5.27 -12.54,-12 0,-6.9 5.17,-12.18 12.72,-12.18 7.74,0 12.54,5.28 12.72,12.18z"/>
  <path class="fil1" d="M634.85 110.49c0,-10.17 -0.18,-18.72 -0.73,-26.35l19.53 0 0.92 13.09 0.56 0c4.42,-6.91 12.53,-15.09 27.65,-15.09 11.79,0 21.01,6.54 24.88,16.36l0.37 0c3.13,-4.91 6.82,-8.54 11.06,-11.09 4.97,-3.45 10.69,-5.27 18.06,-5.27 14.93,0 30.05,10 30.05,38.35l0 52.16 -22.12 0 0 -48.89c0,-14.72 -5.16,-23.44 -16.04,-23.44 -7.74,0 -13.45,5.45 -15.85,11.81 -0.55,2.18 -1.11,4.91 -1.11,7.45l0 53.07 -22.12 0 0 -51.25c0,-12.36 -4.97,-21.08 -15.48,-21.08 -8.48,0 -14.19,6.54 -16.22,12.72 -0.92,2.18 -1.29,4.72 -1.29,7.27l0 52.34 -22.12 0 0 -62.16z"/>
  <path class="fil2" d="M520.61 199.79c0,0 111.4,34.32 194.31,15.11 82.84,-19.19 134.9,-50.92 196.85,-141.75 42.56,-61.56 61.37,-73.15 61.37,-73.15 0,0 -2.47,53.77 -38.38,103.94 -30.78,41.61 -47.12,61.37 -47.12,61.37l-136.24 67.26c0,0 -74.1,13.87 -230.79,-32.78z"/>
  <path class="fil3" d="M602.43 220.6c0,0 85.13,15.39 196.28,-32.21 40.1,-17.17 55.16,-24.66 135.86,-85.59 36.48,-27.56 88.29,-56.06 88.29,-56.06 0,0 -12.29,35.53 -61.88,79.62 -32.77,31.43 -29.16,45.23 -29.16,45.23l-145.05 50.81c0,0 -54.75,14.73 -184.34,-1.8z"/>
  <path class="fil4" d="M685.42 221.17c0,0 35.2,-5.98 74.17,-16.98 56.35,-15.89 123.01,-39.74 176.88,-67.95 27.1,-14.2 93.53,-33.07 93.53,-33.07 0,0 -21.8,30.5 -67.12,56.44 -24.3,18.54 -46.17,25.08 -46.17,25.08l-61.31 21.09c0,0 -73.9,25.14 -169.98,15.39z"/>
  <path class="fil5" d="M678.63 217.66c0,0 10.61,2.28 46.93,-5.14 57.48,-11.73 113.1,-25.25 166.35,-41.23 49.4,-14.82 107.45,-16.05 107.45,-16.05 0,0 -29.26,15.58 -69.16,32.11 -24.3,10.54 -44.84,14.13 -44.84,14.13l-61.31 11.98c0,0 -49.34,9.74 -145.42,4.2z"/>
  <path class="fil6" d="M731.45 239.98c-71.3,1.19 -145.93,-14.25 -213.48,-41.04 0,0 102.32,27.36 204.55,14.15 59.47,-7.68 106.63,-19.14 158.47,-24.79 41.8,-4.56 84.93,-0.19 84.93,-0.19 0,0 -97.67,49.59 -234.47,51.87z"/>
 </g>
</svg>
