<?xml version="1.0" encoding="UTF-8"?>
<!DOCTYPE svg PUBLIC "-//W3C//DTD SVG 1.1//EN" "http://www.w3.org/Graphics/SVG/1.1/DTD/svg11.dtd">
<!-- Creator: CorelDRAW -->
<svg xmlns="http://www.w3.org/2000/svg" xml:space="preserve" width="7.46528in" height="7.46528in" version="1.1" style="shape-rendering:geometricPrecision; text-rendering:geometricPrecision; image-rendering:optimizeQuality; fill-rule:evenodd; clip-rule:evenodd"
viewBox="0 0 7465.28 7465.28"
 xmlns:xlink="http://www.w3.org/1999/xlink"
 xmlns:xodm="http://www.corel.com/coreldraw/odm/2003">
 <defs>
  <style type="text/css">
   <![CDATA[
    .str0 {stroke:#FEFEFE;stroke-width:520.83;stroke-linecap:round;stroke-linejoin:round;stroke-miterlimit:2.61313}
    .fil0 {fill:none}
   ]]>
  </style>
 </defs>
 <g id="Layer_x0020_1">
  <metadata id="CorelCorpID_0Corel-Layer"/>
  <path class="fil0 str0" d="M5121.53 4045.14l0 1458.33c0,1215.28 -486.11,1701.39 -1701.39,1701.39l-1458.33 0c-1215.28,0 -1701.39,-486.11 -1701.39,-1701.39l0 -1458.33c0,-1215.28 486.11,-1701.39 1701.39,-1701.39l1458.33 0c1215.28,0 1701.39,486.11 1701.39,1701.39z"/>
  <path class="fil0 str0" d="M7204.86 1961.8l0 1458.33c0,1215.28 -486.11,1701.39 -1701.39,1701.39l-381.94 0 0 -1076.39c0,-1215.28 -486.11,-1701.39 -1701.39,-1701.39l-1076.39 0 0 -381.94c0,-1215.28 486.11,-1701.39 1701.39,-1701.39l1458.33 0c1215.28,0 1701.39,486.11 1701.39,1701.39z"/>
 </g>
</svg>
