<?xml version="1.0" encoding="UTF-8"?>
<!DOCTYPE svg PUBLIC "-//W3C//DTD SVG 1.1//EN" "http://www.w3.org/Graphics/SVG/1.1/DTD/svg11.dtd">
<!-- Creator: CorelDRAW -->
<svg xmlns="http://www.w3.org/2000/svg" xml:space="preserve" width="3.2896in" height="3.48937in" version="1.1" style="shape-rendering:geometricPrecision; text-rendering:geometricPrecision; image-rendering:optimizeQuality; fill-rule:evenodd; clip-rule:evenodd"
viewBox="0 0 309.57 328.37"
 xmlns:xlink="http://www.w3.org/1999/xlink"
 xmlns:xodm="http://www.corel.com/coreldraw/odm/2003">
 <defs>
  <style type="text/css">
   <![CDATA[
    .fil5 {fill:#7E4DCC;fill-opacity:0.600000}
    .fil6 {fill:#AC80EF;fill-opacity:0.600000}
    .fil10 {fill:#B893FF;fill-opacity:0.600000}
    .fil3 {fill:#BFAF89;fill-opacity:0.600000}
    .fil9 {fill:#C6A3FF;fill-opacity:0.600000}
    .fil8 {fill:#D1AFF9;fill-opacity:0.600000}
    .fil7 {fill:#D8CFB3;fill-opacity:0.600000}
    .fil4 {fill:#E2CFFF;fill-opacity:0.600000}
    .fil2 {fill:#E9DBBD;fill-opacity:0.600000}
    .fil1 {fill:#66A3BA;fill-rule:nonzero;fill-opacity:0.600000}
    .fil0 {fill:#72384D;fill-rule:nonzero;fill-opacity:0.600000}
   ]]>
  </style>
 </defs>
 <g id="__x0023_Layer_x0020_1">
  <metadata id="CorelCorpID_0Corel-Layer"/>
  <g id="_1896664867472">
   <g>
    <g>
     <g>
      <path class="fil0" d="M140.02 305.83c-17.75,0 -34.67,-3.35 -50.32,-9.94 -33.06,-13.95 -57.78,-41.62 -69.59,-77.93 -11.25,-34.58 -9.44,-74.01 4.97,-108.17 21.53,-51.03 71.23,-84.01 126.62,-84.01 18.34,0 36.28,3.64 53.32,10.83 33.8,14.26 60.03,40.83 73.85,74.81 13.82,33.99 13.58,71.32 -0.68,105.12 -11,26.08 -30.39,48.5 -56.07,64.82 -24.81,15.77 -53.97,24.45 -82.1,24.45zm11.67 -279.03l0 0c-54.98,0 -104.31,32.73 -125.68,83.39 -31.14,73.84 -2.4,156.72 64.08,184.76 15.52,6.54 32.31,9.86 49.92,9.86 58.79,0 115.22,-36.45 137.24,-88.65 14.15,-33.56 14.39,-70.61 0.67,-104.35 -13.72,-33.74 -39.75,-60.11 -73.31,-74.26 -16.92,-7.14 -34.72,-10.75 -52.93,-10.75z"/>
     </g>
     <g>
      <path class="fil0" d="M149.88 300.18c-75.74,0 -137.35,-61.62 -137.35,-137.35 0,-37.62 12.43,-72.69 35.01,-98.75 23.41,-27.03 56.07,-41.91 91.96,-41.91 36.08,0 74.43,17.88 105.21,49.06 30.7,31.1 48.31,69.72 48.31,105.95 0,18.37 -3.94,35.61 -11.71,51.25 -7.34,14.77 -17.92,27.8 -31.45,38.74 -26.36,21.29 -61.86,33.02 -99.98,33.02zm-10.39 -277.01l0 0c-71.81,0 -125.96,60.04 -125.96,139.66 0,75.18 61.16,136.34 136.34,136.34 68.9,0 142.13,-42.76 142.13,-121.99 0,-35.97 -17.5,-74.33 -48.02,-105.24 -30.59,-30.99 -68.68,-48.76 -104.49,-48.76z"/>
     </g>
    </g>
   </g>
   <g>
    <g>
     <path class="fil1" d="M275.63 245.49c-0,0 0.12,-0.17 0.33,-0.49 0.21,-0.32 0.52,-0.83 0.91,-1.5 0.78,-1.34 1.85,-3.4 2.97,-6.18 1.12,-2.78 2.33,-6.27 3.27,-10.46 0.26,-1.04 0.46,-2.13 0.67,-3.26 0.2,-1.13 0.42,-2.28 0.56,-3.5 0.16,-1.21 0.3,-2.45 0.44,-3.72 0.1,-1.28 0.18,-2.6 0.25,-3.94 0.22,-5.38 -0,-11.29 -1,-17.48 -0.12,-0.77 -0.24,-1.55 -0.37,-2.33 -0.13,-0.78 -0.31,-1.56 -0.47,-2.35 -0.34,-1.58 -0.7,-3.16 -1.1,-4.76 -0.42,-1.59 -0.9,-3.19 -1.4,-4.8 -0.25,-0.8 -0.51,-1.61 -0.78,-2.41 -0.27,-0.81 -0.58,-1.6 -0.88,-2.41 -0.61,-1.6 -1.25,-3.21 -1.93,-4.82 -0.68,-1.6 -1.46,-3.18 -2.24,-4.77 -0.39,-0.79 -0.79,-1.58 -1.2,-2.37 -0.2,-0.4 -0.41,-0.79 -0.62,-1.18 -0.22,-0.39 -0.44,-0.78 -0.66,-1.16 -0.89,-1.55 -1.81,-3.09 -2.76,-4.61 -0.48,-0.76 -0.95,-1.53 -1.46,-2.28 -0.51,-0.74 -1.03,-1.48 -1.55,-2.22 -1.05,-1.47 -2.13,-2.93 -3.23,-4.37 -0.55,-0.72 -1.12,-1.42 -1.71,-2.11 -0.58,-0.69 -1.17,-1.38 -1.77,-2.07 -1.19,-1.37 -2.41,-2.71 -3.65,-4.03 -2.54,-2.57 -5.17,-5.04 -7.87,-7.4 -2.75,-2.29 -5.57,-4.45 -8.43,-6.5 -2.9,-1.97 -5.84,-3.81 -8.8,-5.52 -0.74,-0.43 -1.48,-0.83 -2.23,-1.22 -0.75,-0.39 -1.5,-0.78 -2.25,-1.15 -1.5,-0.75 -3,-1.46 -4.49,-2.15 -0.75,-0.34 -1.5,-0.67 -2.24,-1 -0.75,-0.33 -1.5,-0.61 -2.25,-0.91 -1.5,-0.58 -2.99,-1.13 -4.46,-1.64 -1.48,-0.52 -2.95,-1 -4.4,-1.46 -1.46,-0.46 -2.91,-0.82 -4.34,-1.19 -2.87,-0.72 -5.67,-1.33 -8.39,-1.83 -2.72,-0.46 -5.36,-0.79 -7.89,-1.05 -1.26,-0.13 -2.5,-0.24 -3.71,-0.33 -0.6,-0.04 -1.2,-0.08 -1.79,-0.12 -0.59,-0.02 -1.17,-0.04 -1.75,-0.06 -2.3,-0.05 -4.48,-0.05 -6.51,0 -2.04,0.05 -3.94,0.15 -5.7,0.27 -1.75,0.16 -3.35,0.34 -4.79,0.52 -5.76,0.75 -8.97,1.49 -8.97,1.47 0,0.02 3.21,-0.73 8.96,-1.52 1.44,-0.19 3.04,-0.38 4.78,-0.55 1.75,-0.13 3.65,-0.24 5.7,-0.31 2.04,-0.06 4.22,-0.08 6.52,-0.04 0.58,0.01 1.16,0.02 1.75,0.05 0.59,0.03 1.19,0.07 1.8,0.11 1.21,0.08 2.45,0.18 3.72,0.31 2.53,0.25 5.17,0.56 7.9,1 2.72,0.49 5.54,1.08 8.41,1.79 1.44,0.36 2.9,0.71 4.36,1.17 1.46,0.45 2.94,0.92 4.42,1.44 1.49,0.51 2.98,1.05 4.49,1.62 0.75,0.29 1.51,0.57 2.26,0.89 0.75,0.32 1.5,0.65 2.25,0.99 1.5,0.68 3.01,1.39 4.52,2.13 0.75,0.37 1.51,0.75 2.26,1.14 0.75,0.39 1.51,0.78 2.25,1.21 2.98,1.7 5.94,3.53 8.87,5.49 2.88,2.04 5.72,4.2 8.5,6.48 2.73,2.35 5.38,4.82 7.95,7.4 1.25,1.32 2.49,2.66 3.69,4.03 0.6,0.68 1.2,1.37 1.79,2.07 0.59,0.7 1.18,1.39 1.73,2.12 1.12,1.44 2.22,2.9 3.28,4.38 0.53,0.74 1.06,1.48 1.57,2.23 0.51,0.75 0.99,1.52 1.48,2.29 0.97,1.53 1.9,3.08 2.81,4.63 0.22,0.39 0.45,0.78 0.67,1.17 0.21,0.4 0.42,0.79 0.63,1.19 0.41,0.79 0.82,1.59 1.22,2.38 0.79,1.6 1.58,3.18 2.28,4.8 0.69,1.62 1.35,3.24 1.98,4.86 0.31,0.81 0.63,1.61 0.9,2.43 0.28,0.81 0.54,1.63 0.8,2.44 0.51,1.62 1.01,3.24 1.44,4.85 0.41,1.61 0.79,3.22 1.13,4.81 0.17,0.8 0.35,1.59 0.49,2.38 0.14,0.79 0.27,1.58 0.39,2.36 1.04,6.27 1.29,12.26 1.09,17.72 -0.06,1.37 -0.14,2.7 -0.23,4.01 -0.13,1.3 -0.27,2.56 -0.43,3.79 -0.14,1.23 -0.36,2.41 -0.56,3.56 -0.21,1.15 -0.41,2.26 -0.67,3.33 -0.94,4.27 -2.16,7.84 -3.3,10.69 -1.14,2.85 -2.24,4.97 -3.03,6.37 -0.4,0.7 -0.72,1.22 -0.95,1.58 -0.23,0.35 -0.35,0.53 -0.35,0.53 -0.3,-0.32 -0.6,-0.65 -0.9,-0.97z"/>
     <path class="fil1" d="M207.5 110.4c0.01,-0.19 -13.82,-5.07 -20.03,-10.28 0.08,-0.22 15.4,5.44 20.03,10.28z"/>
     <path class="fil1" d="M230.68 119.94c0.04,-0.08 -9.68,-3.25 -15.78,0.37 0.01,-0.11 10.48,1.87 15.78,-0.37z"/>
     <path class="fil1" d="M255.59 138.81c-0,-0.09 -6.15,-7.46 -6.4,-16.74 0.13,-0.08 7.4,11.05 6.4,16.74z"/>
     <path class="fil1" d="M285.5 204.38c0.41,-1.47 -27.27,-20.93 -28.05,-24.87 -0.35,-2.72 7.53,1.72 14.58,8.77 7.19,6.74 13.57,16.08 13.47,16.1z"/>
     <path class="fil1" d="M283.73 190.61c0.68,-0.3 -6.96,-28.74 -5.35,-44.11 0.76,-0.35 11.67,30.48 5.35,44.11z"/>
     <path class="fil1" d="M264.44 148.95c-0.18,-0.02 -16.82,-4.28 -32.97,-13.7 -0.3,0.07 16.69,-1.51 32.97,13.7z"/>
     <path class="fil1" d="M179.81 106.27c-0.08,-0.01 -8.3,5.32 -16.43,5.82 -0.04,0.03 6.72,-4.93 16.43,-5.82z"/>
     <path class="fil1" d="M210.33 111.43c-0.1,-0.03 -12.45,5.36 -23.22,5.51 -0.13,-0.02 11.58,-7.19 23.22,-5.51z"/>
     <path class="fil1" d="M220.14 114.54c-0.03,-0.06 -8.07,-6.85 -13.91,-16.59 0.17,-0.16 12.38,9.99 13.91,16.59z"/>
    </g>
    <g>
     <path class="fil1" d="M185.35 27.64c0,0 -0.2,-0.08 -0.56,-0.2 -0.36,-0.13 -0.93,-0.31 -1.67,-0.53 -1.49,-0.43 -3.74,-0.99 -6.71,-1.42 -2.97,-0.43 -6.64,-0.78 -10.94,-0.7 -1.07,-0.01 -2.18,0.05 -3.32,0.12 -1.14,0.07 -2.32,0.13 -3.53,0.28 -1.21,0.13 -2.45,0.29 -3.72,0.46 -1.27,0.21 -2.57,0.44 -3.89,0.69 -5.28,1.07 -10.97,2.68 -16.74,5.11 -0.72,0.3 -1.45,0.6 -2.18,0.92 -0.73,0.31 -1.45,0.67 -2.17,1.01 -1.45,0.7 -2.91,1.43 -4.37,2.2 -1.45,0.79 -2.89,1.64 -4.33,2.5 -0.72,0.44 -1.44,0.88 -2.16,1.33 -0.72,0.45 -1.42,0.94 -2.13,1.43 -1.41,0.97 -2.82,1.98 -4.22,3.02 -1.4,1.04 -2.74,2.17 -4.1,3.3 -0.68,0.57 -1.35,1.14 -2.02,1.73 -0.33,0.29 -0.67,0.58 -1,0.88 -0.33,0.3 -0.65,0.61 -0.97,0.92 -1.29,1.23 -2.57,2.49 -3.82,3.78 -0.63,0.64 -1.26,1.29 -1.87,1.95 -0.6,0.67 -1.2,1.35 -1.79,2.03 -1.18,1.37 -2.34,2.76 -3.48,4.17 -0.57,0.7 -1.11,1.43 -1.65,2.16 -0.54,0.73 -1.06,1.47 -1.59,2.21 -1.05,1.48 -2.06,2.98 -3.05,4.5 -1.9,3.08 -3.67,6.22 -5.33,9.4 -1.57,3.21 -3.01,6.46 -4.32,9.72 -1.23,3.29 -2.32,6.58 -3.28,9.85 -0.25,0.82 -0.46,1.64 -0.66,2.46 -0.2,0.82 -0.4,1.64 -0.59,2.46 -0.37,1.63 -0.71,3.26 -1.02,4.87 -0.16,0.81 -0.3,1.61 -0.44,2.41 -0.14,0.8 -0.24,1.6 -0.35,2.4 -0.21,1.59 -0.39,3.17 -0.54,4.73 -0.15,1.56 -0.28,3.1 -0.37,4.63 -0.1,1.52 -0.11,3.02 -0.13,4.5 -0.02,2.95 0.06,5.82 0.21,8.58 0.2,2.75 0.5,5.39 0.85,7.91 0.17,1.26 0.36,2.49 0.56,3.68 0.1,0.6 0.2,1.19 0.31,1.77 0.12,0.58 0.24,1.15 0.36,1.71 0.49,2.25 1.01,4.36 1.55,6.33 0.54,1.97 1.08,3.8 1.61,5.47 0.57,1.66 1.13,3.17 1.65,4.52 2.09,5.41 3.57,8.36 3.55,8.37 0.02,-0.01 -1.47,-2.95 -3.6,-8.35 -0.53,-1.35 -1.09,-2.86 -1.67,-4.51 -0.54,-1.67 -1.1,-3.5 -1.65,-5.46 -0.54,-1.97 -1.08,-4.08 -1.59,-6.32 -0.13,-0.56 -0.25,-1.13 -0.37,-1.71 -0.11,-0.58 -0.22,-1.17 -0.32,-1.77 -0.21,-1.2 -0.4,-2.43 -0.58,-3.68 -0.36,-2.52 -0.69,-5.16 -0.9,-7.92 -0.17,-2.76 -0.26,-5.63 -0.26,-8.6 0.01,-1.48 0.01,-2.98 0.1,-4.51 0.09,-1.53 0.2,-3.07 0.35,-4.64 0.14,-1.56 0.31,-3.15 0.52,-4.74 0.1,-0.8 0.2,-1.6 0.33,-2.41 0.13,-0.8 0.28,-1.61 0.43,-2.42 0.3,-1.62 0.64,-3.25 1,-4.89 0.19,-0.82 0.37,-1.64 0.57,-2.46 0.2,-0.82 0.41,-1.65 0.65,-2.48 0.94,-3.29 2.02,-6.61 3.23,-9.91 1.3,-3.28 2.72,-6.56 4.29,-9.8 1.64,-3.21 3.41,-6.37 5.31,-9.48 0.99,-1.53 2,-3.05 3.04,-4.54 0.52,-0.75 1.05,-1.49 1.59,-2.23 0.53,-0.74 1.07,-1.48 1.65,-2.19 1.13,-1.43 2.29,-2.84 3.48,-4.22 0.59,-0.69 1.19,-1.38 1.79,-2.06 0.61,-0.67 1.24,-1.32 1.87,-1.98 1.26,-1.3 2.54,-2.58 3.84,-3.83 0.32,-0.31 0.65,-0.62 0.98,-0.93 0.33,-0.3 0.67,-0.6 1.01,-0.9 0.67,-0.59 1.35,-1.18 2.03,-1.75 1.36,-1.15 2.72,-2.29 4.12,-3.35 1.41,-1.06 2.83,-2.08 4.25,-3.07 0.71,-0.49 1.42,-0.99 2.15,-1.45 0.73,-0.46 1.45,-0.91 2.18,-1.36 1.45,-0.88 2.91,-1.74 4.37,-2.55 1.47,-0.78 2.94,-1.53 4.41,-2.24 0.73,-0.35 1.46,-0.72 2.19,-1.04 0.74,-0.32 1.47,-0.63 2.2,-0.94 5.84,-2.49 11.6,-4.15 16.96,-5.26 1.34,-0.27 2.66,-0.5 3.95,-0.72 1.29,-0.18 2.55,-0.34 3.78,-0.48 1.23,-0.16 2.43,-0.22 3.59,-0.3 1.16,-0.07 2.3,-0.14 3.39,-0.14 4.37,-0.1 8.13,0.24 11.17,0.67 3.04,0.44 5.36,1 6.91,1.44 0.78,0.22 1.36,0.41 1.76,0.55 0.39,0.14 0.59,0.21 0.59,0.21 -0.24,0.36 -0.49,0.73 -0.73,1.1z"/>
     <path class="fil1" d="M70.25 125.82c-0.18,0.04 -1.65,14.63 -5.25,21.89 -0.24,-0.03 1.64,-16.25 5.25,-21.89z"/>
     <path class="fil1" d="M74.02 101.05c-0.09,-0.02 -0.87,10.18 4.1,15.25 -0.11,0.02 -0.67,-10.63 -4.1,-15.25z"/>
     <path class="fil1" d="M86.46 72.38c-0.08,0.02 -5.79,7.74 -14.75,10.18 -0.11,-0.11 8.98,-9.81 14.75,-10.18z"/>
     <path class="fil1" d="M143.08 27.79c-1.53,-0.05 -13.87,31.45 -17.51,33.14 -2.56,0.99 -0.11,-7.72 5.07,-16.24 4.85,-8.59 12.41,-16.99 12.45,-16.9z"/>
     <path class="fil1" d="M130.11 32.77c-0.45,-0.59 -26.27,13.57 -41.59,15.64 -0.52,-0.66 26.85,-18.56 41.59,-15.64z"/>
     <path class="fil1" d="M94.21 61.37c0.02,0.18 -0.18,17.35 -5.5,35.27 0.14,0.27 -5.42,-15.85 5.5,-35.27z"/>
     <path class="fil1" d="M72.79 153.7c0.01,0.07 7.13,6.8 9.55,14.58 0.04,0.03 -6.38,-5.36 -9.55,-14.58z"/>
     <path class="fil1" d="M70.58 122.84c-0,0.11 8.15,10.82 10.85,21.26 0.01,0.13 -9.73,-9.54 -10.85,-21.26z"/>
     <path class="fil1" d="M71.27 112.57c-0.05,0.05 -4.74,9.46 -12.83,17.45 -0.19,-0.13 6.77,-14.39 12.83,-17.45z"/>
    </g>
    <g>
     <path class="fil1" d="M272.87 246.23c0,0 0.22,-0.19 0.6,-0.54 0.39,-0.36 0.98,-0.93 1.71,-1.71 1.48,-1.54 3.58,-3.94 5.97,-7.34 2.39,-3.38 5.12,-7.72 7.69,-13.17 0.67,-1.34 1.29,-2.78 1.92,-4.26 0.62,-1.49 1.27,-3.02 1.84,-4.65 0.58,-1.62 1.16,-3.3 1.73,-5.03 0.52,-1.76 1.04,-3.56 1.54,-5.42 1.92,-7.47 3.4,-15.88 3.83,-25.07 0.07,-1.15 0.12,-2.3 0.16,-3.47 0.04,-1.17 0.03,-2.35 0.03,-3.54 -0.01,-2.38 -0.06,-4.8 -0.16,-7.24 -0.14,-2.45 -0.36,-4.94 -0.6,-7.46 -0.13,-1.26 -0.26,-2.52 -0.41,-3.79 -0.15,-1.27 -0.37,-2.54 -0.57,-3.83 -0.41,-2.56 -0.88,-5.15 -1.4,-7.75 -0.52,-2.6 -1.21,-5.2 -1.89,-7.82 -0.34,-1.31 -0.7,-2.62 -1.08,-3.94 -0.18,-0.66 -0.38,-1.31 -0.57,-1.97 -0.21,-0.66 -0.42,-1.31 -0.64,-1.97 -0.87,-2.62 -1.79,-5.25 -2.77,-7.87 -0.49,-1.31 -0.98,-2.62 -1.51,-3.93 -0.55,-1.3 -1.11,-2.6 -1.69,-3.9 -1.15,-2.6 -2.36,-5.18 -3.61,-7.76 -0.62,-1.29 -1.3,-2.56 -1.99,-3.82 -0.69,-1.27 -1.39,-2.53 -2.1,-3.79 -1.42,-2.51 -2.91,-5.01 -4.43,-7.48 -3.17,-4.88 -6.54,-9.65 -10.07,-14.3 -3.65,-4.56 -7.46,-8.99 -11.41,-13.25 -4.05,-4.18 -8.23,-8.18 -12.5,-11.99 -1.06,-0.96 -2.16,-1.88 -3.26,-2.78 -1.1,-0.91 -2.21,-1.8 -3.32,-2.68 -2.22,-1.76 -4.46,-3.47 -6.72,-5.13 -1.13,-0.83 -2.26,-1.64 -3.39,-2.45 -1.13,-0.8 -2.3,-1.55 -3.45,-2.31 -2.31,-1.5 -4.62,-2.96 -6.94,-4.36 -2.31,-1.4 -4.63,-2.74 -6.95,-4.03 -2.31,-1.3 -4.67,-2.45 -6.99,-3.6 -4.65,-2.28 -9.26,-4.34 -13.78,-6.21 -4.55,-1.8 -9.02,-3.36 -13.36,-4.76 -2.17,-0.7 -4.31,-1.35 -6.41,-1.96 -1.05,-0.3 -2.09,-0.6 -3.12,-0.88 -1.03,-0.27 -2.06,-0.52 -3.07,-0.77 -4.06,-0.97 -7.94,-1.79 -11.61,-2.48 -3.67,-0.69 -7.14,-1.24 -10.35,-1.7 -3.22,-0.4 -6.19,-0.7 -8.89,-0.93 -10.78,-0.89 -17.06,-0.81 -17.05,-0.84 -0.01,0.04 6.26,-0.08 17.05,0.77 2.7,0.22 5.67,0.51 8.89,0.89 3.22,0.44 6.69,0.98 10.37,1.65 3.68,0.67 7.57,1.48 11.63,2.44 1.02,0.24 2.04,0.49 3.08,0.75 1.03,0.28 2.08,0.57 3.13,0.87 2.11,0.6 4.25,1.24 6.42,1.93 4.35,1.38 8.84,2.92 13.41,4.71 4.54,1.85 9.17,3.9 13.84,6.16 2.33,1.14 4.7,2.29 7.02,3.58 2.33,1.28 4.66,2.62 6.99,4.01 2.33,1.39 4.66,2.84 6.98,4.34 1.16,0.76 2.33,1.5 3.47,2.3 1.14,0.8 2.28,1.61 3.42,2.44 2.27,1.65 4.53,3.36 6.77,5.11 1.12,0.88 2.23,1.77 3.35,2.67 1.11,0.9 2.22,1.82 3.29,2.78 4.31,3.81 8.53,7.81 12.62,11.99 3.99,4.26 7.85,8.69 11.54,13.27 3.58,4.65 6.99,9.44 10.2,14.34 1.55,2.48 3.05,4.98 4.49,7.51 0.72,1.26 1.43,2.53 2.13,3.8 0.7,1.27 1.39,2.55 2.02,3.85 1.28,2.59 2.51,5.19 3.68,7.8 0.59,1.3 1.16,2.61 1.72,3.92 0.55,1.31 1.04,2.64 1.55,3.96 1,2.64 1.94,5.29 2.82,7.93 0.22,0.66 0.44,1.32 0.65,1.98 0.2,0.66 0.39,1.32 0.58,1.99 0.38,1.32 0.75,2.65 1.11,3.97 0.7,2.64 1.39,5.27 1.94,7.89 0.53,2.62 1.01,5.23 1.44,7.82 0.21,1.29 0.44,2.58 0.59,3.87 0.16,1.28 0.3,2.56 0.43,3.83 0.26,2.54 0.49,5.06 0.64,7.54 0.11,2.48 0.17,4.92 0.19,7.33 0,1.2 0.03,2.41 -0.02,3.58 -0.04,1.18 -0.09,2.35 -0.15,3.51 -0.4,9.32 -1.87,17.86 -3.79,25.44 -0.5,1.89 -1.01,3.73 -1.54,5.51 -0.57,1.76 -1.16,3.47 -1.74,5.12 -0.57,1.66 -1.23,3.22 -1.86,4.74 -0.63,1.52 -1.25,2.98 -1.93,4.35 -2.6,5.55 -5.36,9.99 -7.8,13.47 -2.44,3.47 -4.59,5.95 -6.11,7.55 -0.76,0.81 -1.36,1.39 -1.79,1.79 -0.42,0.39 -0.64,0.58 -0.64,0.58 -0.35,-0.57 -0.7,-1.13 -1.05,-1.69z"/>
     <path class="fil1" d="M204.43 23.09c0.16,-0.29 -21.88,-13.25 -30.49,-23.08 0.28,-0.34 24.48,14.1 30.49,23.08z"/>
     <path class="fil1" d="M239.93 47.2c0.12,-0.09 -14.92,-9.2 -26.47,-6.68 0.09,-0.16 16.94,7.33 26.47,6.68z"/>
     <path class="fil1" d="M273.84 85.87c0.07,-0.1 -7.38,-13.62 -4.27,-26.64 0.24,-0.05 7.82,19.07 4.27,26.64z"/>
     <path class="fil1" d="M299.01 193.01c0.02,0.02 -7.86,-11.77 -16.75,-22.37 -8.72,-10.96 -18.45,-20.74 -17.98,-24.87 0.24,-4.17 10.94,5.44 19.44,18.5 8.83,12.67 15.46,28.77 15.3,28.75z"/>
     <path class="fil1" d="M300.62 172.76c1.17,0.01 -1.61,-44.14 6.62,-64.44 1.29,-0.07 7.13,48.29 -6.62,64.44z"/>
     <path class="fil1" d="M284.43 104.53c-0.32,-0.2 -24.82,-14.1 -48.23,-34.94 -0.54,-0.12 27.76,5.35 48.23,34.94z"/>
     <path class="fil1" d="M157.78 5.66c-0.15,-0.05 -16.88,4.38 -32.01,2.38 -0.09,0.03 14.39,-4.89 32.01,-2.38z"/>
     <path class="fil1" d="M208.86 25.8c-0.2,-0.13 -23.07,2.11 -42.16,-1.91 -0.24,-0.12 22.96,-5.76 42.16,1.91z"/>
     <path class="fil1" d="M224.31 34.64c0.03,-0.09 -11.21,-13.46 -16.89,-29.58 0.34,-0.17 16.73,19.48 16.89,29.58z"/>
    </g>
   </g>
   <g>
    <g>
     <path class="fil1" d="M38.3 82.96c0,-0 -0.13,0.17 -0.34,0.49 -0.22,0.32 -0.55,0.82 -0.96,1.5 -0.82,1.34 -1.97,3.39 -3.2,6.16 -1.22,2.77 -2.56,6.25 -3.66,10.43 -0.3,1.03 -0.55,2.13 -0.79,3.25 -0.25,1.13 -0.51,2.28 -0.7,3.49 -0.2,1.21 -0.4,2.45 -0.58,3.72 -0.15,1.28 -0.29,2.59 -0.4,3.94 -0.43,5.37 -0.46,11.27 0.28,17.45 0.09,0.77 0.18,1.55 0.28,2.33 0.1,0.78 0.24,1.56 0.37,2.35 0.27,1.57 0.57,3.16 0.89,4.76 0.36,1.59 0.77,3.19 1.2,4.8 0.22,0.8 0.44,1.61 0.68,2.41 0.23,0.81 0.51,1.6 0.78,2.41 0.54,1.6 1.11,3.21 1.72,4.82 0.61,1.6 1.32,3.18 2.02,4.77 0.36,0.79 0.72,1.58 1.09,2.37 0.19,0.4 0.37,0.79 0.56,1.18 0.2,0.39 0.4,0.78 0.61,1.16 0.82,1.55 1.67,3.09 2.55,4.61 0.44,0.76 0.88,1.53 1.35,2.28 0.47,0.74 0.96,1.48 1.45,2.22 0.98,1.47 1.99,2.93 3.02,4.37 0.51,0.72 1.06,1.42 1.61,2.12 0.55,0.69 1.11,1.38 1.67,2.07 1.12,1.37 2.28,2.71 3.45,4.03 2.41,2.58 4.91,5.05 7.49,7.41 2.63,2.29 5.33,4.46 8.08,6.51 2.79,1.98 5.63,3.82 8.48,5.54 0.71,0.44 1.44,0.84 2.16,1.23 0.72,0.39 1.45,0.78 2.18,1.16 1.45,0.75 2.91,1.47 4.36,2.16 0.73,0.34 1.45,0.68 2.17,1 0.73,0.33 1.46,0.61 2.19,0.91 1.46,0.58 2.91,1.14 4.35,1.66 1.44,0.52 2.88,1.01 4.3,1.47 1.42,0.46 2.85,0.82 4.25,1.2 2.81,0.73 5.56,1.34 8.23,1.85 2.68,0.47 5.27,0.8 7.76,1.07 1.25,0.13 2.47,0.24 3.66,0.33 0.6,0.05 1.19,0.09 1.77,0.13 0.58,0.03 1.16,0.05 1.73,0.06 2.28,0.06 4.43,0.06 6.45,0.02 2.02,-0.05 3.91,-0.14 5.65,-0.25 1.74,-0.15 3.33,-0.33 4.76,-0.51 5.73,-0.74 8.94,-1.46 8.94,-1.44 -0,-0.02 -3.21,0.72 -8.93,1.49 -1.43,0.19 -3.02,0.37 -4.76,0.54 -1.74,0.12 -3.63,0.23 -5.65,0.29 -2.02,0.05 -4.18,0.07 -6.46,0.02 -0.57,-0.01 -1.15,-0.03 -1.73,-0.05 -0.58,-0.03 -1.18,-0.07 -1.77,-0.11 -1.2,-0.09 -2.42,-0.19 -3.67,-0.32 -2.5,-0.26 -5.1,-0.57 -7.78,-1.03 -2.68,-0.5 -5.44,-1.1 -8.26,-1.81 -1.41,-0.37 -2.84,-0.72 -4.27,-1.18 -1.43,-0.45 -2.87,-0.93 -4.32,-1.45 -1.45,-0.51 -2.91,-1.06 -4.37,-1.63 -0.73,-0.29 -1.47,-0.58 -2.2,-0.9 -0.73,-0.32 -1.46,-0.66 -2.19,-1 -1.46,-0.68 -2.92,-1.39 -4.39,-2.14 -0.73,-0.38 -1.46,-0.76 -2.19,-1.15 -0.73,-0.39 -1.46,-0.79 -2.18,-1.22 -2.88,-1.71 -5.74,-3.54 -8.56,-5.51 -2.77,-2.04 -5.5,-4.21 -8.16,-6.5 -2.6,-2.36 -5.13,-4.83 -7.58,-7.42 -1.19,-1.32 -2.35,-2.67 -3.49,-4.04 -0.57,-0.68 -1.13,-1.37 -1.69,-2.07 -0.56,-0.7 -1.11,-1.39 -1.63,-2.12 -1.05,-1.44 -2.08,-2.9 -3.07,-4.38 -0.5,-0.74 -0.99,-1.48 -1.47,-2.23 -0.47,-0.75 -0.92,-1.52 -1.37,-2.29 -0.89,-1.54 -1.76,-3.08 -2.59,-4.64 -0.21,-0.39 -0.41,-0.78 -0.62,-1.17 -0.19,-0.4 -0.39,-0.79 -0.58,-1.19 -0.38,-0.79 -0.75,-1.59 -1.12,-2.38 -0.72,-1.6 -1.44,-3.19 -2.06,-4.8 -0.62,-1.62 -1.21,-3.24 -1.76,-4.86 -0.27,-0.81 -0.56,-1.61 -0.8,-2.43 -0.24,-0.81 -0.47,-1.63 -0.69,-2.44 -0.44,-1.62 -0.87,-3.24 -1.23,-4.84 -0.34,-1.62 -0.65,-3.22 -0.93,-4.81 -0.13,-0.79 -0.28,-1.59 -0.39,-2.37 -0.1,-0.79 -0.2,-1.58 -0.29,-2.36 -0.77,-6.26 -0.78,-12.24 -0.36,-17.7 0.11,-1.36 0.25,-2.7 0.39,-4 0.18,-1.29 0.37,-2.55 0.58,-3.79 0.19,-1.23 0.45,-2.4 0.7,-3.55 0.25,-1.14 0.5,-2.26 0.8,-3.31 1.1,-4.26 2.46,-7.83 3.7,-10.67 1.25,-2.84 2.42,-4.95 3.26,-6.35 0.42,-0.7 0.76,-1.22 1.01,-1.58 0.24,-0.35 0.36,-0.52 0.36,-0.52 0.28,0.32 0.56,0.65 0.85,0.97z"/>
     <path class="fil1" d="M100.26 218.04c-0.02,0.19 13.48,5.1 19.41,10.33 -0.09,0.22 -15.03,-5.48 -19.41,-10.33z"/>
     <path class="fil1" d="M77.7 208.45c-0.04,0.08 9.45,3.28 15.64,-0.32 -0.01,0.11 -10.3,-1.9 -15.64,0.32z"/>
     <path class="fil1" d="M53.81 189.52c-0,0.08 5.79,7.47 5.65,16.73 -0.13,0.08 -6.87,-11.06 -5.65,-16.73z"/>
     <path class="fil1" d="M26.86 123.97c-0.47,1.46 26.15,20.98 26.76,24.91 0.24,2.72 -7.38,-1.74 -14.08,-8.8 -6.85,-6.75 -12.78,-16.1 -12.68,-16.11z"/>
     <path class="fil1" d="M28.05 137.72c-0.68,0.3 5.72,28.72 3.5,44.05 -0.77,0.35 -10.31,-30.47 -3.5,-44.05z"/>
     <path class="fil1" d="M45.45 179.38c0.18,0.02 16.47,4.33 32.08,13.78 0.3,-0.07 -16.58,1.46 -32.08,-13.78z"/>
     <path class="fil1" d="M127.5 222.26c0.08,0.01 8.43,-5.29 16.5,-5.76 0.04,-0.03 -6.85,4.9 -16.5,5.76z"/>
     <path class="fil1" d="M97.5 217c0.1,0.03 12.54,-5.3 23.22,-5.42 0.13,0.02 -11.75,7.14 -23.22,5.42z"/>
     <path class="fil1" d="M87.92 213.87c0.03,0.06 7.71,6.86 13.1,16.61 -0.17,0.16 -11.85,-10.01 -13.1,-16.61z"/>
    </g>
    <g>
     <path class="fil1" d="M80.98 279.28c-0,0 0.15,0.15 0.45,0.4 0.29,0.26 0.76,0.64 1.38,1.12 1.24,0.97 3.14,2.34 5.75,3.88 2.61,1.53 5.92,3.27 9.95,4.84 0.99,0.41 2.05,0.79 3.14,1.16 1.09,0.38 2.21,0.77 3.39,1.1 1.18,0.34 2.38,0.68 3.63,1 1.25,0.3 2.54,0.58 3.86,0.85 5.29,1.04 11.15,1.74 17.37,1.72 0.78,0 1.56,0 2.35,-0.01 0.79,-0.01 1.58,-0.06 2.38,-0.1 1.59,-0.09 3.21,-0.2 4.83,-0.34 1.62,-0.17 3.26,-0.4 4.9,-0.64 0.82,-0.12 1.65,-0.26 2.48,-0.39 0.83,-0.14 1.65,-0.32 2.48,-0.5 1.65,-0.35 3.32,-0.74 4.98,-1.16 1.67,-0.42 3.31,-0.94 4.97,-1.46 0.83,-0.26 1.65,-0.54 2.48,-0.81 0.41,-0.14 0.83,-0.28 1.24,-0.42 0.41,-0.16 0.82,-0.31 1.23,-0.47 1.63,-0.64 3.26,-1.3 4.87,-2.01 0.81,-0.35 1.62,-0.7 2.42,-1.08 0.79,-0.39 1.59,-0.78 2.37,-1.18 1.58,-0.8 3.14,-1.63 4.68,-2.5 0.78,-0.43 1.53,-0.89 2.29,-1.36 0.75,-0.47 1.5,-0.94 2.25,-1.42 1.49,-0.96 2.95,-1.95 4.4,-2.97 2.84,-2.1 5.58,-4.3 8.23,-6.59 2.58,-2.35 5.05,-4.79 7.4,-7.28 2.28,-2.55 4.44,-5.15 6.47,-7.79 0.51,-0.66 1,-1.33 1.47,-2.01 0.47,-0.67 0.94,-1.35 1.4,-2.03 0.91,-1.35 1.79,-2.72 2.64,-4.08 0.42,-0.68 0.84,-1.37 1.25,-2.05 0.41,-0.68 0.78,-1.38 1.16,-2.07 0.75,-1.38 1.46,-2.76 2.15,-4.14 0.68,-1.38 1.33,-2.74 1.95,-4.1 0.62,-1.36 1.15,-2.74 1.68,-4.09 1.05,-2.71 1.97,-5.37 2.79,-7.96 0.77,-2.61 1.4,-5.14 1.95,-7.59 0.27,-1.22 0.52,-2.42 0.75,-3.6 0.12,-0.59 0.23,-1.17 0.33,-1.74 0.09,-0.58 0.18,-1.15 0.26,-1.71 0.32,-2.25 0.57,-4.4 0.76,-6.41 0.18,-2.01 0.31,-3.9 0.4,-5.64 0.05,-1.74 0.05,-3.34 0.04,-4.79 -0.07,-5.78 -0.42,-9.05 -0.4,-9.05 -0.02,0 0.35,3.27 0.46,9.04 0.02,1.44 0.02,3.04 -0.01,4.79 -0.07,1.75 -0.19,3.63 -0.36,5.65 -0.18,2.02 -0.41,4.16 -0.72,6.42 -0.08,0.56 -0.16,1.13 -0.25,1.71 -0.1,0.58 -0.21,1.16 -0.32,1.75 -0.22,1.18 -0.47,2.38 -0.73,3.61 -0.54,2.45 -1.15,5 -1.91,7.61 -0.8,2.6 -1.71,5.27 -2.74,8 -0.53,1.36 -1.04,2.74 -1.66,4.11 -0.61,1.37 -1.26,2.75 -1.93,4.13 -0.67,1.38 -1.39,2.77 -2.13,4.16 -0.37,0.69 -0.74,1.39 -1.15,2.08 -0.41,0.69 -0.82,1.37 -1.24,2.06 -0.84,1.37 -1.72,2.74 -2.63,4.11 -0.46,0.68 -0.92,1.37 -1.39,2.04 -0.47,0.69 -0.95,1.36 -1.46,2.02 -2.02,2.67 -4.18,5.29 -6.46,7.87 -2.35,2.52 -4.81,4.98 -7.39,7.35 -2.64,2.32 -5.39,4.55 -8.24,6.68 -1.45,1.03 -2.92,2.03 -4.41,3 -0.74,0.49 -1.49,0.97 -2.25,1.44 -0.75,0.47 -1.51,0.94 -2.29,1.38 -1.55,0.88 -3.12,1.73 -4.7,2.55 -0.79,0.41 -1.58,0.81 -2.38,1.2 -0.8,0.39 -1.62,0.74 -2.43,1.1 -1.63,0.71 -3.26,1.4 -4.9,2.04 -0.41,0.16 -0.82,0.32 -1.23,0.48 -0.41,0.15 -0.83,0.29 -1.25,0.44 -0.83,0.28 -1.66,0.56 -2.5,0.83 -1.67,0.53 -3.33,1.06 -5.01,1.5 -1.68,0.43 -3.35,0.83 -5.02,1.19 -0.83,0.18 -1.67,0.37 -2.5,0.51 -0.83,0.15 -1.67,0.28 -2.5,0.41 -1.66,0.25 -3.31,0.49 -4.95,0.67 -1.64,0.16 -3.27,0.28 -4.89,0.37 -0.81,0.04 -1.61,0.1 -2.4,0.11 -0.8,0.01 -1.59,0.02 -2.37,0.02 -6.3,0.05 -12.25,-0.63 -17.62,-1.67 -1.34,-0.27 -2.65,-0.55 -3.93,-0.85 -1.27,-0.32 -2.5,-0.66 -3.69,-1.01 -1.2,-0.33 -2.34,-0.73 -3.45,-1.1 -1.11,-0.38 -2.19,-0.76 -3.2,-1.17 -4.11,-1.59 -7.49,-3.34 -10.17,-4.9 -2.68,-1.57 -4.65,-2.97 -5.93,-3.97 -0.65,-0.5 -1.12,-0.9 -1.45,-1.18 -0.32,-0.28 -0.48,-0.42 -0.48,-0.42 0.36,-0.24 0.71,-0.48 1.06,-0.73z"/>
     <path class="fil1" d="M222.28 233.22c0.18,0.04 6.62,-12.8 12.49,-18.1 0.21,0.12 -7.17,14.3 -12.49,18.1z"/>
     <path class="fil1" d="M210.16 254.52c0.07,0.05 4.34,-9.01 1.48,-15.57 0.11,0.03 -3.07,10.02 -1.48,15.57z"/>
     <path class="fil1" d="M188.62 276.1c0.09,0.01 8.08,-4.89 17.27,-3.7 0.06,0.14 -11.77,5.56 -17.27,3.7z"/>
     <path class="fil1" d="M120.41 295.35c1.4,0.63 23.84,-23.57 27.82,-23.73 2.73,0.08 -2.58,7.13 -10.36,12.98 -7.49,6.03 -17.46,10.86 -17.46,10.75z"/>
     <path class="fil1" d="M134.21 295.74c0.22,0.71 29.18,-2.39 44.17,1.57 0.25,0.8 -31.45,6.75 -44.17,-1.57z"/>
     <path class="fil1" d="M177.59 283.23c0.04,-0.17 6.19,-15.87 17.37,-30.29 -0.03,-0.31 -0.45,16.64 -17.37,30.29z"/>
     <path class="fil1" d="M229.59 206.64c0.01,-0.08 -4.29,-8.98 -3.83,-17.06 -0.03,-0.04 4.08,7.37 3.83,17.06z"/>
     <path class="fil1" d="M220.93 235.83c0.04,-0.1 -3.83,-13.06 -2.73,-23.68 0.03,-0.13 5.75,12.49 2.73,23.68z"/>
     <path class="fil1" d="M216.72 245c0.07,-0.02 7.7,-6.88 18,-11.11 0.14,0.19 -11.3,10.62 -18,11.11z"/>
    </g>
    <g>
     <path class="fil1" d="M41.06 82.22c0,-0 -0.23,0.19 -0.62,0.54 -0.4,0.36 -1,0.93 -1.76,1.7 -1.53,1.53 -3.7,3.93 -6.21,7.3 -2.5,3.37 -5.38,7.7 -8.15,13.13 -0.72,1.33 -1.39,2.77 -2.07,4.25 -0.67,1.49 -1.39,3.01 -2.01,4.64 -0.64,1.62 -1.29,3.29 -1.92,5.01 -0.59,1.75 -1.17,3.55 -1.74,5.41 -2.2,7.45 -4.01,15.85 -4.81,25.02 -0.11,1.14 -0.21,2.3 -0.3,3.46 -0.09,1.16 -0.12,2.35 -0.17,3.53 -0.08,2.38 -0.13,4.79 -0.14,7.23 0.03,2.45 0.15,4.94 0.29,7.44 0.08,1.26 0.16,2.52 0.26,3.78 0.1,1.27 0.26,2.54 0.41,3.82 0.31,2.56 0.66,5.14 1.07,7.74 0.41,2.6 0.98,5.2 1.55,7.82 0.29,1.31 0.59,2.62 0.91,3.93 0.16,0.66 0.32,1.31 0.48,1.97 0.18,0.65 0.37,1.31 0.55,1.97 0.75,2.62 1.56,5.24 2.42,7.86 0.43,1.31 0.86,2.62 1.34,3.93 0.49,1.3 1,2.6 1.51,3.9 1.03,2.59 2.12,5.18 3.26,7.75 0.56,1.29 1.18,2.56 1.81,3.82 0.63,1.27 1.27,2.53 1.93,3.79 1.31,2.51 2.67,5.01 4.08,7.48 2.94,4.88 6.08,9.66 9.39,14.3 3.43,4.57 7.02,9 10.76,13.27 3.84,4.18 7.82,8.19 11.89,12.01 1.01,0.96 2.06,1.88 3.12,2.79 1.05,0.91 2.11,1.8 3.18,2.68 2.13,1.76 4.28,3.48 6.45,5.14 1.08,0.83 2.17,1.65 3.26,2.46 1.09,0.81 2.21,1.56 3.32,2.32 2.22,1.51 4.46,2.97 6.69,4.37 2.24,1.4 4.48,2.76 6.72,4.05 2.24,1.3 4.52,2.46 6.77,3.62 4.51,2.29 8.99,4.37 13.39,6.24 4.43,1.82 8.8,3.38 13.03,4.8 2.12,0.7 4.21,1.36 6.26,1.98 1.03,0.31 2.04,0.61 3.06,0.89 1.01,0.27 2.02,0.53 3.01,0.78 3.98,0.99 7.78,1.82 11.39,2.52 3.61,0.69 7.01,1.26 10.18,1.73 3.17,0.41 6.1,0.72 8.76,0.95 10.64,0.93 16.85,0.87 16.85,0.9 0.01,-0.04 -6.2,0.06 -16.85,-0.82 -2.66,-0.23 -5.59,-0.52 -8.77,-0.92 -3.17,-0.45 -6.58,-1.01 -10.19,-1.69 -3.61,-0.68 -7.43,-1.5 -11.41,-2.47 -1,-0.24 -2,-0.5 -3.02,-0.76 -1.01,-0.28 -2.03,-0.57 -3.06,-0.88 -2.06,-0.61 -4.16,-1.25 -6.28,-1.95 -4.25,-1.4 -8.63,-2.94 -13.08,-4.74 -4.42,-1.86 -8.92,-3.92 -13.45,-6.19 -2.26,-1.15 -4.56,-2.3 -6.81,-3.6 -2.25,-1.29 -4.51,-2.63 -6.76,-4.03 -2.25,-1.39 -4.5,-2.85 -6.74,-4.35 -1.12,-0.76 -2.25,-1.51 -3.34,-2.31 -1.1,-0.8 -2.19,-1.62 -3.28,-2.45 -2.18,-1.66 -4.35,-3.37 -6.49,-5.13 -1.07,-0.88 -2.14,-1.77 -3.2,-2.68 -1.06,-0.9 -2.12,-1.83 -3.14,-2.79 -4.12,-3.81 -8.13,-7.82 -12.01,-12.01 -3.78,-4.27 -7.42,-8.7 -10.88,-13.28 -3.35,-4.66 -6.53,-9.45 -9.52,-14.35 -1.43,-2.48 -2.81,-4.99 -4.15,-7.51 -0.67,-1.26 -1.32,-2.53 -1.96,-3.81 -0.64,-1.27 -1.27,-2.55 -1.84,-3.85 -1.16,-2.59 -2.27,-5.18 -3.32,-7.79 -0.53,-1.3 -1.04,-2.61 -1.54,-3.92 -0.49,-1.31 -0.92,-2.64 -1.37,-3.95 -0.88,-2.64 -1.7,-5.28 -2.47,-7.92 -0.19,-0.66 -0.38,-1.32 -0.56,-1.98 -0.17,-0.66 -0.34,-1.32 -0.5,-1.98 -0.32,-1.32 -0.64,-2.65 -0.93,-3.97 -0.58,-2.64 -1.17,-5.27 -1.6,-7.89 -0.42,-2.62 -0.79,-5.23 -1.12,-7.81 -0.15,-1.29 -0.32,-2.58 -0.43,-3.86 -0.1,-1.28 -0.19,-2.56 -0.27,-3.82 -0.16,-2.53 -0.28,-5.05 -0.33,-7.53 -0.01,-2.47 0.03,-4.92 0.11,-7.32 0.05,-1.2 0.07,-2.4 0.16,-3.58 0.09,-1.18 0.19,-2.35 0.29,-3.51 0.77,-9.3 2.58,-17.82 4.78,-25.39 0.57,-1.89 1.16,-3.72 1.75,-5.5 0.64,-1.76 1.28,-3.46 1.93,-5.11 0.63,-1.66 1.35,-3.21 2.03,-4.72 0.69,-1.51 1.36,-2.97 2.09,-4.33 2.8,-5.54 5.72,-9.96 8.27,-13.42 2.56,-3.46 4.78,-5.92 6.36,-7.52 0.79,-0.81 1.41,-1.39 1.85,-1.78 0.43,-0.39 0.66,-0.58 0.66,-0.58 0.32,0.57 0.65,1.13 0.98,1.7z"/>
     <path class="fil1" d="M99.76 305.22c-0.17,0.29 21.12,13.3 29.25,23.14 -0.29,0.34 -23.66,-14.16 -29.25,-23.14z"/>
     <path class="fil1" d="M65.59 281.04c-0.12,0.09 14.4,9.23 25.93,6.75 -0.09,0.16 -16.48,-7.38 -25.93,-6.75z"/>
     <path class="fil1" d="M33.59 242.32c-0.07,0.09 6.76,13.62 3.15,26.6 -0.24,0.05 -6.96,-19.06 -3.15,-26.6z"/>
     <path class="fil1" d="M13.02 135.27c-0.01,-0.02 7.3,11.77 15.68,22.39 8.19,10.97 17.43,20.77 16.79,24.89 -0.41,4.17 -10.61,-5.47 -18.5,-18.53 -8.23,-12.68 -14.14,-28.77 -13.98,-28.75z"/>
     <path class="fil1" d="M10.6 155.48c-1.15,-0.01 -0.2,44.07 -9.16,64.31 -1.28,0.07 -5.1,-48.23 9.16,-64.31z"/>
     <path class="fil1" d="M23.86 223.65c0.31,0.2 24,14.16 46.33,35.03 0.53,0.12 -27.27,-5.43 -46.33,-35.03z"/>
     <path class="fil1" d="M145.24 322.77c0.14,0.05 16.88,-4.32 31.79,-2.27 0.09,-0.03 -14.44,4.83 -31.79,2.27z"/>
     <path class="fil1" d="M95.48 302.51c0.19,0.13 22.93,-2.04 41.66,2.04 0.24,0.12 -22.96,5.67 -41.66,-2.04z"/>
     <path class="fil1" d="M80.54 293.62c-0.03,0.09 10.56,13.47 15.52,29.58 -0.35,0.17 -15.77,-19.5 -15.52,-29.58z"/>
    </g>
   </g>
   <g>
    <g>
     <path class="fil2" d="M260.44 86.32c-0.24,-20.44 -31.71,-32.7 -32.41,-68.56 -3.96,40.43 25.7,47.45 32.41,68.56z"/>
     <path class="fil2" d="M269.61 215.95c15.31,-13.54 4.01,-45.37 30.7,-69.35 -33.19,23.43 -19.11,50.47 -30.7,69.35z"/>
     <path class="fil2" d="M28.79 212.43c23.1,27.2 25.09,55.79 25.89,70.58 5.75,-14.85 2.94,-42.77 -25.89,-70.58z"/>
     <path class="fil2" d="M239.85 97.33c25.29,25.18 29.66,53.51 31.69,68.18 4.5,-15.28 -0.64,-42.87 -31.69,-68.18z"/>
     <path class="fil2" d="M62.63 102.26c9.53,-34.39 32.07,-52.1 43.86,-61.07 -15.52,3.58 -37.04,21.59 -43.86,61.07z"/>
     <path class="fil2" d="M34.31 120.89c-7.14,14.23 -7,42.3 19.05,72.73 -20.4,-29.28 -19.66,-57.93 -19.05,-72.73z"/>
     <path class="fil2" d="M175.59 284.18c15.89,-1.04 40.02,-15.38 53.08,-53.25 -14.92,32.42 -40,46.28 -53.08,53.25z"/>
     <path class="fil3" d="M132.91 277.98c-36.37,-4.43 -49.46,-29.44 -80.65,-33.79 23.33,7.16 41,37.81 80.65,33.79z"/>
     <path class="fil3" d="M221.02 42.14c31.3,17.14 43.38,43.14 49.42,56.66 0.06,-15.92 -12.55,-40.99 -49.42,-56.66z"/>
     <path class="fil3" d="M143.93 51.64c34.26,-10 61.18,-0.15 75.01,5.15 -11.21,-11.31 -37.85,-20.13 -75.01,-5.15z"/>
     <path class="fil3" d="M218.4 275.91c9.82,-11.09 29.14,-32.26 64.14,-39.23 -39.87,3.89 -59.43,24.02 -64.14,39.23z"/>
     <path class="fil3" d="M63.07 259.65c12.87,7.33 37.55,21.9 51.55,54.72 -11.99,-38.23 -35.7,-53.23 -51.55,-54.72z"/>
     <path class="fil3" d="M14.06 228.96c23.68,-32.31 21.71,-60.31 13.52,-73.96 1.73,14.71 4.62,43.23 -13.52,73.96z"/>
     <path class="fil3" d="M194.05 276.98c15.88,-1.21 39.86,-15.78 52.54,-53.78 -14.59,32.57 -39.54,46.69 -52.54,53.78z"/>
     <path class="fil2" d="M176.55 291.12c19.89,4.7 39.39,-22.87 74.36,-14.88 -38.27,-13.62 -52.25,13.47 -74.36,14.88z"/>
     <path class="fil3" d="M281.99 102.57c7.73,35.82 -11.6,56.38 -5.5,87.27 -0.88,-24.38 22.28,-51.13 5.5,-87.27z"/>
     <path class="fil3" d="M38.74 136.43c3.8,-36.44 28.57,-49.97 32.38,-81.23 -6.74,23.44 -37.09,41.65 -32.38,81.23z"/>
     <path class="fil3" d="M85.32 54.3c29.04,-19.29 58.24,-5.44 83.59,-21.49 -22.08,8.54 -59.02,-7.4 -83.59,21.49z"/>
     <path class="fil2" d="M88.39 283.5c19.99,-4.49 50.06,13.69 74.47,-7.78 -27.19,12.75 -50.83,-2.68 -74.47,7.78z"/>
     <path class="fil4" d="M230.16 67.62c1.33,-1.88 0.28,-3.26 -0.36,-3.38 -0.84,-0.16 -2.5,0.38 -1.8,2.98 -1.45,-1.85 -2.82,-1.09 -3.1,-0.32 -0.3,0.81 -0.08,2.03 1.82,2.07 -1.26,0.51 -2.74,1.63 -1.31,3.01 1.1,1.07 2.34,0.03 2.86,-0.74 0,0.94 1.03,2.63 2.46,2.19 1.47,-0.45 1.35,-2.66 0.29,-3.58 2,0.44 3.16,-1.48 2.84,-2.21 -0.56,-1.27 -2.3,-1.61 -3.7,-0.03z"/>
     <path class="fil2" d="M244.21 248.08c3.36,-20.19 30.93,-41.56 20.59,-71.98 1.43,29.85 -21.26,46.24 -20.59,71.98z"/>
     <path class="fil2" d="M188.57 37.67c-14.04,-14.85 -45.48,-2.51 -70.32,-28.39 24.51,32.39 51.07,17.43 70.32,28.39z"/>
     <path class="fil2" d="M0.03 121.45c40.03,-6.9 38.93,-37.37 57.51,-49.44 -19.64,5.66 -23.11,39.25 -57.51,49.44z"/>
     <path class="fil2" d="M107.75 261.15c-35.84,-1.65 -47.26,-33.43 -67.69,-34.21 20.93,7.26 27.17,37.11 67.69,34.21z"/>
     <path class="fil4" d="M239.66 233.69c1.33,-1.88 0.28,-3.26 -0.36,-3.39 -0.84,-0.16 -2.5,0.39 -1.8,2.99 -1.45,-1.85 -2.82,-1.09 -3.1,-0.31 -0.3,0.81 -0.08,2.03 1.82,2.07 -1.26,0.51 -2.74,1.63 -1.31,3.01 1.1,1.06 2.34,0.03 2.86,-0.74 0,0.93 1.02,2.63 2.46,2.19 1.47,-0.44 1.35,-2.65 0.28,-3.58 2,0.44 3.16,-1.48 2.84,-2.21 -0.56,-1.27 -2.31,-1.61 -3.7,-0.03z"/>
     <path class="fil4" d="M69.53 277.69c1.33,-1.88 0.28,-3.26 -0.36,-3.38 -0.84,-0.17 -2.5,0.38 -1.8,2.98 -1.44,-1.85 -2.82,-1.09 -3.1,-0.32 -0.3,0.81 -0.08,2.03 1.82,2.06 -1.26,0.51 -2.74,1.63 -1.31,3.01 1.1,1.07 2.34,0.03 2.86,-0.74 0,0.93 1.02,2.63 2.46,2.19 1.47,-0.45 1.35,-2.66 0.28,-3.58 2,0.44 3.16,-1.48 2.85,-2.21 -0.56,-1.27 -2.3,-1.61 -3.7,-0.03z"/>
     <path class="fil4" d="M47.2 106.51c1.33,-1.88 0.28,-3.26 -0.36,-3.39 -0.84,-0.16 -2.5,0.39 -1.8,2.99 -1.45,-1.85 -2.82,-1.09 -3.1,-0.32 -0.3,0.81 -0.08,2.03 1.82,2.07 -1.26,0.51 -2.74,1.63 -1.31,3.01 1.1,1.07 2.34,0.03 2.87,-0.74 -0,0.94 1.02,2.63 2.46,2.19 1.47,-0.45 1.35,-2.65 0.29,-3.58 2,0.43 3.16,-1.48 2.84,-2.21 -0.56,-1.27 -2.3,-1.61 -3.69,-0.03z"/>
     <path class="fil4" d="M289.73 138.96c1.33,-1.88 0.28,-3.26 -0.36,-3.38 -0.84,-0.16 -2.5,0.39 -1.8,2.98 -1.45,-1.85 -2.82,-1.09 -3.1,-0.31 -0.3,0.81 -0.08,2.03 1.82,2.07 -1.27,0.51 -2.74,1.63 -1.31,3.01 1.1,1.06 2.34,0.03 2.86,-0.74 0,0.93 1.03,2.63 2.46,2.19 1.47,-0.45 1.35,-2.65 0.29,-3.58 2,0.44 3.16,-1.48 2.84,-2.21 -0.56,-1.27 -2.3,-1.61 -3.7,-0.03z"/>
    </g>
    <g>
     <path class="fil5" d="M276.68 157.26c-4.42,1.06 0.66,10.87 5.7,10.75 -1.64,-4.5 -1.51,-11.76 -5.7,-10.75z"/>
     <path class="fil6" d="M265.14 112.45c-0.48,2.52 5.3,2.66 6.75,1.29 -1.81,-1.74 -6.36,-3.32 -6.75,-1.29z"/>
     <path class="fil5" d="M254.01 92.73c0.16,2.25 5.12,1.06 6.04,-0.44 -1.94,-1.07 -6.18,-1.37 -6.04,0.44z"/>
     <path class="fil5" d="M264.9 114.75c-0.06,3.04 7.16,1.41 7.94,-1.89 -3.2,0.31 -7.88,-1 -7.94,1.89z"/>
     <path class="fil5" d="M260.23 105.38c1.02,2.73 6.71,-0.54 7.31,-2.73 -2.78,-0.62 -8.13,0.54 -7.31,2.73z"/>
     <path class="fil7" d="M242.77 75c39.31,30.82 44.41,85.76 31.53,153.43 -0.25,1.89 3.14,2.52 3.66,0.84 14.14,-88.23 -1.18,-128.31 -35.19,-154.27z"/>
     <path class="fil5" d="M259.02 100.77c-0.77,2.81 5.77,3.48 7.53,2.05 -1.9,-2.13 -6.91,-4.31 -7.53,-2.05z"/>
     <path class="fil5" d="M268.95 94.71c-2.3,-0.44 -2.56,5.03 -1.48,7.67 2.06,-0.96 4.34,-7.12 1.48,-7.67z"/>
     <path class="fil5" d="M269.77 162.91c-2.8,3.58 7.29,8.1 11.16,4.87 -4.09,-2.5 -8.51,-8.26 -11.16,-4.87z"/>
     <path class="fil5" d="M269.31 140.65c-2.56,3.75 7.79,7.62 11.45,4.14 -4.24,-2.23 -9.02,-7.7 -11.45,-4.14z"/>
     <path class="fil5" d="M269.09 124.18c-1.87,2.4 4.88,5.43 7.48,3.26 -2.74,-1.67 -5.7,-5.54 -7.48,-3.26z"/>
     <path class="fil5" d="M282.62 121.71c-2.5,-1.45 -3.81,3.24 -5.73,5.81 3.22,1.05 8.36,-4.28 5.73,-5.81z"/>
     <path class="fil5" d="M282.93 168.2c3.94,0.21 12.44,-7.39 8.5,-10.56 -3.17,-2.55 -8,5.63 -8.5,10.56z"/>
     <path class="fil6" d="M272.73 136.51c-3.46,3.17 4.86,9.69 8.5,9.26 -0.75,-4.53 -5.72,-11.81 -8.5,-9.26z"/>
     <path class="fil6" d="M280.53 118.74c-2.68,-1.11 -4.35,5.47 -3.7,8.94 2.74,-0.65 7.04,-7.56 3.7,-8.94z"/>
     <path class="fil6" d="M275.73 105.8c-2.43,-1 -3.93,4.94 -3.35,8.08 2.48,-0.58 6.36,-6.83 3.35,-8.08z"/>
     <path class="fil6" d="M265.28 94.15c-2.55,0.61 -0.29,6.31 2.03,8.5 1.66,-1.93 1.14,-9.26 -2.03,-8.5z"/>
     <path class="fil6" d="M258.98 84.75c-2.31,0.3 -0.85,5.54 0.99,7.7 1.65,-1.54 1.89,-8.07 -0.99,-7.7z"/>
     <path class="fil6" d="M252.8 78.72c-2.24,0.64 -0.02,5.6 2.12,7.47 1.41,-1.78 0.67,-8.26 -2.12,-7.47z"/>
     <path class="fil6" d="M245.26 73.02c-1.67,0.69 0.48,4.34 2.29,5.59 0.93,-1.49 -0.21,-6.45 -2.29,-5.59z"/>
     <path class="fil6" d="M253.58 89.15c-0.94,1.8 3.54,3.4 6,3.16 -0.28,-1.96 -4.83,-5.4 -6,-3.16z"/>
     <path class="fil6" d="M248.11 83.87c-0.67,1.92 4,2.83 6.41,2.23 -0.56,-1.89 -5.57,-4.63 -6.41,-2.23z"/>
     <path class="fil8" d="M260.37 97.15c-1.78,1.93 3.29,5.39 6.44,5.91 0.3,-2.53 -4.23,-8.32 -6.44,-5.91z"/>
     <path class="fil6" d="M270.17 120.48c-2.16,1.95 3.06,6.28 6.48,7.19 0.59,-2.75 -3.8,-9.6 -6.48,-7.19z"/>
     <path class="fil6" d="M287.5 136.25c-2.85,-2 -6.52,5.24 -6.67,9.48 3.37,-0.04 10.21,-6.99 6.67,-9.48z"/>
     <path class="fil6" d="M287.63 155.45c-3.79,-1.49 -5.97,7.76 -4.97,12.61 3.83,-0.97 9.68,-10.76 4.97,-12.61z"/>
     <path class="fil9" d="M275.55 118.05c-2.64,0.42 -0.8,6.38 1.38,8.8 1.85,-1.83 1.91,-9.32 -1.38,-8.8z"/>
     <path class="fil8" d="M282.1 134.54c-3.48,-0.44 -3.33,7.76 -1.46,11.6 2.99,-1.63 5.79,-11.06 1.46,-11.6z"/>
     <path class="fil10" d="M248.83 80.84c-1.5,1.75 3.05,4.63 5.82,4.99 0.19,-2.23 -3.96,-7.17 -5.82,-4.99z"/>
     <path class="fil9" d="M243.38 74.07c-1.36,1.17 1.81,3.91 3.91,4.51 0.4,-1.69 -2.22,-5.97 -3.91,-4.51z"/>
     <path class="fil6" d="M273.89 157.46c-4.6,2.09 3.01,11.75 8.5,10.55 -2.75,-4.57 -4.13,-12.54 -8.5,-10.55z"/>
     <path class="fil10" d="M286.07 160.5c2.93,-1.14 2.8,-4.6 1.77,-5.26 -1.8,-1.16 -4.33,-0.1 -4.77,3.11 0.11,-3.55 -2.42,-4.42 -3.34,-4.04 -1.22,0.51 -2.89,2.63 0.23,5.37 -3.43,-1.14 -4.55,1 -4.25,2.24 0.3,1.29 1.63,2.67 4.1,1.1 -1.19,1.73 -2.14,4.43 0.88,4.99 2.32,0.43 3.02,-1.95 3.05,-3.39 0.79,1.2 3.56,2.51 5.03,0.72 1.5,-1.83 -0.53,-4.56 -2.68,-4.84z"/>
    </g>
    <g>
     <path class="fil5" d="M231.66 57.5c-2.11,4.02 8.6,6.69 11.84,2.82 -4.47,-1.74 -9.84,-6.63 -11.84,-2.82z"/>
     <path class="fil6" d="M190.38 36.58c1.57,2.02 5.5,-2.22 5.42,-4.22 -2.5,0.21 -6.69,2.59 -5.42,4.22z"/>
     <path class="fil5" d="M168.22 31.92c1.8,1.37 4.17,-3.15 3.66,-4.83 -2.08,0.75 -5.11,3.73 -3.66,4.83z"/>
     <path class="fil5" d="M191.95 38.28c2.25,2.05 5.79,-4.45 3.83,-7.21 -1.88,2.6 -5.96,5.26 -3.83,7.21z"/>
     <path class="fil5" d="M181.83 35.61c2.72,1.04 4.02,-5.4 2.77,-7.3 -2.31,1.68 -4.96,6.46 -2.77,7.3z"/>
     <path class="fil7" d="M147.48 28.66c49.1,-9.18 93.74,23.26 136.06,77.61 1.26,1.44 3.96,-0.69 3.05,-2.19 -56.93,-68.87 -97.15,-83.82 -139.11,-75.42z"/>
     <path class="fil5" d="M177.56 33.47c1.6,2.43 6.42,-2.03 6.51,-4.31 -2.85,0.02 -7.8,2.35 -6.51,4.31z"/>
     <path class="fil5" d="M179.57 22.01c-1.85,1.44 2.09,5.24 4.78,6.17 0.64,-2.18 -2.48,-7.95 -4.78,-6.17z"/>
     <path class="fil5" d="M231.34 66.42c0.85,4.46 10.89,-0.12 11.02,-5.17 -4.58,1.42 -11.82,0.94 -11.02,5.17z"/>
     <path class="fil5" d="M214.32 52.07c1.13,4.4 10.87,-0.82 10.67,-5.87 -4.47,1.71 -11.74,1.69 -10.67,5.87z"/>
     <path class="fil5" d="M201.81 41.36c0.57,2.99 7.3,-0.08 7.39,-3.46 -3.07,0.95 -7.92,0.63 -7.39,3.46z"/>
     <path class="fil5" d="M208.88 29.57c-2.74,0.92 -0.08,5 0.58,8.14 2.91,-1.72 2.3,-9.1 -0.58,-8.14z"/>
     <path class="fil5" d="M244 60.03c2.76,-2.82 2.66,-14.22 -2.32,-13.35 -4.01,0.7 -1.06,9.73 2.32,13.35z"/>
     <path class="fil6" d="M213.46 46.77c0.1,4.69 10.49,2.74 12.57,-0.27 -3.9,-2.43 -12.64,-3.5 -12.57,0.27z"/>
     <path class="fil6" d="M205.27 29.18c-2.61,1.29 1.23,6.88 4.27,8.68 1.32,-2.49 -1.03,-10.28 -4.27,-8.68z"/>
     <path class="fil6" d="M192.38 24.24c-2.36,1.16 1.11,6.21 3.86,7.84 1.2,-2.25 -0.93,-9.29 -3.86,-7.84z"/>
     <path class="fil6" d="M176.73 24.4c-1.23,2.32 4.55,4.38 7.73,4.08 -0.35,-2.52 -6.21,-6.97 -7.73,-4.08z"/>
     <path class="fil6" d="M165.51 22.92c-1.3,1.93 3.6,4.3 6.44,4.34 -0.07,-2.26 -4.82,-6.75 -6.44,-4.34z"/>
     <path class="fil6" d="M156.9 23.58c-1,2.1 4.19,3.72 7.01,3.34 -0.41,-2.23 -5.76,-5.96 -7.01,-3.34z"/>
     <path class="fil6" d="M147.64 25.48c-0.59,1.71 3.57,2.51 5.71,1.97 -0.51,-1.68 -4.98,-4.1 -5.71,-1.97z"/>
     <path class="fil6" d="M165.25 29.89c0.73,1.9 4.88,-0.41 6.34,-2.43 -1.65,-1.08 -7.24,0.06 -6.34,2.43z"/>
     <path class="fil6" d="M157.67 30.51c1,1.77 4.77,-1.13 5.91,-3.34 -1.79,-0.83 -7.15,1.13 -5.91,3.34z"/>
     <path class="fil8" d="M175.74 30.06c0.28,2.61 6.22,1.09 8.69,-0.93 -1.7,-1.89 -9.04,-2.31 -8.69,0.93z"/>
     <path class="fil6" d="M199.73 38.11c0.04,2.91 6.74,1.85 9.68,-0.13 -1.68,-2.26 -9.72,-3.48 -9.68,0.13z"/>
     <path class="fil6" d="M223.01 35.5c-3.38,0.82 -0.37,8.36 2.71,11.27 2.2,-2.56 1.49,-12.28 -2.71,-11.27z"/>
     <path class="fil6" d="M237.52 48.08c-3.62,1.86 1.89,9.6 6.19,12.06 1.79,-3.52 -1.69,-14.37 -6.19,-12.06z"/>
     <path class="fil9" d="M201.46 32.47c-1.43,2.26 4.27,4.82 7.52,4.78 -0.15,-2.59 -5.74,-7.59 -7.52,-4.78z"/>
     <path class="fil8" d="M218.17 38.43c-2.63,2.33 3.63,7.63 7.75,8.76 0.75,-3.32 -4.49,-11.65 -7.75,-8.76z"/>
     <path class="fil10" d="M155.87 27.97c0.33,2.28 5.49,0.77 7.6,-1.08 -1.55,-1.61 -8,-1.76 -7.6,1.08z"/>
     <path class="fil9" d="M147.19 27.59c-0.01,1.79 4.13,1.23 5.97,0.05 -1.01,-1.42 -5.96,-2.27 -5.97,-0.05z"/>
     <path class="fil6" d="M229.97 59.73c-1.47,4.84 10.81,5.5 13.54,0.58 -5.25,-0.96 -12.15,-5.18 -13.54,-0.58z"/>
     <path class="fil10" d="M240.29 52.59c1.08,-2.96 -1.61,-5.14 -2.78,-4.8 -2.06,0.59 -2.94,3.18 -0.81,5.64 -2.59,-2.42 -4.92,-1.1 -5.24,-0.16 -0.42,1.25 0.07,3.9 4.18,3.37 -3.12,1.83 -2.25,4.08 -1.13,4.68 1.17,0.63 3.08,0.54 3.53,-2.35 0.51,2.03 1.92,4.53 4.33,2.63 1.86,-1.46 0.53,-3.56 -0.54,-4.53 1.43,0.2 4.23,-1.02 3.86,-3.3 -0.38,-2.34 -3.77,-2.62 -5.41,-1.18z"/>
    </g>
    <g>
     <path class="fil5" d="M74.06 59.12c2.38,3.87 -8.14,7.24 -11.63,3.59 4.34,-2.03 9.37,-7.27 11.63,-3.59z"/>
     <path class="fil6" d="M113.86 35.51c-1.43,2.13 -5.63,-1.85 -5.69,-3.85 2.51,0.04 6.85,2.14 5.69,3.85z"/>
     <path class="fil5" d="M135.66 29.39c-1.71,1.48 -4.37,-2.86 -3.97,-4.58 2.13,0.61 5.35,3.39 3.97,4.58z"/>
     <path class="fil5" d="M112.41 37.31c-2.11,2.2 -6.07,-4.06 -4.29,-6.94 2.05,2.48 6.29,4.85 4.29,6.94z"/>
     <path class="fil5" d="M122.33 33.97c-2.65,1.21 -4.37,-5.12 -3.25,-7.1 2.41,1.52 5.38,6.12 3.25,7.1z"/>
     <path class="fil7" d="M156.15 24.77c-49.6,-5.91 -91.99,29.42 -130.62,86.45 -1.16,1.52 -4,-0.43 -3.19,-1.98 52.25,-72.49 91.39,-90.07 133.8,-84.47z"/>
     <path class="fil5" d="M126.45 31.56c-1.44,2.53 -6.54,-1.6 -6.78,-3.86 2.85,-0.17 7.94,1.83 6.78,3.86z"/>
     <path class="fil5" d="M123.68 20.26c1.94,1.31 -1.74,5.37 -4.36,6.47 -0.79,-2.13 1.95,-8.1 4.36,-6.47z"/>
     <path class="fil5" d="M74.97 68c-0.55,4.51 -10.88,0.6 -11.34,-4.43 4.66,1.12 11.86,0.15 11.34,4.43z"/>
     <path class="fil5" d="M91 52.55c-0.84,4.46 -10.9,-0.1 -11.03,-5.15 4.58,1.41 11.82,0.91 11.03,5.15z"/>
     <path class="fil5" d="M102.78 41.04c-0.37,3.02 -7.29,0.4 -7.6,-2.97 3.12,0.75 7.95,0.1 7.6,2.97z"/>
     <path class="fil5" d="M94.94 29.74c2.79,0.73 0.41,4.98 -0.04,8.16 -3.02,-1.53 -2.9,-8.93 0.04,-8.16z"/>
     <path class="fil5" d="M61.92 62.46c-2.94,-2.63 -3.6,-14.01 1.43,-13.48 4.05,0.43 1.7,9.64 -1.43,13.48z"/>
     <path class="fil6" d="M91.51 47.2c0.22,4.68 -10.29,3.43 -12.56,0.56 3.73,-2.68 12.39,-4.33 12.56,-0.56z"/>
     <path class="fil6" d="M98.52 29.11c2.69,1.11 -0.77,6.95 -3.68,8.95 -1.49,-2.4 0.35,-10.33 3.68,-8.95z"/>
     <path class="fil6" d="M111.05 23.33c2.43,1 -0.7,6.27 -3.33,8.08 -1.34,-2.16 0.31,-9.33 3.33,-8.08z"/>
     <path class="fil6" d="M126.67 22.45c1.38,2.24 -4.25,4.67 -7.44,4.59 0.18,-2.54 5.73,-7.37 7.44,-4.59z"/>
     <path class="fil6" d="M137.78 20.24c1.43,1.84 -3.31,4.53 -6.13,4.76 -0.08,-2.26 4.36,-7.05 6.13,-4.76z"/>
     <path class="fil6" d="M146.41 20.32c1.14,2.03 -3.94,3.99 -6.77,3.8 0.26,-2.25 5.36,-6.33 6.77,-3.8z"/>
     <path class="fil6" d="M155.77 21.61c0.7,1.67 -3.4,2.74 -5.57,2.34 0.4,-1.71 4.7,-4.42 5.57,-2.34z"/>
     <path class="fil6" d="M138.49 27.17c-0.6,1.95 -4.9,-0.09 -6.48,-2 1.58,-1.19 7.23,-0.42 6.48,2z"/>
     <path class="fil6" d="M146.09 27.28c-0.88,1.83 -4.83,-0.82 -6.12,-2.94 1.73,-0.94 7.21,0.65 6.12,2.94z"/>
     <path class="fil8" d="M128.04 28.04c-0.11,2.62 -6.13,1.5 -8.74,-0.35 1.57,-2 8.87,-2.91 8.74,0.35z"/>
     <path class="fil6" d="M104.63 37.66c0.15,2.9 -6.6,2.28 -9.66,0.51 1.52,-2.37 9.47,-4.12 9.66,-0.51z"/>
     <path class="fil6" d="M81.23 36.59c3.43,0.59 0.92,8.32 -1.96,11.42 -2.36,-2.41 -2.3,-12.16 1.96,-11.42z"/>
     <path class="fil6" d="M67.59 50.11c3.73,1.62 -1.25,9.71 -5.38,12.44 -2.02,-3.39 0.74,-14.45 5.38,-12.44z"/>
     <path class="fil9" d="M102.53 32.14c1.58,2.16 -3.94,5.09 -7.19,5.27 -0.02,-2.6 5.22,-7.95 7.19,-5.27z"/>
     <path class="fil8" d="M86.25 39.2c2.78,2.15 -3.12,7.85 -7.15,9.25 -0.97,-3.27 3.7,-11.93 7.15,-9.25z"/>
     <path class="fil10" d="M147.73 24.63c-0.17,2.3 -5.42,1.13 -7.65,-0.57 1.44,-1.71 7.87,-2.28 7.65,0.57z"/>
     <path class="fil9" d="M156.37 23.68c0.13,1.79 -4.04,1.5 -5.95,0.44 0.91,-1.48 5.79,-2.66 5.95,-0.44z"/>
     <path class="fil6" d="M75.9 61.23c1.78,4.73 -10.43,6.2 -13.47,1.48 5.18,-1.3 11.78,-5.97 13.47,-1.48z"/>
     <path class="fil10" d="M65.12 54.79c-1.27,-2.88 1.26,-5.23 2.46,-4.98 2.09,0.45 3.14,2.98 1.19,5.57 2.43,-2.59 4.84,-1.42 5.22,-0.5 0.51,1.22 0.19,3.9 -3.95,3.64 3.24,1.62 2.51,3.92 1.43,4.59 -1.13,0.7 -3.04,0.75 -3.68,-2.11 -0.37,2.06 -1.61,4.64 -4.14,2.91 -1.95,-1.33 -0.76,-3.52 0.24,-4.56 -1.41,0.29 -4.29,-0.73 -4.07,-3.04 0.23,-2.36 3.59,-2.86 5.31,-1.54z"/>
    </g>
    <g>
     <path class="fil5" d="M217.06 267.1c-2.73,-3.63 -9.72,4.92 -7.6,9.5 3.48,-3.29 10.19,-6.06 7.6,-9.5z"/>
     <path class="fil6" d="M253.61 238.71c-2.5,0.56 -0.34,5.92 1.5,6.71 0.88,-2.35 0.52,-7.16 -1.5,-6.71z"/>
     <path class="fil5" d="M267.28 220.67c-2,1.04 1.06,5.12 2.81,5.37 0.21,-2.2 -1.19,-6.21 -2.81,-5.37z"/>
     <path class="fil5" d="M251.39 239.41c-2.81,1.16 1.55,7.13 4.88,6.54 -1.55,-2.82 -2.21,-7.64 -4.88,-6.54z"/>
     <path class="fil5" d="M258.14 231.4c-2.1,2.02 3.16,5.95 5.41,5.62 -0.53,-2.8 -3.72,-7.24 -5.41,-5.62z"/>
     <path class="fil7" d="M279.09 203.3c-12.67,48.32 -61.07,74.82 -128.28,89.88 -1.84,0.52 -1.07,3.88 0.68,3.69 86.59,-22.07 117.28,-52.05 127.6,-93.57z"/>
     <path class="fil5" d="M261.89 228.45c-2.88,0.41 -0.9,6.67 1.11,7.72 1.2,-2.59 1.21,-8.06 -1.11,-7.72z"/>
     <path class="fil5" d="M271.4 235.16c-0.51,-2.29 -5.63,-0.35 -7.62,1.69 1.7,1.51 8.25,1.15 7.62,-1.69z"/>
     <path class="fil5" d="M209.13 263c-4.4,-1.14 -4.54,9.9 -0.03,12.17 0.67,-4.74 4.2,-11.09 0.03,-12.17z"/>
     <path class="fil5" d="M229.38 253.74c-4.46,-0.86 -3.89,10.18 0.75,12.15 0.36,-4.78 3.48,-11.34 -0.75,-12.15z"/>
     <path class="fil5" d="M244.4 247c-2.95,-0.76 -3.05,6.64 -0.03,8.16 0.45,-3.18 2.82,-7.43 0.03,-8.16z"/>
     <path class="fil5" d="M252.05 258.44c0.34,-2.87 -4.48,-2.21 -7.61,-2.95 0.32,3.37 7.24,5.97 7.61,2.95z"/>
     <path class="fil5" d="M209.51 277.18c1.37,3.7 11.72,8.48 13.06,3.61 1.08,-3.92 -8.35,-5.11 -13.06,-3.61z"/>
     <path class="fil6" d="M234.54 255.23c-4.28,-1.92 -6.96,8.31 -5.12,11.48 3.86,-2.49 8.57,-9.94 5.12,-11.48z"/>
     <path class="fil6" d="M253.94 255.34c-0.05,-2.9 -6.74,-1.83 -9.68,0.15 1.69,2.26 9.74,3.46 9.68,-0.15z"/>
     <path class="fil6" d="M263.91 245.79c-0.04,-2.63 -6.09,-1.65 -8.74,0.14 1.52,2.04 8.79,3.13 8.74,-0.14z"/>
     <path class="fil6" d="M270.45 231.58c-1.58,-2.1 -5.9,2.24 -6.99,5.25 2.43,0.76 8.95,-2.64 6.99,-5.25z"/>
     <path class="fil6" d="M276.57 222.06c-1.19,-2 -5.42,1.42 -6.67,3.96 2.07,0.9 8.15,-1.47 6.67,-3.96z"/>
     <path class="fil6" d="M279.66 213.99c-1.47,-1.8 -5.15,2.21 -6.01,4.91 2.19,0.58 7.85,-2.67 6.01,-4.91z"/>
     <path class="fil6" d="M281.89 204.81c-1.3,-1.26 -3.79,2.16 -4.22,4.32 1.74,0.26 5.83,-2.75 4.22,-4.32z"/>
     <path class="fil6" d="M270.39 218.85c-2.03,-0.15 -1.71,4.59 -0.52,6.76 1.69,-1.03 3.04,-6.57 0.52,-6.76z"/>
     <path class="fil6" d="M273.07 211.74c-2.03,0.15 -1.01,4.79 0.49,6.76 1.51,-1.27 2.03,-6.95 -0.49,-6.76z"/>
     <path class="fil8" d="M265.75 228.26c-2.48,-0.86 -3.64,5.16 -2.87,8.26 2.44,-0.73 5.95,-7.19 2.87,-8.26z"/>
     <path class="fil6" d="M248.23 246.52c-2.64,-1.21 -4.55,5.3 -4.02,8.8 2.76,-0.55 7.3,-7.3 4.02,-8.8z"/>
     <path class="fil6" d="M240.65 268.68c0.71,-3.41 -7.4,-3.9 -11.35,-2.36 1.37,3.08 10.47,6.59 11.35,2.36z"/>
     <path class="fil6" d="M223.07 276.43c-0.14,-4.07 -9.49,-2.39 -13.54,0.45 2.41,3.12 13.71,4.61 13.54,-0.45z"/>
     <path class="fil9" d="M252.59 250.49c-1.43,-2.26 -6.18,1.8 -7.53,4.76 2.41,0.97 9.31,-1.95 7.53,-4.76z"/>
     <path class="fil8" d="M240.06 263.06c-0.98,-3.37 -8.45,0.03 -11.23,3.27 2.69,2.1 12.45,0.92 11.23,-3.27z"/>
     <path class="fil10" d="M276.13 211.19c-2.2,-0.68 -3.04,4.63 -2.27,7.33 2.12,-0.71 5.01,-6.48 2.27,-7.33z"/>
     <path class="fil9" d="M280.18 203.5c-1.62,-0.78 -2.87,3.21 -2.59,5.38 1.71,-0.31 4.6,-4.41 2.59,-5.38z"/>
     <path class="fil6" d="M215.77 264.62c-3.75,-3.39 -9.59,7.43 -6.31,11.99 3.11,-4.33 9.87,-8.77 6.31,-11.99z"/>
     <path class="fil10" d="M217.81 277c2.21,2.24 5.33,0.74 5.53,-0.46 0.35,-2.11 -1.62,-4.02 -4.75,-3.14 3.3,-1.31 3.1,-3.98 2.38,-4.67 -0.96,-0.92 -3.56,-1.61 -4.84,2.34 -0.32,-3.6 -2.72,-3.78 -3.75,-3.02 -1.07,0.79 -1.8,2.55 0.62,4.2 -2.06,-0.41 -4.91,-0.2 -4.23,2.79 0.53,2.31 2.99,2 4.32,1.45 -0.79,1.21 -0.89,4.27 1.34,4.9 2.27,0.65 3.98,-2.29 3.38,-4.38z"/>
    </g>
    <g>
     <path class="fil5" d="M28.45 148.72c4.42,1.07 -0.66,10.88 -5.7,10.76 1.64,-4.5 1.51,-11.76 5.7,-10.76z"/>
     <path class="fil6" d="M39.99 103.9c0.48,2.52 -5.3,2.66 -6.75,1.29 1.81,-1.74 6.36,-3.32 6.75,-1.29z"/>
     <path class="fil5" d="M51.12 84.18c-0.16,2.25 -5.12,1.06 -6.05,-0.44 1.94,-1.07 6.18,-1.37 6.05,0.44z"/>
     <path class="fil5" d="M40.23 106.21c0.05,3.04 -7.16,1.41 -7.94,-1.89 3.2,0.31 7.88,-1 7.94,1.89z"/>
     <path class="fil5" d="M44.9 96.84c-1.02,2.73 -6.71,-0.54 -7.31,-2.73 2.78,-0.62 8.13,0.54 7.31,2.73z"/>
     <path class="fil7" d="M62.37 66.45c-39.31,30.82 -44.41,85.76 -31.53,153.43 0.25,1.89 -3.14,2.52 -3.66,0.84 -14.14,-88.23 1.18,-128.31 35.19,-154.27z"/>
     <path class="fil5" d="M46.12 92.22c0.77,2.81 -5.76,3.48 -7.53,2.05 1.9,-2.13 6.92,-4.31 7.53,-2.05z"/>
     <path class="fil5" d="M36.18 86.17c2.3,-0.44 2.55,5.03 1.48,7.67 -2.06,-0.96 -4.34,-7.12 -1.48,-7.67z"/>
     <path class="fil5" d="M35.37 154.37c2.79,3.58 -7.29,8.1 -11.16,4.87 4.09,-2.5 8.51,-8.26 11.16,-4.87z"/>
     <path class="fil5" d="M35.82 132.11c2.56,3.76 -7.79,7.62 -11.45,4.14 4.24,-2.23 9.02,-7.7 11.45,-4.14z"/>
     <path class="fil5" d="M36.04 115.64c1.87,2.4 -4.88,5.43 -7.48,3.26 2.74,-1.67 5.7,-5.54 7.48,-3.26z"/>
     <path class="fil5" d="M22.51 113.17c2.5,-1.45 3.81,3.24 5.73,5.81 -3.22,1.05 -8.36,-4.28 -5.73,-5.81z"/>
     <path class="fil5" d="M22.2 159.66c-3.94,0.21 -12.44,-7.39 -8.5,-10.56 3.17,-2.55 8.01,5.63 8.5,10.56z"/>
     <path class="fil6" d="M32.4 127.97c3.46,3.17 -4.86,9.69 -8.5,9.26 0.75,-4.53 5.72,-11.81 8.5,-9.26z"/>
     <path class="fil6" d="M24.6 110.2c2.69,-1.11 4.36,5.47 3.7,8.94 -2.74,-0.65 -7.04,-7.56 -3.7,-8.94z"/>
     <path class="fil6" d="M29.4 97.26c2.43,-1 3.94,4.93 3.35,8.07 -2.48,-0.58 -6.36,-6.83 -3.35,-8.07z"/>
     <path class="fil6" d="M39.85 85.61c2.55,0.62 0.29,6.31 -2.04,8.5 -1.66,-1.93 -1.14,-9.26 2.04,-8.5z"/>
     <path class="fil6" d="M46.16 76.21c2.31,0.3 0.85,5.54 -0.99,7.7 -1.65,-1.54 -1.89,-8.07 0.99,-7.7z"/>
     <path class="fil6" d="M52.33 70.18c2.24,0.64 0.02,5.61 -2.12,7.47 -1.4,-1.77 -0.67,-8.26 2.12,-7.47z"/>
     <path class="fil6" d="M59.87 64.48c1.68,0.69 -0.48,4.34 -2.3,5.59 -0.93,-1.49 0.21,-6.44 2.3,-5.59z"/>
     <path class="fil6" d="M51.55 80.61c0.95,1.81 -3.53,3.39 -6,3.16 0.28,-1.96 4.83,-5.4 6,-3.16z"/>
     <path class="fil6" d="M57.02 75.33c0.67,1.92 -4,2.83 -6.41,2.23 0.56,-1.89 5.57,-4.63 6.41,-2.23z"/>
     <path class="fil8" d="M44.76 88.61c1.77,1.93 -3.29,5.39 -6.44,5.91 -0.3,-2.53 4.23,-8.32 6.44,-5.91z"/>
     <path class="fil6" d="M34.97 111.94c2.16,1.95 -3.06,6.28 -6.48,7.19 -0.59,-2.76 3.8,-9.6 6.48,-7.19z"/>
     <path class="fil6" d="M17.63 127.7c2.85,-2 6.52,5.24 6.67,9.48 -3.38,-0.04 -10.21,-6.99 -6.67,-9.48z"/>
     <path class="fil6" d="M17.51 146.9c3.79,-1.49 5.97,7.76 4.97,12.61 -3.82,-0.97 -9.67,-10.76 -4.97,-12.61z"/>
     <path class="fil9" d="M29.59 109.51c2.64,0.42 0.8,6.38 -1.38,8.8 -1.85,-1.83 -1.91,-9.32 1.38,-8.8z"/>
     <path class="fil8" d="M23.03 126c3.48,-0.44 3.33,7.76 1.46,11.61 -2.99,-1.63 -5.79,-11.06 -1.46,-11.61z"/>
     <path class="fil10" d="M56.31 72.3c1.5,1.75 -3.05,4.63 -5.82,4.99 -0.19,-2.23 3.96,-7.17 5.82,-4.99z"/>
     <path class="fil9" d="M61.76 65.53c1.35,1.17 -1.81,3.91 -3.91,4.52 -0.4,-1.69 2.22,-5.98 3.91,-4.52z"/>
     <path class="fil6" d="M31.25 148.92c4.6,2.09 -3.01,11.75 -8.5,10.55 2.75,-4.57 4.13,-12.54 8.5,-10.55z"/>
     <path class="fil10" d="M19.07 151.96c-2.94,-1.14 -2.8,-4.6 -1.77,-5.26 1.8,-1.16 4.33,-0.11 4.77,3.11 -0.11,-3.55 2.42,-4.43 3.34,-4.04 1.22,0.51 2.89,2.63 -0.23,5.37 3.43,-1.14 4.55,1 4.25,2.24 -0.3,1.29 -1.63,2.67 -4.1,1.11 1.19,1.73 2.13,4.43 -0.88,4.99 -2.32,0.43 -3.02,-1.95 -3.05,-3.4 -0.8,1.2 -3.56,2.51 -5.03,0.72 -1.5,-1.83 0.53,-4.56 2.68,-4.84z"/>
    </g>
    <g>
     <path class="fil5" d="M56.92 254.11c3.71,-2.62 7.74,7.67 4.32,11.38 -2.3,-4.2 -7.84,-8.9 -4.32,-11.38z"/>
     <path class="fil6" d="M30.86 215.86c2.21,1.3 -1.49,5.74 -3.48,5.92 -0.12,-2.51 1.7,-6.97 3.48,-5.92z"/>
     <path class="fil5" d="M23.39 194.48c1.59,1.61 -2.58,4.54 -4.32,4.25 0.47,-2.16 3.04,-5.54 4.32,-4.25z"/>
     <path class="fil5" d="M32.76 217.2c2.32,1.97 -3.67,6.32 -6.65,4.72 2.34,-2.2 4.45,-6.59 6.65,-4.72z"/>
     <path class="fil5" d="M28.8 207.51c1.38,2.56 -4.84,4.68 -6.88,3.69 1.37,-2.5 5.77,-5.75 6.88,-3.69z"/>
     <path class="fil7" d="M17.49 174.33c-2.79,49.87 35.12,89.97 94.47,124.94 1.59,1.06 -0.18,4.02 -1.78,3.31 -75.62,-47.6 -95.62,-85.56 -92.68,-128.25z"/>
     <path class="fil5" d="M26.13 203.55c2.62,1.28 -1.19,6.63 -3.43,7.01 -0.35,-2.83 1.32,-8.04 3.43,-7.01z"/>
     <path class="fil5" d="M15.03 207.01c1.19,-2.02 5.46,1.4 6.73,3.95 -2.08,0.92 -8.21,-1.44 -6.73,-3.95z"/>
     <path class="fil5" d="M65.73 252.64c4.53,0.27 1.28,10.82 -3.71,11.59 0.82,-4.72 -0.59,-11.85 3.71,-11.59z"/>
     <path class="fil5" d="M49.3 237.61c4.51,0.56 0.58,10.88 -4.44,11.33 1.12,-4.66 0.17,-11.86 4.44,-11.33z"/>
     <path class="fil5" d="M37.08 226.57c3.04,0.18 0.86,7.25 -2.48,7.77 0.55,-3.16 -0.4,-7.94 2.48,-7.77z"/>
     <path class="fil5" d="M26.29 235.11c0.56,-2.83 4.94,-0.73 8.14,-0.47 -1.34,3.11 -8.73,3.45 -8.14,0.47z"/>
     <path class="fil5" d="M61.01 266.01c-2.44,3.1 -13.76,4.47 -13.54,-0.58 0.18,-4.06 9.51,-2.3 13.54,0.58z"/>
     <path class="fil6" d="M43.94 237.44c4.66,-0.51 4.07,10.05 1.35,12.5 -2.91,-3.56 -5.1,-12.09 -1.35,-12.5z"/>
     <path class="fil6" d="M25.44 231.58c0.94,-2.75 6.98,0.34 9.16,3.12 -2.3,1.63 -10.33,0.3 -9.16,-3.12z"/>
     <path class="fil6" d="M18.88 219.43c0.85,-2.48 6.31,0.3 8.28,2.82 -2.07,1.48 -9.33,0.27 -8.28,-2.82z"/>
     <path class="fil6" d="M17.03 203.89c2.15,-1.51 4.93,3.95 5.04,7.14 -2.55,-0.03 -7.71,-5.26 -5.04,-7.14z"/>
     <path class="fil6" d="M14.12 192.95c1.75,-1.54 4.73,3.02 5.13,5.82 -2.25,0.22 -7.31,-3.91 -5.13,-5.82z"/>
     <path class="fil6" d="M13.67 184.33c1.96,-1.26 4.23,3.68 4.22,6.52 -2.26,-0.12 -6.65,-4.95 -4.22,-6.52z"/>
     <path class="fil6" d="M14.36 174.9c1.62,-0.8 2.94,3.22 2.68,5.41 -1.74,-0.29 -4.71,-4.41 -2.68,-5.41z"/>
     <path class="fil6" d="M20.99 191.8c1.98,0.48 0.22,4.9 -1.59,6.6 -1.29,-1.5 -0.87,-7.19 1.59,-6.6z"/>
     <path class="fil6" d="M20.63 184.21c1.89,0.76 -0.51,4.87 -2.55,6.29 -1.05,-1.67 0.2,-7.24 2.55,-6.29z"/>
     <path class="fil8" d="M22.52 202.18c2.62,-0.06 1.88,6.03 0.19,8.74 -2.1,-1.44 -3.46,-8.67 -0.19,-8.74z"/>
     <path class="fil6" d="M33.59 224.94c2.89,-0.33 2.7,6.45 1.12,9.61 -2.46,-1.37 -4.7,-9.2 -1.12,-9.61z"/>
     <path class="fil6" d="M33.99 248.36c0.38,-3.46 8.24,-1.44 11.52,1.24 -2.25,2.51 -11.99,3.06 -11.52,-1.24z"/>
     <path class="fil6" d="M48.33 261.13c1.38,-3.83 9.77,0.64 12.75,4.59 -3.25,2.23 -14.47,0.17 -12.75,-4.59z"/>
     <path class="fil9" d="M28.21 227.38c2.06,-1.71 5.33,3.61 5.71,6.84 -2.59,0.18 -8.26,-4.71 -5.71,-6.84z"/>
     <path class="fil8" d="M36.27 243.18c1.97,-2.91 8.03,2.62 9.68,6.56 -3.2,1.17 -12.13,-2.95 -9.68,-6.56z"/>
     <path class="fil10" d="M17.89 182.74c2.3,0.03 1.47,5.34 -0.09,7.67 -1.8,-1.33 -2.77,-7.71 0.09,-7.67z"/>
     <path class="fil9" d="M16.4 174.18c1.78,-0.24 1.75,3.94 0.82,5.91 -1.54,-0.81 -3.02,-5.61 -0.82,-5.91z"/>
     <path class="fil6" d="M58.92 252.14c4.61,-2.08 6.84,10.01 2.32,13.35 -1.63,-5.08 -6.7,-11.38 -2.32,-13.35z"/>
     <path class="fil10" d="M53.16 263.29c-2.79,1.45 -5.3,-0.93 -5.12,-2.14 0.32,-2.12 2.78,-3.32 5.49,-1.53 -2.73,-2.26 -1.73,-4.74 -0.83,-5.17 1.19,-0.58 3.88,-0.43 3.88,3.72 1.41,-3.33 3.75,-2.76 4.49,-1.72 0.77,1.08 0.93,2.98 -1.88,3.81 2.08,0.25 4.73,1.32 3.17,3.95 -1.21,2.03 -3.46,0.98 -4.56,0.05 0.38,1.39 -0.46,4.33 -2.78,4.25 -2.36,-0.08 -3.08,-3.4 -1.87,-5.21z"/>
    </g>
    <g>
     <path class="fil5" d="M166.49 286.07c-0.48,-4.52 10.46,-3.04 12.04,1.76 -4.79,-0.04 -11.59,2.52 -12.04,-1.76z"/>
     <path class="fil6" d="M120.4 290.25c2.21,-1.3 4.29,4.09 3.48,5.92 -2.25,-1.12 -5.26,-4.88 -3.48,-5.92z"/>
     <path class="fil5" d="M98.09 286.39c2.18,-0.6 2.72,4.46 1.61,5.84 -1.66,-1.47 -3.37,-5.35 -1.61,-5.84z"/>
     <path class="fil5" d="M122.49 289.24c2.85,-1.07 3.73,6.28 0.89,8.11 -0.78,-3.12 -3.59,-7.09 -0.89,-8.11z"/>
     <path class="fil5" d="M112.09 287.99c2.91,0.04 1.74,6.5 -0.12,7.8 -1.52,-2.41 -2.22,-7.84 0.12,-7.8z"/>
     <path class="fil7" d="M77.61 281.74c42.23,26.68 95.7,13.03 155.11,-21.83 1.7,-0.87 3.43,2.11 2.02,3.17 -78.35,42.95 -121.25,41.97 -157.13,18.66z"/>
     <path class="fil5" d="M107.34 288.4c2.39,-1.67 5.21,4.26 4.46,6.41 -2.64,-1.07 -6.38,-5.07 -4.46,-6.41z"/>
     <path class="fil5" d="M104.97 299.79c-1.19,-2.02 3.88,-4.09 6.73,-3.96 -0.21,2.26 -5.25,6.48 -6.73,3.96z"/>
     <path class="fil5" d="M169.49 277.66c2.43,-3.83 10.08,4.14 8.33,8.88 -3.73,-3.01 -10.64,-5.24 -8.33,-8.88z"/>
     <path class="fil5" d="M148.37 284.7c2.68,-3.67 9.79,4.78 7.74,9.39 -3.53,-3.24 -10.28,-5.91 -7.74,-9.39z"/>
     <path class="fil5" d="M132.78 290.03c1.63,-2.57 6.75,2.77 5.58,5.95 -2.5,-2.02 -7.13,-3.51 -5.58,-5.95z"/>
     <path class="fil5" d="M134.99 303.6c-2.21,-1.86 1.77,-4.67 3.55,-7.35 2.07,2.68 -1.22,9.31 -3.55,7.35z"/>
     <path class="fil5" d="M178.88 288.28c1.52,3.64 -2.78,14.2 -7.09,11.55 -3.47,-2.13 2.61,-9.43 7.09,-11.55z"/>
     <path class="fil6" d="M145.61 289.31c1.82,-4.32 10.76,1.32 11.58,4.89 -4.52,0.81 -13.04,-1.42 -11.58,-4.89z"/>
     <path class="fil6" d="M131.5 302.63c-1.95,-2.16 3.68,-5.94 7.18,-6.49 0.31,2.8 -4.76,9.17 -7.18,6.49z"/>
     <path class="fil6" d="M117.69 302.46c-1.76,-1.95 3.33,-5.37 6.48,-5.86 0.28,2.53 -4.3,8.28 -6.48,5.86z"/>
     <path class="fil6" d="M103.21 296.52c-0.28,-2.61 5.84,-2.39 8.69,-0.94 -1.26,2.21 -8.35,4.18 -8.69,0.94z"/>
     <path class="fil6" d="M92.24 293.74c-0.49,-2.27 4.93,-2.66 7.59,-1.65 -0.9,2.07 -6.97,4.49 -7.59,1.65z"/>
     <path class="fil6" d="M84.48 289.95c-0.15,-2.32 5.27,-1.9 7.75,-0.51 -1.2,1.92 -7.56,3.4 -7.75,0.51z"/>
     <path class="fil6" d="M76.59 284.76c0.09,-1.81 4.25,-1.01 6.03,0.29 -1.09,1.38 -6.14,1.97 -6.03,-0.29z"/>
     <path class="fil6" d="M94.57 287.18c1.38,-1.5 4.39,2.19 4.99,4.6 -1.94,0.39 -6.71,-2.73 -4.99,-4.6z"/>
     <path class="fil6" d="M87.76 283.8c1.59,-1.27 4.01,2.82 4.26,5.29 -1.97,0.1 -6.23,-3.7 -4.26,-5.29z"/>
     <path class="fil8" d="M104.39 290.89c1.22,-2.32 6.18,1.28 7.73,4.08 -2.28,1.13 -9.26,-1.19 -7.73,-4.08z"/>
     <path class="fil6" d="M129.66 292.28c1.11,-2.68 6.94,0.77 8.94,3.69 -2.4,1.48 -10.32,-0.36 -8.94,-3.69z"/>
     <path class="fil6" d="M150.32 303.31c-2.84,-2.01 2.75,-7.9 6.69,-9.47 1.1,3.19 -3.16,11.96 -6.69,9.47z"/>
     <path class="fil6" d="M168.45 296.98c-2.67,-3.07 5.3,-8.23 10.21,-8.91 0.37,3.93 -6.88,12.72 -10.21,8.91z"/>
     <path class="fil9" d="M129.17 298.16c-0.5,-2.63 5.74,-2.9 8.75,-1.66 -1.1,2.35 -8.14,4.93 -8.75,1.66z"/>
     <path class="fil8" d="M146.91 298.8c-1.58,-3.13 6.19,-5.74 10.44,-5.27 -0.53,3.36 -8.48,9.17 -10.44,5.27z"/>
     <path class="fil10" d="M85.15 285.49c1.14,-2 5.38,1.31 6.66,3.81 -2.03,0.92 -8.08,-1.32 -6.66,-3.81z"/>
     <path class="fil9" d="M76.94 282.63c0.65,-1.67 4.3,0.39 5.57,2.16 -1.46,0.94 -6.38,-0.09 -5.57,-2.16z"/>
     <path class="fil6" d="M165.74 283.37c0.42,-5.04 12.08,-1.11 12.79,4.46 -5.23,-1.05 -13.2,0.32 -12.79,-4.46z"/>
     <path class="fil10" d="M172.69 293.81c-0.09,3.15 -3.39,4.18 -4.36,3.43 -1.7,-1.31 -1.55,-4.04 1.33,-5.54 -3.3,1.29 -4.98,-0.79 -4.93,-1.79 0.07,-1.32 1.51,-3.6 5.13,-1.59 -2.23,-2.85 -0.59,-4.62 0.68,-4.76 1.32,-0.15 3.06,0.64 2.41,3.49 1.23,-1.7 3.45,-3.49 4.99,-0.85 1.19,2.04 -0.82,3.51 -2.17,4.01 1.4,0.34 3.56,2.51 2.37,4.49 -1.22,2.03 -4.47,1.04 -5.46,-0.9z"/>
    </g>
   </g>
  </g>
 </g>
</svg>
