<?xml version="1.0" encoding="UTF-8"?>
<!DOCTYPE svg PUBLIC "-//W3C//DTD SVG 1.1//EN" "http://www.w3.org/Graphics/SVG/1.1/DTD/svg11.dtd">
<!-- Creator: CorelDRAW -->
<svg xmlns="http://www.w3.org/2000/svg" xml:space="preserve" width="1.36661in" height="1.17048in" version="1.1" style="shape-rendering:geometricPrecision; text-rendering:geometricPrecision; image-rendering:optimizeQuality; fill-rule:evenodd; clip-rule:evenodd"
viewBox="0 0 96.88 82.97"
 xmlns:xlink="http://www.w3.org/1999/xlink"
 xmlns:xodm="http://www.corel.com/coreldraw/odm/2003">
 <defs>
  <style type="text/css">
   <![CDATA[
    .str0 {stroke:#EB008A;stroke-width:0.36;stroke-linejoin:round;stroke-miterlimit:2.61313}
    .fil0 {fill:#EB008A;fill-rule:nonzero}
    .fil1 {fill:white;fill-rule:nonzero}
   ]]>
  </style>
 </defs>
 <g id="__x0023_Layer_x0020_1">
  <metadata id="CorelCorpID_0Corel-Layer"/>
  <g id="_2668209125456">
   <path class="fil0" d="M38.58 47.87c0.7,-2.64 3.23,-0.33 1.36,0.8 2.26,-0.16 1.84,2.83 -0.28,1.75 1.56,1.53 -2.02,2.43 -1.61,0.08 -0.95,0.85 -1.97,0.69 -2.21,0.07 -0.23,-0.59 0.38,-1.29 1.44,-1.3 -1.21,-0.66 -1.13,-1.58 -0.84,-1.93 0.45,-0.54 1.66,-0.4 2.15,0.53z"/>
   <path class="fil0" d="M15.73 35c0.7,-2.64 3.23,-0.33 1.36,0.8 2.27,-0.16 1.84,2.83 -0.28,1.75 1.56,1.53 -2.02,2.43 -1.61,0.08 -0.95,0.85 -1.97,0.69 -2.21,0.07 -0.23,-0.59 0.38,-1.29 1.44,-1.3 -1.21,-0.65 -1.13,-1.58 -0.84,-1.93 0.45,-0.54 1.66,-0.4 2.15,0.53z"/>
   <path class="fil0" d="M30.26 27.87c0.43,-1.61 1.98,-0.2 0.83,0.49 1.38,-0.1 1.13,1.73 -0.17,1.07 0.95,0.94 -1.23,1.48 -0.99,0.05 -0.58,0.52 -1.2,0.42 -1.35,0.04 -0.14,-0.36 0.23,-0.79 0.88,-0.79 -0.74,-0.4 -0.69,-0.96 -0.51,-1.18 0.27,-0.33 1.01,-0.24 1.32,0.33z"/>
   <path class="fil0" d="M78.04 1.93c0.43,-1.61 1.98,-0.2 0.83,0.49 1.38,-0.1 1.13,1.73 -0.17,1.07 0.95,0.94 -1.23,1.48 -0.99,0.05 -0.58,0.52 -1.2,0.42 -1.35,0.04 -0.14,-0.36 0.23,-0.79 0.88,-0.79 -0.74,-0.4 -0.69,-0.96 -0.51,-1.18 0.27,-0.33 1.01,-0.24 1.31,0.32z"/>
   <path class="fil1" d="M38.59 48.18c0.54,-2.05 2.52,-0.26 1.06,0.62 1.76,-0.12 1.43,2.2 -0.22,1.36 1.22,1.19 -1.57,1.89 -1.26,0.06 -0.74,0.67 -1.53,0.54 -1.72,0.05 -0.18,-0.46 0.3,-1.01 1.12,-1.01 -0.94,-0.51 -0.88,-1.23 -0.66,-1.5 0.35,-0.42 1.29,-0.31 1.67,0.41z"/>
   <path class="fil0" d="M35.69 16.01c-3.64,2.35 1.58,4.67 2.12,1.47 1.22,3.24 5.59,1.08 2.54,-1.31 3.39,1.37 2.46,-4.08 -0.93,-2.29 0.71,-1.77 -0.2,-3.1 -1.33,-3.11 -1.07,-0.01 -1.76,1.21 -1.08,2.68 -1.81,-1.34 -3.18,-0.75 -3.54,-0.16 -0.55,0.9 0.46,2.52 2.22,2.72z"/>
   <path class="fil1" d="M15.75 35.31c0.54,-2.05 2.52,-0.26 1.06,0.62 1.76,-0.12 1.43,2.2 -0.22,1.36 1.22,1.19 -1.57,1.89 -1.26,0.06 -0.74,0.67 -1.53,0.54 -1.72,0.05 -0.18,-0.46 0.3,-1.01 1.12,-1.01 -0.94,-0.51 -0.88,-1.23 -0.65,-1.5 0.35,-0.42 1.29,-0.31 1.67,0.41z"/>
   <path class="fil1" d="M30.27 28.06c0.33,-1.26 1.54,-0.16 0.65,0.38 1.08,-0.08 0.88,1.35 -0.13,0.83 0.74,0.73 -0.96,1.15 -0.77,0.04 -0.45,0.41 -0.94,0.33 -1.05,0.03 -0.11,-0.28 0.18,-0.62 0.68,-0.62 -0.58,-0.31 -0.54,-0.75 -0.4,-0.92 0.21,-0.26 0.79,-0.19 1.02,0.25z"/>
   <path class="fil1" d="M78.05 2.12c0.33,-1.25 1.54,-0.16 0.65,0.38 1.08,-0.08 0.87,1.35 -0.13,0.83 0.74,0.73 -0.96,1.15 -0.77,0.04 -0.45,0.41 -0.94,0.33 -1.05,0.03 -0.11,-0.28 0.18,-0.62 0.68,-0.62 -0.58,-0.31 -0.54,-0.75 -0.4,-0.92 0.21,-0.26 0.79,-0.19 1.02,0.25z"/>
   <path class="fil0" d="M38.66 49.05c0.15,-0.56 0.68,-0.12 0.28,0.13 0.57,-0.09 0.45,0.55 -0.03,0.33 0.38,0.4 -0.41,0.69 -0.38,0.11 -0.49,0.34 -0.63,-0.3 -0.1,-0.3 -0.53,-0.3 0,-0.66 0.23,-0.26z"/>
   <path class="fil0" d="M15.82 36.19c0.15,-0.56 0.68,-0.12 0.28,0.13 0.57,-0.09 0.45,0.55 -0.03,0.33 0.38,0.4 -0.41,0.69 -0.37,0.11 -0.5,0.34 -0.63,-0.31 -0.1,-0.31 -0.53,-0.3 0,-0.65 0.23,-0.26z"/>
   <path class="fil0" d="M30.31 28.6c0.09,-0.35 0.41,-0.07 0.17,0.08 0.35,-0.06 0.28,0.33 -0.02,0.2 0.23,0.24 -0.25,0.42 -0.23,0.07 -0.3,0.21 -0.39,-0.18 -0.06,-0.18 -0.32,-0.18 0,-0.4 0.14,-0.16z"/>
   <path class="fil0" d="M78.09 2.66c0.09,-0.35 0.42,-0.07 0.17,0.08 0.35,-0.05 0.28,0.34 -0.02,0.2 0.23,0.25 -0.25,0.42 -0.23,0.07 -0.3,0.21 -0.39,-0.19 -0.06,-0.19 -0.32,-0.18 0,-0.4 0.14,-0.16z"/>
   <path class="fil0" d="M67.08 22.07c2.47,0.4 1.7,-2.71 0.02,-1.43 1.4,-2.28 -1.29,-2.97 -1.33,-0.47 -0.86,-2.39 -3.43,0.51 -1.12,1.41 -2.23,1.51 0.02,3.28 0.99,1.01 0.2,2.82 2.55,1.21 1.43,-0.52z"/>
   <path class="fil0" d="M54.24 57.65c5.51,4.4 -2.38,8.74 -3.21,2.75 -1.85,6.06 -8.45,2.02 -3.83,-2.44 -5.12,2.57 -3.72,-7.63 1.4,-4.28 -1.07,-3.32 0.3,-5.8 2.01,-5.82 1.62,-0.02 2.66,2.26 1.64,5.01 2.73,-2.51 4.81,-1.41 5.35,-0.3 0.83,1.69 -0.69,4.71 -3.35,5.08z"/>
   <path class="fil0" d="M24.89 32.2c4.27,3.21 4.56,-4.07 0.71,-3.21 3.1,-2.97 -1.27,-7.13 -2.6,-2.39 0.04,-4.66 -5.69,-0.99 -2.17,2.17 -2.32,-0.01 -3.41,1.69 -2.92,3.04 0.46,1.27 2.15,1.52 3.5,0.02 -0.71,2.77 0.57,4.12 1.4,4.27 1.26,0.22 2.63,-1.73 2.07,-3.91z"/>
   <path class="fil0" d="M23.46 8.8c3.83,2.87 4.09,-3.64 0.64,-2.87 2.78,-2.66 -1.14,-6.38 -2.33,-2.14 0.03,-4.17 -5.1,-0.89 -1.94,1.94 -2.07,-0 -3.05,1.52 -2.61,2.72 0.41,1.14 1.92,1.36 3.13,0.02 -0.64,2.48 0.51,3.69 1.25,3.82 1.13,0.2 2.36,-1.55 1.85,-3.5z"/>
   <path class="fil0" d="M39.78 66.82c4.27,3.21 4.56,-4.07 0.71,-3.21 3.1,-2.97 -1.27,-7.13 -2.6,-2.39 0.04,-4.66 -5.69,-0.99 -2.17,2.17 -2.31,-0 -3.41,1.69 -2.92,3.04 0.46,1.27 2.15,1.51 3.5,0.02 -0.71,2.77 0.57,4.12 1.4,4.27 1.26,0.22 2.63,-1.73 2.07,-3.91z"/>
   <path class="fil0" d="M57.54 71.78c4.28,3.21 4.57,-4.06 0.71,-3.21 3.11,-2.97 -1.27,-7.13 -2.6,-2.39 0.04,-4.66 -5.69,-0.99 -2.17,2.17 -2.31,-0.01 -3.41,1.69 -2.92,3.04 0.46,1.27 2.15,1.52 3.5,0.02 -0.71,2.77 0.57,4.12 1.4,4.27 1.26,0.23 2.63,-1.73 2.07,-3.91z"/>
   <path class="fil0" d="M74.66 57.63c4.27,3.21 4.57,-4.06 0.71,-3.21 3.11,-2.97 -1.27,-7.13 -2.6,-2.39 0.04,-4.66 -5.69,-0.99 -2.17,2.17 -2.32,-0.01 -3.41,1.69 -2.92,3.04 0.46,1.28 2.15,1.52 3.5,0.02 -0.71,2.77 0.57,4.12 1.4,4.27 1.26,0.22 2.63,-1.73 2.07,-3.91z"/>
   <path class="fil0" d="M59.04 22.47c4.28,3.21 4.57,-4.07 0.71,-3.21 3.11,-2.97 -1.27,-7.13 -2.6,-2.39 0.04,-4.66 -5.69,-0.99 -2.17,2.17 -2.31,-0.01 -3.41,1.69 -2.92,3.04 0.46,1.27 2.15,1.52 3.5,0.02 -0.71,2.77 0.57,4.12 1.4,4.27 1.26,0.22 2.63,-1.73 2.07,-3.9z"/>
   <path class="fil0" d="M61.29 7.01c-2.26,1.54 0.98,3.06 1.32,0.96 0.76,2.12 3.47,0.71 1.57,-0.85 2.1,0.9 1.52,-2.67 -0.57,-1.5 0.44,-1.16 -0.12,-2.03 -0.83,-2.04 -0.66,-0.01 -1.09,0.79 -0.67,1.75 -1.12,-0.88 -1.97,-0.49 -2.19,-0.1 -0.34,0.59 0.28,1.65 1.38,1.78z"/>
   <path class="fil0" d="M38.52 55.87c-2.64,1.7 1.14,3.39 1.54,1.07 0.89,2.35 4.06,0.78 1.84,-0.94 2.46,0.99 1.78,-2.96 -0.67,-1.66 0.51,-1.29 -0.14,-2.25 -0.96,-2.26 -0.78,-0.01 -1.28,0.88 -0.78,1.94 -1.31,-0.97 -2.31,-0.55 -2.57,-0.12 -0.4,0.65 0.33,1.82 1.61,1.97z"/>
   <path class="fil0" d="M68.25 5.77c-3.42,2.21 1.48,4.38 1.99,1.38 1.15,3.04 5.25,1.01 2.38,-1.22 3.18,1.29 2.31,-3.83 -0.87,-2.15 0.67,-1.66 -0.19,-2.91 -1.25,-2.92 -1,-0.01 -1.65,1.14 -1.01,2.51 -1.69,-1.26 -2.99,-0.7 -3.32,-0.15 -0.51,0.85 0.43,2.36 2.08,2.55z"/>
   <path class="fil0" d="M36.15 33.75c2.93,-2.2 -1.27,-4.37 -1.71,-1.38 -0.98,-3.03 -4.5,-1.01 -2.04,1.22 -2.73,-1.28 -1.98,3.82 0.74,2.14 -0.57,1.66 0.16,2.9 1.07,2.91 0.86,0.01 1.42,-1.13 0.87,-2.51 1.45,1.26 2.56,0.71 2.85,0.15 0.44,-0.85 -0.37,-2.36 -1.79,-2.54z"/>
   <path class="fil0" d="M57.79 35.91c3.17,-2.38 -1.37,-4.73 -1.85,-1.49 -1.06,-3.28 -4.86,-1.09 -2.21,1.32 -2.95,-1.39 -2.14,4.12 0.81,2.31 -0.62,1.79 0.17,3.14 1.16,3.15 0.93,0.01 1.53,-1.22 0.94,-2.71 1.57,1.36 2.77,0.76 3.08,0.16 0.48,-0.91 -0.4,-2.55 -1.93,-2.75z"/>
   <path class="fil0" d="M88.49 39.29c3.17,-2.38 -1.37,-4.72 -1.85,-1.49 -1.06,-3.27 -4.86,-1.09 -2.21,1.32 -2.95,-1.39 -2.14,4.13 0.81,2.31 -0.62,1.8 0.17,3.14 1.16,3.15 0.93,0.01 1.53,-1.23 0.94,-2.71 1.57,1.36 2.77,0.76 3.08,0.16 0.48,-0.91 -0.4,-2.55 -1.93,-2.75z"/>
   <path class="fil0" d="M5.16 24.15c2.58,-1.94 -1.12,-3.85 -1.51,-1.22 -0.87,-2.67 -3.96,-0.89 -1.8,1.08 -2.4,-1.13 -1.74,3.36 0.66,1.89 -0.5,1.46 0.14,2.56 0.94,2.57 0.76,0.01 1.25,-1 0.77,-2.21 1.28,1.11 2.26,0.62 2.51,0.13 0.39,-0.75 -0.32,-2.07 -1.57,-2.24z"/>
   <path class="fil0" d="M79.34 47.78c-3.6,2.32 1.56,4.61 2.1,1.45 1.21,3.2 5.52,1.07 2.5,-1.29 3.35,1.35 2.43,-4.03 -0.92,-2.26 0.7,-1.75 -0.2,-3.06 -1.31,-3.08 -1.06,-0.01 -1.74,1.2 -1.07,2.64 -1.78,-1.32 -3.14,-0.74 -3.5,-0.16 -0.54,0.89 0.45,2.48 2.19,2.68z"/>
   <path class="fil0" d="M90.75 37.65c-1.56,1.01 0.67,2 0.91,0.63 0.52,1.39 2.4,0.46 1.09,-0.56 1.45,0.59 1.05,-1.75 -0.4,-0.98 0.3,-0.76 -0.08,-1.33 -0.57,-1.33 -0.46,-0.01 -0.75,0.52 -0.46,1.15 -0.77,-0.58 -1.36,-0.32 -1.52,-0.07 -0.23,0.39 0.2,1.08 0.95,1.16z"/>
   <path class="fil0" d="M34.25 8.24c2.92,2.05 -1.27,4.08 -1.7,1.29 -0.98,2.82 -4.48,0.94 -2.03,-1.14 -2.72,1.2 -1.97,-3.56 0.74,-2 -0.57,-1.55 0.16,-2.7 1.07,-2.72 0.86,-0.01 1.41,1.06 0.87,2.34 1.45,-1.17 2.55,-0.66 2.84,-0.14 0.44,0.79 -0.37,2.2 -1.78,2.37z"/>
   <path class="fil0" d="M40.74 26.84c2.92,2.05 -1.27,4.08 -1.7,1.28 -0.98,2.83 -4.48,0.94 -2.03,-1.14 -2.72,1.2 -1.97,-3.56 0.74,-2 -0.57,-1.55 0.16,-2.71 1.07,-2.72 0.86,-0.01 1.41,1.06 0.87,2.34 1.45,-1.17 2.55,-0.66 2.84,-0.14 0.44,0.79 -0.37,2.2 -1.78,2.37z"/>
   <path class="fil0" d="M48.68 22.18c2.56,1.8 -1.11,3.57 -1.49,1.12 -0.86,2.48 -3.93,0.83 -1.78,-1 -2.38,1.05 -1.73,-3.12 0.65,-1.75 -0.5,-1.36 0.14,-2.37 0.93,-2.38 0.75,-0.01 1.24,0.92 0.76,2.05 1.27,-1.03 2.24,-0.58 2.49,-0.12 0.39,0.69 -0.32,1.92 -1.56,2.08z"/>
   <path class="fil0" d="M66.17 15.05c2.92,2.05 -1.27,4.08 -1.7,1.28 -0.98,2.83 -4.49,0.94 -2.03,-1.14 -2.72,1.2 -1.97,-3.56 0.74,-2 -0.57,-1.55 0.16,-2.71 1.07,-2.72 0.86,-0.01 1.41,1.06 0.87,2.34 1.45,-1.17 2.55,-0.66 2.84,-0.14 0.44,0.79 -0.37,2.2 -1.78,2.37z"/>
   <path class="fil0" d="M82.56 21.19c2.92,2.05 -1.26,4.08 -1.7,1.29 -0.98,2.82 -4.48,0.94 -2.03,-1.14 -2.72,1.2 -1.97,-3.56 0.74,-2 -0.57,-1.55 0.16,-2.71 1.07,-2.72 0.86,-0.01 1.41,1.06 0.87,2.34 1.45,-1.17 2.55,-0.66 2.84,-0.14 0.44,0.79 -0.37,2.19 -1.78,2.37z"/>
   <path class="fil0" d="M65.46 65.66c2.92,2.05 -1.27,4.08 -1.7,1.29 -0.98,2.82 -4.49,0.94 -2.03,-1.14 -2.72,1.2 -1.97,-3.56 0.74,-2 -0.57,-1.55 0.16,-2.7 1.07,-2.72 0.86,-0.01 1.41,1.06 0.87,2.34 1.45,-1.17 2.55,-0.66 2.84,-0.14 0.44,0.79 -0.37,2.2 -1.78,2.37z"/>
   <path class="fil0" d="M48.71 69.03c2.92,2.05 -1.26,4.08 -1.7,1.28 -0.98,2.82 -4.48,0.94 -2.03,-1.14 -2.72,1.2 -1.97,-3.56 0.74,-2 -0.57,-1.55 0.16,-2.7 1.07,-2.72 0.86,-0.01 1.41,1.06 0.87,2.34 1.45,-1.17 2.55,-0.66 2.84,-0.14 0.44,0.79 -0.37,2.2 -1.78,2.37z"/>
   <path class="fil0" d="M16.03 30.32c2.92,2.05 -1.27,4.08 -1.7,1.28 -0.98,2.82 -4.48,0.94 -2.03,-1.14 -2.72,1.2 -1.97,-3.56 0.74,-2 -0.57,-1.55 0.16,-2.71 1.07,-2.72 0.86,-0.01 1.41,1.06 0.87,2.34 1.45,-1.17 2.55,-0.66 2.84,-0.14 0.44,0.79 -0.37,2.2 -1.78,2.37z"/>
   <path class="fil0" d="M29.21 14.6c2.92,2.05 -1.27,4.08 -1.7,1.29 -0.98,2.82 -4.49,0.94 -2.03,-1.14 -2.72,1.2 -1.97,-3.56 0.74,-2 -0.57,-1.55 0.16,-2.7 1.07,-2.72 0.86,-0.01 1.41,1.06 0.87,2.34 1.45,-1.17 2.55,-0.66 2.84,-0.14 0.44,0.79 -0.37,2.2 -1.78,2.37z"/>
   <path class="fil0" d="M10.22 11.31c1.88,1.32 -0.81,2.62 -1.09,0.83 -0.63,1.81 -2.88,0.6 -1.31,-0.73 -1.75,0.77 -1.27,-2.28 0.48,-1.28 -0.36,-0.99 0.1,-1.74 0.69,-1.74 0.55,-0.01 0.91,0.68 0.56,1.5 0.93,-0.75 1.64,-0.42 1.82,-0.09 0.28,0.51 -0.24,1.41 -1.14,1.52z"/>
   <path class="fil0" d="M62.53 47.37c-3.67,2.51 1.59,4.98 2.14,1.57 1.23,3.45 5.64,1.15 2.56,-1.39 3.42,1.46 2.48,-4.35 -0.93,-2.44 0.72,-1.89 -0.2,-3.3 -1.34,-3.32 -1.08,-0.01 -1.78,1.29 -1.09,2.85 -1.82,-1.43 -3.21,-0.8 -3.57,-0.17 -0.55,0.96 0.46,2.68 2.24,2.89z"/>
   <path class="fil1" d="M63.36 47.02c-2.4,1.64 1.04,3.25 1.4,1.03 0.8,2.25 3.69,0.75 1.67,-0.91 2.24,0.95 1.62,-2.84 -0.61,-1.59 0.47,-1.24 -0.13,-2.16 -0.88,-2.17 -0.71,-0.01 -1.16,0.84 -0.71,1.86 -1.19,-0.93 -2.1,-0.52 -2.33,-0.11 -0.36,0.63 0.3,1.75 1.46,1.89z"/>
   <path class="fil1" d="M24.51 31.69c3.33,2.5 3.55,-3.16 0.56,-2.5 2.42,-2.31 -0.99,-5.55 -2.02,-1.86 0.03,-3.63 -4.43,-0.77 -1.69,1.69 -1.8,-0 -2.65,1.32 -2.27,2.37 0.36,0.99 1.67,1.18 2.72,0.02 -0.55,2.16 0.44,3.21 1.09,3.32 0.98,0.17 2.05,-1.35 1.61,-3.04z"/>
   <path class="fil1" d="M23.3 8.16c3.02,2.26 3.22,-2.87 0.5,-2.26 2.19,-2.1 -0.9,-5.03 -1.83,-1.69 0.03,-3.29 -4.02,-0.7 -1.53,1.53 -1.63,-0 -2.4,1.2 -2.06,2.15 0.33,0.9 1.52,1.07 2.47,0.02 -0.5,1.95 0.4,2.91 0.99,3.01 0.89,0.16 1.86,-1.22 1.46,-2.76z"/>
   <path class="fil1" d="M39.39 66.31c3.33,2.5 3.55,-3.16 0.56,-2.5 2.42,-2.31 -0.99,-5.55 -2.02,-1.86 0.03,-3.63 -4.43,-0.77 -1.69,1.69 -1.8,-0 -2.65,1.32 -2.27,2.37 0.36,0.99 1.67,1.18 2.72,0.02 -0.55,2.15 0.44,3.21 1.09,3.32 0.98,0.17 2.05,-1.34 1.61,-3.04z"/>
   <path class="fil1" d="M57.16 71.26c3.33,2.5 3.55,-3.16 0.56,-2.5 2.42,-2.31 -0.99,-5.55 -2.02,-1.86 0.03,-3.63 -4.43,-0.77 -1.69,1.69 -1.8,-0 -2.65,1.32 -2.27,2.37 0.36,0.99 1.67,1.18 2.72,0.02 -0.55,2.16 0.44,3.21 1.09,3.32 0.98,0.17 2.05,-1.35 1.61,-3.04z"/>
   <path class="fil1" d="M74.28 57.12c3.33,2.5 3.55,-3.17 0.56,-2.5 2.42,-2.31 -0.99,-5.55 -2.02,-1.86 0.03,-3.63 -4.43,-0.77 -1.69,1.69 -1.8,-0.01 -2.65,1.32 -2.27,2.37 0.36,0.99 1.67,1.18 2.72,0.02 -0.55,2.15 0.44,3.21 1.09,3.32 0.98,0.17 2.05,-1.35 1.61,-3.04z"/>
   <path class="fil1" d="M58.66 21.96c3.33,2.49 3.55,-3.17 0.56,-2.5 2.42,-2.31 -0.99,-5.55 -2.02,-1.86 0.03,-3.63 -4.43,-0.77 -1.69,1.69 -1.8,-0 -2.65,1.32 -2.27,2.37 0.36,0.99 1.67,1.18 2.73,0.02 -0.55,2.15 0.44,3.21 1.09,3.32 0.98,0.17 2.05,-1.34 1.61,-3.04z"/>
   <path class="fil1" d="M61.59 6.91c-1.76,1.2 0.76,2.38 1.02,0.75 0.59,1.65 2.7,0.55 1.22,-0.67 1.64,0.7 1.19,-2.08 -0.45,-1.16 0.34,-0.9 -0.1,-1.58 -0.64,-1.59 -0.52,-0.01 -0.85,0.62 -0.52,1.36 -0.87,-0.68 -1.54,-0.38 -1.71,-0.08 -0.26,0.46 0.22,1.28 1.07,1.38z"/>
   <path class="fil1" d="M38.88 55.76c-2.06,1.33 0.89,2.64 1.2,0.83 0.69,1.83 3.16,0.61 1.43,-0.73 1.91,0.78 1.39,-2.3 -0.52,-1.29 0.4,-1 -0.11,-1.75 -0.75,-1.76 -0.6,-0.01 -0.99,0.68 -0.61,1.51 -1.02,-0.76 -1.8,-0.42 -2,-0.09 -0.31,0.51 0.26,1.42 1.25,1.53z"/>
   <path class="fil1" d="M68.83 5.55c-2.61,1.68 1.13,3.34 1.52,1.05 0.87,2.32 4,0.77 1.81,-0.93 2.43,0.98 1.76,-2.92 -0.66,-1.64 0.51,-1.27 -0.14,-2.22 -0.95,-2.23 -0.76,-0.01 -1.26,0.87 -0.77,1.91 -1.29,-0.96 -2.28,-0.54 -2.53,-0.11 -0.39,0.64 0.33,1.8 1.59,1.94z"/>
   <path class="fil1" d="M36.42 15.66c-2.45,1.58 1.06,3.14 1.43,0.99 0.82,2.17 3.76,0.72 1.7,-0.87 2.28,0.92 1.65,-2.74 -0.62,-1.54 0.48,-1.19 -0.13,-2.08 -0.89,-2.09 -0.72,-0.01 -1.18,0.81 -0.73,1.8 -1.21,-0.9 -2.14,-0.51 -2.38,-0.11 -0.37,0.61 0.31,1.69 1.49,1.82z"/>
   <path class="fil1" d="M35.76 33.89c2.28,-1.72 -0.99,-3.4 -1.33,-1.07 -0.76,-2.36 -3.5,-0.79 -1.59,0.95 -2.12,-1 -1.54,2.97 0.58,1.67 -0.44,1.29 0.13,2.26 0.83,2.27 0.67,0.01 1.1,-0.88 0.68,-1.95 1.13,0.98 1.99,0.55 2.22,0.12 0.34,-0.66 -0.29,-1.83 -1.39,-1.98z"/>
   <path class="fil1" d="M57.36 36.06c2.47,-1.85 -1.07,-3.68 -1.44,-1.16 -0.83,-2.55 -3.78,-0.85 -1.72,1.03 -2.29,-1.08 -1.66,3.21 0.63,1.8 -0.48,1.4 0.14,2.44 0.9,2.45 0.73,0.01 1.19,-0.95 0.73,-2.11 1.22,1.06 2.15,0.59 2.4,0.13 0.37,-0.71 -0.31,-1.98 -1.5,-2.14z"/>
   <path class="fil1" d="M88.06 39.44c2.47,-1.85 -1.07,-3.68 -1.44,-1.16 -0.83,-2.55 -3.78,-0.85 -1.72,1.03 -2.29,-1.08 -1.66,3.21 0.63,1.8 -0.48,1.4 0.13,2.44 0.9,2.45 0.72,0.01 1.19,-0.95 0.73,-2.11 1.22,1.06 2.15,0.59 2.4,0.13 0.37,-0.71 -0.31,-1.98 -1.5,-2.14z"/>
   <path class="fil1" d="M4.81 24.27c2.01,-1.51 -0.87,-3 -1.17,-0.95 -0.67,-2.08 -3.08,-0.7 -1.4,0.84 -1.87,-0.88 -1.36,2.62 0.51,1.47 -0.39,1.14 0.11,1.99 0.73,2 0.59,0.01 0.97,-0.78 0.6,-1.72 0.99,0.86 1.76,0.48 1.95,0.1 0.3,-0.58 -0.25,-1.62 -1.22,-1.74z"/>
   <path class="fil1" d="M79.83 47.64c-2.8,1.81 1.21,3.59 1.63,1.13 0.94,2.49 4.3,0.83 1.95,-1 2.61,1.05 1.89,-3.13 -0.71,-1.76 0.54,-1.36 -0.15,-2.38 -1.02,-2.39 -0.82,-0.01 -1.35,0.93 -0.83,2.06 -1.39,-1.03 -2.45,-0.58 -2.72,-0.12 -0.42,0.69 0.35,1.93 1.71,2.09z"/>
   <path class="fil1" d="M91.16 37.45c-0.89,0.58 0.39,1.14 0.52,0.36 0.3,0.79 1.37,0.26 0.62,-0.32 0.83,0.34 0.6,-1 -0.23,-0.56 0.17,-0.43 -0.05,-0.76 -0.33,-0.76 -0.26,-0 -0.43,0.29 -0.26,0.65 -0.44,-0.33 -0.78,-0.18 -0.86,-0.04 -0.13,0.22 0.11,0.61 0.54,0.66z"/>
   <path class="fil0" d="M4.21 19.33c1.43,1 -0.62,1.99 -0.83,0.63 -0.48,1.38 -2.19,0.46 -0.99,-0.55 -1.33,0.58 -0.96,-1.74 0.36,-0.98 -0.28,-0.75 0.08,-1.32 0.52,-1.32 0.42,-0.01 0.69,0.52 0.42,1.14 0.71,-0.57 1.25,-0.32 1.39,-0.07 0.21,0.38 -0.18,1.07 -0.87,1.15z"/>
   <path class="fil1" d="M33.85 8.11c2.28,1.6 -0.98,3.17 -1.33,1 -0.76,2.2 -3.49,0.73 -1.58,-0.88 -2.12,0.93 -1.53,-2.77 0.58,-1.55 -0.44,-1.21 0.13,-2.11 0.83,-2.12 0.67,-0.01 1.1,0.82 0.67,1.82 1.13,-0.91 1.99,-0.51 2.21,-0.11 0.34,0.61 -0.29,1.71 -1.39,1.84z"/>
   <path class="fil1" d="M40.34 26.71c2.28,1.6 -0.98,3.17 -1.33,1 -0.76,2.2 -3.49,0.73 -1.58,-0.89 -2.12,0.93 -1.53,-2.77 0.58,-1.55 -0.44,-1.2 0.12,-2.1 0.83,-2.11 0.67,-0.01 1.1,0.82 0.68,1.82 1.13,-0.91 1.99,-0.51 2.21,-0.11 0.34,0.61 -0.29,1.71 -1.39,1.84z"/>
   <path class="fil1" d="M48.2 22.09c1.87,1.31 -0.81,2.6 -1.09,0.82 -0.63,1.8 -2.86,0.6 -1.3,-0.73 -1.74,0.76 -1.26,-2.27 0.47,-1.28 -0.36,-0.99 0.1,-1.73 0.68,-1.74 0.55,-0.01 0.9,0.68 0.55,1.49 0.92,-0.75 1.63,-0.42 1.81,-0.09 0.28,0.5 -0.24,1.4 -1.14,1.51z"/>
   <path class="fil1" d="M65.78 14.93c2.27,1.6 -0.99,3.18 -1.33,1 -0.76,2.2 -3.49,0.73 -1.58,-0.89 -2.12,0.93 -1.53,-2.77 0.58,-1.55 -0.44,-1.2 0.12,-2.1 0.83,-2.11 0.67,-0.01 1.1,0.82 0.67,1.82 1.13,-0.91 1.99,-0.51 2.21,-0.11 0.34,0.61 -0.29,1.71 -1.39,1.84z"/>
   <path class="fil1" d="M82.16 21.06c2.27,1.6 -0.99,3.17 -1.33,1 -0.76,2.2 -3.49,0.73 -1.58,-0.89 -2.12,0.93 -1.53,-2.77 0.58,-1.55 -0.44,-1.2 0.12,-2.1 0.83,-2.11 0.67,-0.01 1.1,0.82 0.68,1.82 1.13,-0.91 1.99,-0.51 2.21,-0.11 0.34,0.61 -0.29,1.71 -1.39,1.84z"/>
   <path class="fil1" d="M65.06 65.53c2.27,1.6 -0.99,3.17 -1.33,1 -0.76,2.2 -3.49,0.73 -1.58,-0.89 -2.12,0.93 -1.53,-2.77 0.58,-1.55 -0.44,-1.21 0.12,-2.11 0.83,-2.12 0.67,-0.01 1.1,0.82 0.67,1.82 1.13,-0.91 1.99,-0.51 2.21,-0.11 0.34,0.61 -0.29,1.71 -1.39,1.84z"/>
   <path class="fil1" d="M48.31 68.9c2.27,1.6 -0.98,3.17 -1.33,1 -0.76,2.2 -3.49,0.73 -1.58,-0.89 -2.12,0.93 -1.53,-2.77 0.58,-1.55 -0.44,-1.2 0.13,-2.11 0.83,-2.12 0.67,-0.01 1.1,0.82 0.68,1.82 1.13,-0.91 1.99,-0.51 2.21,-0.11 0.34,0.61 -0.29,1.71 -1.39,1.85z"/>
   <path class="fil1" d="M22.45 40.61c2.27,1.6 -0.99,3.17 -1.33,1 -0.76,2.2 -3.49,0.73 -1.58,-0.89 -2.12,0.93 -1.53,-2.77 0.58,-1.55 -0.44,-1.2 0.12,-2.11 0.83,-2.11 0.67,-0.01 1.1,0.82 0.67,1.82 1.13,-0.91 1.99,-0.51 2.21,-0.11 0.34,0.61 -0.29,1.71 -1.39,1.84z"/>
   <path class="fil1" d="M15.64 30.2c2.27,1.6 -0.99,3.17 -1.33,1 -0.76,2.2 -3.49,0.73 -1.58,-0.89 -2.12,0.93 -1.54,-2.77 0.58,-1.55 -0.44,-1.2 0.13,-2.1 0.83,-2.11 0.67,-0.01 1.1,0.82 0.68,1.82 1.13,-0.91 1.99,-0.51 2.21,-0.11 0.34,0.61 -0.29,1.71 -1.39,1.84z"/>
   <path class="fil1" d="M28.82 14.47c2.28,1.6 -0.99,3.17 -1.33,1 -0.76,2.2 -3.49,0.73 -1.58,-0.88 -2.12,0.93 -1.53,-2.77 0.58,-1.56 -0.44,-1.2 0.12,-2.11 0.83,-2.11 0.67,-0.01 1.1,0.82 0.68,1.82 1.13,-0.91 1.99,-0.51 2.21,-0.11 0.34,0.61 -0.29,1.71 -1.39,1.85z"/>
   <path class="fil1" d="M9.96 11.23c1.46,1.02 -0.63,2.04 -0.85,0.64 -0.49,1.41 -2.24,0.47 -1.02,-0.57 -1.36,0.6 -0.99,-1.78 0.37,-1 -0.28,-0.77 0.08,-1.35 0.53,-1.36 0.43,-0 0.71,0.53 0.43,1.17 0.72,-0.59 1.28,-0.33 1.42,-0.07 0.22,0.4 -0.18,1.1 -0.89,1.19z"/>
   <path class="fil0" d="M92.86 17.32c2.01,-1.53 2.25,1.89 0.38,1.5 1.53,1.38 -0.51,3.35 -1.21,1.13 0.08,2.19 -2.72,0.49 -1.07,-1.01 -1.11,0.01 -1.66,-0.78 -1.44,-1.41 0.2,-0.6 1.01,-0.72 1.68,-0.03 -0.38,-1.3 0.22,-1.94 0.61,-2.01 0.6,-0.11 1.29,0.8 1.05,1.82z"/>
   <g>
    <path class="fil0" d="M90.63 26.69c5.45,4.36 -2.36,8.66 -3.18,2.73 -1.83,6 -8.37,2 -3.8,-2.42 -5.08,2.54 -3.68,-7.56 1.39,-4.24 -1.06,-3.29 0.3,-5.75 1.99,-5.77 1.6,-0.02 2.64,2.24 1.62,4.96 2.7,-2.49 4.76,-1.39 5.3,-0.3 0.82,1.67 -0.69,4.67 -3.32,5.03z"/>
    <path class="fil1" d="M89.89 26.42c4.25,3.4 -1.84,6.74 -2.47,2.12 -1.42,4.67 -6.52,1.56 -2.95,-1.88 -3.95,1.98 -2.87,-5.88 1.08,-3.3 -0.82,-2.56 0.23,-4.47 1.55,-4.49 1.25,-0.02 2.05,1.75 1.26,3.86 2.1,-1.94 3.71,-1.09 4.13,-0.23 0.64,1.3 -0.53,3.63 -2.59,3.92z"/>
    <path class="fil0 str0" d="M87.78 25.76c1.17,0.93 -0.39,1.86 -0.57,0.59 -0.34,1.55 -1.71,0.64 -0.73,-0.4 -1.3,0.6 -1.19,-1.73 0.11,-1.07 -0.3,-1.61 1.32,-1.33 0.81,0.03 1.21,-1.07 1.52,0.64 0.38,0.85z"/>
   </g>
   <path class="fil0" d="M23.48 30.19c0.92,0.69 1.02,-0.78 0.19,-0.6 0.84,-0.67 -0.12,-1.52 -0.46,-0.47 -0.03,-1.18 -1.41,-0.5 -0.62,0.36 -1.07,0.17 -0.42,1.38 0.26,0.63 -0.29,1.23 0.84,1.04 0.63,0.08z"/>
   <path class="fil0" d="M22.37 6.8c0.83,0.63 0.92,-0.71 0.17,-0.54 0.76,-0.6 -0.11,-1.37 -0.42,-0.43 -0.02,-1.08 -1.28,-0.46 -0.56,0.32 -0.97,0.15 -0.38,1.25 0.23,0.57 -0.26,1.11 0.76,0.95 0.57,0.07z"/>
   <path class="fil0" d="M38.36 64.81c0.92,0.69 1.02,-0.78 0.19,-0.6 0.84,-0.67 -0.12,-1.52 -0.46,-0.47 -0.02,-1.18 -1.41,-0.51 -0.62,0.36 -1.07,0.17 -0.42,1.38 0.26,0.63 -0.29,1.23 0.84,1.04 0.63,0.08z"/>
   <path class="fil0" d="M56.13 69.77c0.91,0.69 1.02,-0.78 0.19,-0.6 0.84,-0.67 -0.12,-1.52 -0.46,-0.47 -0.02,-1.18 -1.41,-0.51 -0.62,0.36 -1.07,0.16 -0.42,1.38 0.26,0.63 -0.29,1.23 0.84,1.04 0.63,0.08z"/>
   <path class="fil0" d="M73.25 55.62c0.91,0.69 1.02,-0.78 0.19,-0.6 0.84,-0.66 -0.12,-1.52 -0.46,-0.47 -0.02,-1.19 -1.41,-0.51 -0.62,0.36 -1.07,0.16 -0.42,1.38 0.26,0.63 -0.29,1.23 0.84,1.04 0.63,0.08z"/>
   <path class="fil0" d="M57.63 20.46c0.92,0.69 1.02,-0.78 0.19,-0.6 0.84,-0.66 -0.12,-1.52 -0.46,-0.47 -0.03,-1.18 -1.41,-0.5 -0.62,0.36 -1.07,0.17 -0.42,1.38 0.26,0.63 -0.29,1.23 0.84,1.04 0.63,0.08z"/>
   <g>
    <path class="fil0" d="M8.84 21.27c-6.56,4.47 2.84,8.88 3.82,2.8 2.2,6.15 10.06,2.05 4.56,-2.48 6.1,2.61 4.43,-7.75 -1.67,-4.35 1.28,-3.37 -0.36,-5.89 -2.39,-5.92 -1.93,-0.02 -3.17,2.3 -1.95,5.09 -3.25,-2.55 -5.73,-1.43 -6.38,-0.31 -0.98,1.72 0.83,4.78 4,5.16z"/>
    <path class="fil1" d="M9.72 20.99c-5.1,3.48 2.21,6.92 2.98,2.18 1.71,4.79 7.83,1.6 3.55,-1.93 4.75,2.03 3.44,-6.04 -1.3,-3.39 0.99,-2.62 -0.28,-4.59 -1.86,-4.61 -1.5,-0.02 -2.47,1.79 -1.52,3.96 -2.53,-1.99 -4.46,-1.11 -4.96,-0.24 -0.77,1.34 0.64,3.72 3.11,4.02z"/>
    <path class="fil0" d="M12.26 20.32c-1.4,0.96 0.47,1.91 0.68,0.61 0.41,1.59 2.06,0.65 0.87,-0.41 1.57,0.61 1.44,-1.78 -0.13,-1.1 0.37,-1.65 -1.58,-1.37 -0.97,0.03 -1.46,-1.09 -1.83,0.65 -0.45,0.88z"/>
   </g>
   <path class="fil0" d="M62.47 6.68c-0.48,0.33 0.16,0.66 0.23,0.21 0.14,0.55 0.71,0.22 0.3,-0.14 0.54,0.21 0.49,-0.61 -0.04,-0.38 0.13,-0.57 -0.55,-0.47 -0.33,0.01 -0.5,-0.38 -0.63,0.22 -0.15,0.3z"/>
   <path class="fil0" d="M39.9 55.5c-0.56,0.36 0.19,0.73 0.27,0.23 0.17,0.61 0.83,0.25 0.35,-0.16 0.63,0.23 0.58,-0.68 -0.05,-0.42 0.15,-0.63 -0.64,-0.52 -0.39,0.01 -0.59,-0.42 -0.74,0.25 -0.18,0.33z"/>
   <path class="fil0" d="M69.99 4.72c-0.86,0.55 0.29,1.1 0.41,0.35 0.25,0.92 1.26,0.38 0.53,-0.24 0.96,0.35 0.88,-1.03 -0.08,-0.64 0.22,-0.95 -0.97,-0.79 -0.59,0.02 -0.89,-0.63 -1.12,0.38 -0.28,0.51z"/>
   <path class="fil0" d="M34.62 34.22c0.63,-0.47 -0.21,-0.94 -0.3,-0.3 -0.19,-0.78 -0.92,-0.32 -0.39,0.2 -0.7,-0.3 -0.64,0.87 0.06,0.54 -0.16,0.81 0.71,0.67 0.43,-0.01 0.65,0.54 0.82,-0.32 0.2,-0.43z"/>
   <path class="fil0" d="M56.14 36.42c0.68,-0.51 -0.23,-1.02 -0.33,-0.32 -0.2,-0.85 -1,-0.35 -0.42,0.22 -0.76,-0.33 -0.69,0.95 0.06,0.59 -0.18,0.88 0.77,0.73 0.47,-0.01 0.7,0.58 0.88,-0.35 0.22,-0.47z"/>
   <path class="fil0" d="M86.84 39.8c0.68,-0.51 -0.23,-1.02 -0.33,-0.32 -0.2,-0.85 -1,-0.35 -0.42,0.22 -0.76,-0.33 -0.69,0.94 0.06,0.58 -0.18,0.88 0.77,0.73 0.47,-0.01 0.7,0.58 0.88,-0.35 0.22,-0.47z"/>
   <path class="fil0" d="M70.82 39.62c0.68,-0.51 -0.23,-1.02 -0.33,-0.32 -0.2,-0.85 -1,-0.35 -0.42,0.22 -0.76,-0.32 -0.7,0.95 0.06,0.59 -0.18,0.88 0.77,0.73 0.47,-0.01 0.7,0.58 0.89,-0.35 0.22,-0.46z"/>
   <path class="fil0" d="M3.81 24.56c0.55,-0.42 -0.18,-0.83 -0.27,-0.26 -0.16,-0.69 -0.81,-0.28 -0.34,0.18 -0.62,-0.26 -0.57,0.77 0.05,0.48 -0.15,0.71 0.62,0.59 0.38,-0.01 0.57,0.47 0.72,-0.28 0.18,-0.38z"/>
   <path class="fil0" d="M30.32 23.44c2.48,1.96 2.57,-2.37 0.38,-1.9 1.74,-1.73 -0.8,-4.26 -1.51,-1.45 -0.03,-2.78 -3.27,-0.66 -1.22,1.27 -1.32,-0.03 -1.93,0.97 -1.64,1.78 0.28,0.76 1.24,0.93 2,0.05 -0.38,1.64 0.37,2.46 0.84,2.56 0.72,0.15 1.49,-1 1.15,-2.3z"/>
   <path class="fil1" d="M30.1 23.13c1.93,1.53 2,-1.84 0.29,-1.48 1.36,-1.35 -0.62,-3.32 -1.18,-1.13 -0.02,-2.16 -2.54,-0.51 -0.95,0.99 -1.03,-0.02 -1.5,0.76 -1.27,1.38 0.22,0.6 0.97,0.72 1.56,0.04 -0.3,1.27 0.29,1.92 0.66,1.99 0.56,0.11 1.16,-0.78 0.89,-1.79z"/>
   <path class="fil0" d="M29.49 22.23c0.53,0.42 0.57,-0.45 0.1,-0.35 0.48,-0.39 -0.09,-0.9 -0.27,-0.29 -0.03,-0.7 -0.81,-0.32 -0.35,0.21 -0.61,0.09 -0.23,0.82 0.15,0.38 -0.15,0.73 0.49,0.63 0.36,0.05z"/>
   <path class="fil0" d="M73.63 14.33c2.48,1.96 2.57,-2.37 0.38,-1.9 1.75,-1.73 -0.8,-4.26 -1.51,-1.45 -0.03,-2.77 -3.27,-0.66 -1.22,1.27 -1.32,-0.03 -1.93,0.97 -1.64,1.78 0.28,0.76 1.24,0.93 2,0.05 -0.38,1.64 0.37,2.46 0.84,2.56 0.72,0.15 1.49,-1 1.14,-2.3z"/>
   <path class="fil1" d="M73.4 14.02c1.93,1.52 2,-1.84 0.29,-1.48 1.36,-1.35 -0.62,-3.31 -1.18,-1.13 -0.02,-2.16 -2.54,-0.51 -0.95,0.99 -1.03,-0.02 -1.5,0.75 -1.27,1.38 0.22,0.59 0.97,0.72 1.56,0.04 -0.29,1.27 0.29,1.91 0.66,1.99 0.56,0.12 1.16,-0.78 0.89,-1.79z"/>
   <path class="fil0" d="M72.8 13.11c0.53,0.42 0.57,-0.45 0.1,-0.35 0.48,-0.38 -0.09,-0.9 -0.27,-0.28 -0.03,-0.7 -0.81,-0.32 -0.35,0.2 -0.61,0.09 -0.23,0.82 0.15,0.38 -0.15,0.73 0.49,0.63 0.36,0.05z"/>
   <path class="fil0" d="M78.72 38.91c0.53,0.42 0.57,-0.45 0.1,-0.35 0.48,-0.39 -0.08,-0.91 -0.27,-0.29 -0.03,-0.7 -0.81,-0.32 -0.35,0.2 -0.61,0.09 -0.22,0.82 0.15,0.38 -0.15,0.73 0.49,0.63 0.36,0.06z"/>
   <path class="fil0" d="M57.12 48.3c2.48,1.96 2.57,-2.37 0.38,-1.9 1.75,-1.73 -0.8,-4.26 -1.51,-1.45 -0.03,-2.77 -3.27,-0.66 -1.22,1.27 -1.32,-0.03 -1.93,0.97 -1.64,1.78 0.28,0.76 1.25,0.93 2,0.05 -0.38,1.64 0.37,2.46 0.84,2.56 0.73,0.15 1.49,-1 1.14,-2.3z"/>
   <path class="fil1" d="M56.9 47.99c1.93,1.52 2,-1.84 0.29,-1.48 1.36,-1.35 -0.62,-3.32 -1.18,-1.13 -0.02,-2.16 -2.54,-0.51 -0.95,0.99 -1.03,-0.02 -1.5,0.75 -1.27,1.38 0.22,0.59 0.97,0.72 1.56,0.04 -0.29,1.28 0.29,1.92 0.66,1.99 0.56,0.11 1.16,-0.78 0.89,-1.79z"/>
   <path class="fil0" d="M56.29 47.08c0.53,0.42 0.57,-0.45 0.1,-0.35 0.48,-0.38 -0.09,-0.9 -0.27,-0.29 -0.03,-0.71 -0.81,-0.32 -0.35,0.2 -0.61,0.09 -0.23,0.82 0.15,0.38 -0.15,0.73 0.49,0.63 0.36,0.06z"/>
   <path class="fil0" d="M33.82 55.55c2.48,1.96 2.57,-2.37 0.37,-1.9 1.75,-1.73 -0.8,-4.26 -1.51,-1.45 -0.03,-2.77 -3.27,-0.66 -1.22,1.27 -1.32,-0.03 -1.93,0.97 -1.64,1.78 0.28,0.76 1.25,0.93 2,0.05 -0.38,1.64 0.37,2.46 0.84,2.56 0.72,0.15 1.49,-1 1.15,-2.3z"/>
   <path class="fil1" d="M33.59 55.24c1.93,1.52 2,-1.84 0.29,-1.48 1.36,-1.35 -0.62,-3.32 -1.18,-1.13 -0.02,-2.16 -2.54,-0.51 -0.95,0.99 -1.03,-0.03 -1.5,0.75 -1.27,1.38 0.22,0.59 0.97,0.72 1.56,0.04 -0.29,1.28 0.29,1.92 0.66,1.99 0.56,0.12 1.16,-0.78 0.89,-1.79z"/>
   <path class="fil0" d="M32.99 54.33c0.53,0.42 0.57,-0.45 0.1,-0.35 0.48,-0.39 -0.09,-0.9 -0.27,-0.29 -0.03,-0.7 -0.81,-0.32 -0.35,0.21 -0.61,0.09 -0.23,0.82 0.15,0.38 -0.15,0.73 0.49,0.63 0.36,0.06z"/>
   <path class="fil0" d="M24.67 56.2c2.48,1.96 2.57,-2.37 0.37,-1.9 1.75,-1.73 -0.8,-4.26 -1.51,-1.45 -0.03,-2.77 -3.27,-0.66 -1.22,1.27 -1.32,-0.03 -1.93,0.97 -1.64,1.78 0.28,0.76 1.24,0.92 2,0.05 -0.38,1.64 0.37,2.46 0.84,2.56 0.72,0.15 1.49,-1 1.15,-2.3z"/>
   <path class="fil1" d="M24.45 55.89c1.93,1.52 2,-1.84 0.29,-1.48 1.36,-1.35 -0.62,-3.31 -1.18,-1.13 -0.02,-2.16 -2.54,-0.51 -0.95,0.99 -1.03,-0.02 -1.5,0.75 -1.27,1.38 0.22,0.59 0.97,0.72 1.56,0.04 -0.29,1.28 0.29,1.92 0.66,1.99 0.56,0.12 1.16,-0.78 0.89,-1.79z"/>
   <path class="fil0" d="M23.84 54.98c0.53,0.42 0.57,-0.45 0.1,-0.35 0.48,-0.39 -0.09,-0.9 -0.27,-0.29 -0.03,-0.7 -0.81,-0.32 -0.35,0.21 -0.61,0.09 -0.23,0.82 0.15,0.38 -0.15,0.73 0.49,0.63 0.36,0.06z"/>
   <path class="fil0" d="M44.78 75.11c1.24,0.98 1.28,-1.18 0.19,-0.95 0.87,-0.87 -0.4,-2.13 -0.76,-0.73 -0.01,-1.39 -1.63,-0.33 -0.61,0.63 -0.66,-0.02 -0.96,0.48 -0.82,0.89 0.14,0.38 0.62,0.46 1,0.03 -0.19,0.82 0.18,1.23 0.42,1.28 0.36,0.07 0.74,-0.5 0.57,-1.15z"/>
   <path class="fil0" d="M8.23 33.14c2.48,1.96 2.57,-2.37 0.37,-1.9 1.74,-1.73 -0.8,-4.26 -1.51,-1.45 -0.03,-2.77 -3.27,-0.66 -1.22,1.27 -1.32,-0.03 -1.93,0.97 -1.64,1.78 0.28,0.76 1.24,0.93 2,0.05 -0.38,1.64 0.37,2.46 0.84,2.56 0.73,0.15 1.49,-1 1.15,-2.3z"/>
   <path class="fil1" d="M8.01 32.83c1.93,1.53 2,-1.84 0.29,-1.48 1.36,-1.35 -0.62,-3.31 -1.18,-1.13 -0.02,-2.16 -2.54,-0.51 -0.95,0.99 -1.03,-0.02 -1.5,0.75 -1.27,1.38 0.22,0.59 0.97,0.72 1.56,0.04 -0.29,1.28 0.29,1.92 0.66,1.99 0.56,0.12 1.16,-0.78 0.89,-1.79z"/>
   <path class="fil0" d="M7.4 31.92c0.53,0.42 0.57,-0.45 0.1,-0.35 0.47,-0.39 -0.09,-0.9 -0.27,-0.29 -0.03,-0.7 -0.81,-0.32 -0.35,0.21 -0.61,0.09 -0.23,0.82 0.15,0.38 -0.15,0.73 0.49,0.63 0.36,0.06z"/>
   <path class="fil0" d="M36 45.27c2.48,1.96 2.57,-2.37 0.38,-1.9 1.74,-1.73 -0.8,-4.26 -1.51,-1.45 -0.03,-2.77 -3.27,-0.66 -1.22,1.27 -1.32,-0.03 -1.93,0.97 -1.64,1.78 0.28,0.76 1.25,0.93 2,0.05 -0.38,1.64 0.37,2.46 0.84,2.56 0.72,0.15 1.49,-1 1.14,-2.3z"/>
   <path class="fil0" d="M35.17 44.05c0.53,0.42 0.57,-0.45 0.1,-0.35 0.48,-0.39 -0.08,-0.9 -0.27,-0.29 -0.03,-0.7 -0.81,-0.32 -0.35,0.21 -0.61,0.09 -0.23,0.82 0.15,0.38 -0.15,0.73 0.49,0.63 0.36,0.05z"/>
   <path class="fil0" d="M14.76 46.68c2.48,1.96 2.57,-2.37 0.37,-1.9 1.75,-1.73 -0.8,-4.26 -1.51,-1.45 -0.03,-2.77 -3.27,-0.66 -1.22,1.27 -1.32,-0.03 -1.93,0.97 -1.64,1.78 0.28,0.76 1.25,0.93 2,0.05 -0.38,1.64 0.37,2.46 0.84,2.56 0.72,0.15 1.49,-1 1.14,-2.3z"/>
   <path class="fil1" d="M14.53 46.37c1.93,1.52 2,-1.84 0.29,-1.48 1.36,-1.35 -0.62,-3.32 -1.18,-1.13 -0.02,-2.16 -2.54,-0.51 -0.95,0.99 -1.03,-0.02 -1.5,0.75 -1.27,1.38 0.22,0.59 0.97,0.72 1.56,0.04 -0.29,1.27 0.29,1.92 0.66,1.99 0.56,0.11 1.16,-0.78 0.89,-1.79z"/>
   <path class="fil0" d="M13.93 45.46c0.53,0.42 0.57,-0.45 0.1,-0.35 0.47,-0.39 -0.09,-0.9 -0.27,-0.29 -0.03,-0.7 -0.81,-0.32 -0.35,0.21 -0.61,0.09 -0.23,0.82 0.15,0.38 -0.15,0.73 0.49,0.63 0.36,0.05z"/>
   <path class="fil0" d="M62.65 24.8c0.53,0.42 0.57,-0.45 0.1,-0.35 0.48,-0.39 -0.09,-0.9 -0.27,-0.29 -0.03,-0.71 -0.81,-0.32 -0.35,0.21 -0.61,0.09 -0.23,0.82 0.15,0.38 -0.15,0.73 0.49,0.63 0.36,0.05z"/>
   <path class="fil0" d="M81.22 47.28c-0.77,0.5 0.26,0.99 0.37,0.32 0.23,0.83 1.13,0.34 0.48,-0.21 0.86,0.32 0.79,-0.92 -0.07,-0.57 0.2,-0.86 -0.87,-0.71 -0.53,0.02 -0.8,-0.57 -1,0.34 -0.25,0.45z"/>
   <path class="fil0" d="M32.73 7.8c0.63,0.44 -0.21,0.88 -0.3,0.28 -0.18,0.73 -0.92,0.3 -0.39,-0.19 -0.7,0.28 -0.64,-0.82 0.06,-0.5 -0.16,-0.76 0.71,-0.63 0.43,0.01 0.65,-0.5 0.82,0.3 0.2,0.4z"/>
   <path class="fil0" d="M39.21 26.4c0.63,0.44 -0.21,0.88 -0.3,0.28 -0.18,0.73 -0.92,0.3 -0.39,-0.19 -0.7,0.28 -0.64,-0.82 0.06,-0.51 -0.16,-0.76 0.71,-0.63 0.43,0.01 0.65,-0.5 0.82,0.3 0.2,0.4z"/>
   <path class="fil0" d="M47.47 21.61c0.44,0.31 -0.14,0.61 -0.21,0.19 -0.13,0.51 -0.64,0.21 -0.27,-0.13 -0.49,0.19 -0.45,-0.57 0.04,-0.35 -0.11,-0.53 0.49,-0.44 0.3,0.01 0.45,-0.35 0.57,0.21 0.14,0.28z"/>
   <path class="fil1" d="M64.42 34.25c0.89,0.63 -0.3,1.25 -0.43,0.4 -0.26,1.04 -1.31,0.43 -0.55,-0.27 -1,0.4 -0.91,-1.16 0.08,-0.72 -0.23,-1.08 1.01,-0.89 0.62,0.02 0.93,-0.72 1.16,0.43 0.29,0.57z"/>
   <path class="fil0" d="M64.65 14.62c0.63,0.44 -0.21,0.88 -0.3,0.28 -0.18,0.73 -0.92,0.3 -0.39,-0.19 -0.7,0.28 -0.64,-0.82 0.06,-0.51 -0.16,-0.76 0.71,-0.63 0.43,0.01 0.65,-0.5 0.82,0.3 0.2,0.4z"/>
   <path class="fil0" d="M81.03 20.75c0.63,0.44 -0.21,0.88 -0.3,0.28 -0.18,0.73 -0.92,0.3 -0.39,-0.19 -0.7,0.28 -0.64,-0.81 0.06,-0.5 -0.17,-0.76 0.71,-0.63 0.43,0.01 0.65,-0.5 0.82,0.3 0.2,0.4z"/>
   <path class="fil0" d="M63.93 65.22c0.63,0.44 -0.21,0.88 -0.3,0.28 -0.18,0.73 -0.92,0.3 -0.39,-0.19 -0.7,0.28 -0.64,-0.81 0.06,-0.5 -0.16,-0.76 0.71,-0.63 0.43,0.01 0.65,-0.5 0.82,0.3 0.2,0.4z"/>
   <path class="fil0" d="M47.18 68.59c0.63,0.44 -0.21,0.88 -0.3,0.28 -0.18,0.73 -0.92,0.3 -0.39,-0.19 -0.7,0.28 -0.64,-0.81 0.06,-0.5 -0.16,-0.76 0.71,-0.63 0.43,0.01 0.65,-0.5 0.82,0.3 0.2,0.4z"/>
   <path class="fil0" d="M14.51 29.88c0.63,0.44 -0.21,0.88 -0.3,0.28 -0.18,0.73 -0.92,0.3 -0.39,-0.19 -0.7,0.28 -0.64,-0.82 0.06,-0.5 -0.16,-0.76 0.71,-0.63 0.43,0.01 0.65,-0.5 0.81,0.3 0.2,0.4z"/>
   <path class="fil0" d="M27.69 14.16c0.62,0.44 -0.21,0.88 -0.3,0.28 -0.18,0.73 -0.92,0.3 -0.39,-0.19 -0.7,0.28 -0.64,-0.81 0.06,-0.5 -0.16,-0.76 0.71,-0.63 0.43,0.01 0.65,-0.5 0.82,0.3 0.2,0.4z"/>
   <path class="fil0" d="M92.53 18.51c0.61,-0.46 0.71,0.51 0.14,0.4 0.59,0.44 -0.05,1.01 -0.3,0.32 0.01,0.79 -0.95,0.35 -0.43,-0.23 -0.73,-0.1 -0.31,-0.92 0.16,-0.42 -0.22,-0.82 0.55,-0.7 0.43,-0.06z"/>
   <path class="fil0" d="M63.22 55.66c2.45,1.71 -0.82,3.41 -1.18,1.09 -0.72,2.84 -3.59,1.17 -1.53,-0.73 -2.74,1.09 -2.51,-3.16 0.23,-1.96 -0.64,-2.94 2.77,-2.44 1.69,0.05 2.54,-1.95 3.2,1.16 0.79,1.56z"/>
   <g>
    <path class="fil0" d="M51.12 38.4c7.52,6.02 -3.26,11.95 -4.39,3.77 -2.52,8.28 -11.55,2.76 -5.24,-3.33 -7,3.51 -5.08,-10.43 1.91,-5.85 -1.46,-4.54 0.41,-7.93 2.75,-7.96 2.21,-0.03 3.64,3.1 2.23,6.85 3.73,-3.43 6.57,-1.92 7.31,-0.41 1.13,2.31 -0.95,6.44 -4.58,6.94z"/>
    <path class="fil1" d="M50.1 38.03c5.86,4.68 -2.54,9.3 -3.42,2.93 -1.96,6.44 -8.99,2.15 -4.08,-2.6 -5.45,2.73 -3.95,-8.12 1.49,-4.55 -1.14,-3.53 0.32,-6.17 2.14,-6.2 1.72,-0.02 2.83,2.41 1.74,5.33 2.9,-2.67 5.12,-1.5 5.69,-0.32 0.88,1.8 -0.74,5.01 -3.57,5.41z"/>
    <path class="fil0" d="M47.2 37.12c1.61,1.29 -0.54,2.57 -0.78,0.81 -0.47,2.15 -2.37,0.88 -1,-0.55 -1.8,0.82 -1.65,-2.39 0.15,-1.48 -0.42,-2.22 1.82,-1.84 1.11,0.04 1.67,-1.47 2.1,0.88 0.52,1.18z"/>
   </g>
   <path class="fil0" d="M8.1 38.81c1.17,0.93 -0.39,1.86 -0.56,0.59 -0.34,1.55 -1.71,0.64 -0.73,-0.4 -1.31,0.6 -1.2,-1.73 0.11,-1.07 -0.3,-1.61 1.32,-1.33 0.81,0.03 1.21,-1.07 1.52,0.64 0.38,0.85z"/>
   <path class="fil0" d="M15.13 6.78c1.17,0.93 -0.39,1.86 -0.56,0.59 -0.34,1.55 -1.71,0.64 -0.73,-0.4 -1.3,0.6 -1.19,-1.73 0.11,-1.07 -0.31,-1.61 1.32,-1.33 0.81,0.03 1.21,-1.07 1.52,0.64 0.38,0.85z"/>
   <path class="fil0" d="M89.31 13.98c1.17,0.93 -0.39,1.86 -0.56,0.59 -0.34,1.55 -1.71,0.64 -0.73,-0.4 -1.31,0.6 -1.2,-1.73 0.11,-1.07 -0.31,-1.6 1.32,-1.33 0.81,0.03 1.21,-1.07 1.52,0.63 0.38,0.85z"/>
   <path class="fil0" d="M94.97 30.33c1.17,0.93 -0.39,1.86 -0.56,0.59 -0.34,1.55 -1.72,0.64 -0.73,-0.4 -1.3,0.6 -1.2,-1.73 0.11,-1.07 -0.31,-1.61 1.32,-1.33 0.81,0.03 1.21,-1.07 1.52,0.64 0.38,0.85z"/>
   <path class="fil0" d="M77.68 17.04c1.17,0.93 -0.39,1.86 -0.56,0.59 -0.34,1.55 -1.71,0.64 -0.73,-0.4 -1.3,0.6 -1.19,-1.73 0.11,-1.07 -0.31,-1.61 1.32,-1.33 0.81,0.03 1.21,-1.07 1.52,0.63 0.38,0.85z"/>
   <path class="fil0" d="M52.25 16.95c1.05,0.84 -0.35,1.67 -0.51,0.53 -0.31,1.39 -1.54,0.57 -0.65,-0.36 -1.17,0.54 -1.07,-1.55 0.1,-0.96 -0.28,-1.44 1.18,-1.2 0.72,0.03 1.09,-0.96 1.37,0.57 0.34,0.76z"/>
   <path class="fil0" d="M79.91 54.26c1.17,0.93 -0.39,1.86 -0.56,0.59 -0.34,1.55 -1.71,0.64 -0.73,-0.4 -1.31,0.6 -1.2,-1.73 0.11,-1.07 -0.31,-1.6 1.32,-1.33 0.81,0.03 1.21,-1.07 1.52,0.64 0.38,0.85z"/>
   <path class="fil0" d="M70.44 62.93c1.17,0.93 -0.39,1.86 -0.56,0.59 -0.34,1.55 -1.71,0.64 -0.73,-0.4 -1.3,0.6 -1.19,-1.73 0.11,-1.07 -0.31,-1.61 1.32,-1.33 0.81,0.03 1.21,-1.07 1.52,0.63 0.38,0.85z"/>
   <path class="fil0" d="M53.08 77.35c1.17,0.93 -0.39,1.86 -0.56,0.59 -0.34,1.55 -1.71,0.64 -0.73,-0.4 -1.3,0.6 -1.19,-1.73 0.11,-1.08 -0.31,-1.6 1.32,-1.33 0.81,0.03 1.21,-1.07 1.52,0.64 0.38,0.85z"/>
   <path class="fil0" d="M50.1 81.88c0.9,0.72 -0.3,1.43 -0.43,0.45 -0.26,1.19 -1.31,0.49 -0.56,-0.3 -1,0.46 -0.92,-1.33 0.08,-0.82 -0.23,-1.23 1.01,-1.02 0.62,0.02 0.93,-0.82 1.17,0.49 0.29,0.65z"/>
   <path class="fil0" d="M29.15 3.61c1.17,0.93 -0.39,1.86 -0.56,0.59 -0.34,1.55 -1.71,0.64 -0.73,-0.4 -1.3,0.6 -1.19,-1.73 0.11,-1.07 -0.31,-1.61 1.32,-1.33 0.81,0.03 1.21,-1.07 1.52,0.63 0.38,0.85z"/>
   <path class="fil0" d="M39.18 7.51c0.76,0.61 -0.25,1.21 -0.37,0.38 -0.22,1.01 -1.11,0.42 -0.47,-0.26 -0.85,0.39 -0.78,-1.12 0.07,-0.7 -0.2,-1.04 0.86,-0.87 0.52,0.02 0.79,-0.69 0.99,0.41 0.24,0.55z"/>
   <path class="fil0" d="M54.9 12.59c0.81,0.65 -0.27,1.29 -0.39,0.41 -0.24,1.07 -1.18,0.44 -0.5,-0.28 -0.9,0.41 -0.83,-1.2 0.07,-0.74 -0.21,-1.11 0.91,-0.92 0.56,0.02 0.84,-0.74 1.05,0.44 0.26,0.59z"/>
   <path class="fil1" d="M53.5 57.37c4.29,3.43 -1.86,6.81 -2.5,2.15 -1.44,4.71 -6.58,1.57 -2.98,-1.9 -3.99,2 -2.89,-5.94 1.09,-3.33 -0.83,-2.58 0.23,-4.52 1.57,-4.54 1.26,-0.02 2.07,1.76 1.27,3.9 2.12,-1.96 3.74,-1.1 4.17,-0.24 0.64,1.31 -0.54,3.67 -2.61,3.96z"/>
   <g>
    <path class="fil0" d="M76.85 36.34c7.48,5.98 -3.24,11.89 -4.36,3.74 -2.51,8.23 -11.48,2.75 -5.21,-3.31 -6.96,3.49 -5.05,-10.38 1.9,-5.82 -1.46,-4.51 0.41,-7.89 2.73,-7.92 2.2,-0.03 3.62,3.08 2.22,6.81 3.71,-3.41 6.54,-1.91 7.27,-0.41 1.13,2.3 -0.94,6.4 -4.56,6.91z"/>
    <path class="fil0" d="M76.85 36.34c7.48,5.98 -3.24,11.89 -4.36,3.74 -2.51,8.23 -11.48,2.75 -5.21,-3.31 -6.96,3.49 -5.05,-10.38 1.9,-5.82 -1.46,-4.51 0.41,-7.89 2.73,-7.92 2.2,-0.03 3.62,3.08 2.22,6.81 3.71,-3.41 6.54,-1.91 7.27,-0.41 1.13,2.3 -0.94,6.4 -4.56,6.91z"/>
    <path class="fil1" d="M75.84 35.97c5.83,4.66 -2.52,9.25 -3.4,2.91 -1.95,6.41 -8.94,2.14 -4.06,-2.58 -5.42,2.72 -3.93,-8.08 1.48,-4.53 -1.13,-3.51 0.32,-6.14 2.13,-6.16 1.71,-0.03 2.81,2.4 1.73,5.3 2.88,-2.66 5.09,-1.49 5.66,-0.32 0.87,1.79 -0.73,4.98 -3.55,5.38z"/>
    <path class="fil1" d="M75.84 35.97c5.83,4.66 -2.52,9.25 -3.4,2.91 -1.95,6.41 -8.94,2.14 -4.06,-2.58 -5.42,2.72 -3.93,-8.08 1.48,-4.53 -1.13,-3.51 0.32,-6.14 2.13,-6.16 1.71,-0.03 2.81,2.4 1.73,5.3 2.88,-2.66 5.09,-1.49 5.66,-0.32 0.87,1.79 -0.73,4.98 -3.55,5.38z"/>
    <path class="fil0" d="M72.95 35.06c1.6,1.28 -0.53,2.56 -0.77,0.81 -0.47,2.13 -2.35,0.88 -1,-0.55 -1.79,0.82 -1.64,-2.37 0.15,-1.47 -0.42,-2.21 1.81,-1.83 1.11,0.04 1.66,-1.47 2.09,0.87 0.51,1.17z"/>
    <path class="fil0" d="M72.95 35.06c1.6,1.28 -0.53,2.56 -0.77,0.81 -0.47,2.13 -2.35,0.88 -1,-0.55 -1.79,0.82 -1.64,-2.37 0.15,-1.47 -0.42,-2.21 1.81,-1.83 1.11,0.04 1.66,-1.47 2.09,0.87 0.51,1.17z"/>
   </g>
   <path class="fil0" d="M51.37 56.71c1.18,0.94 -0.39,1.88 -0.57,0.6 -0.35,1.57 -1.73,0.65 -0.74,-0.4 -1.32,0.6 -1.21,-1.75 0.11,-1.08 -0.31,-1.62 1.33,-1.35 0.81,0.03 1.22,-1.08 1.54,0.64 0.38,0.86z"/>
   <path class="fil0" d="M83.71 7.6c4.74,-2.23 4.6,4.8 0.56,3.22 3.12,3.46 -1.78,6.58 -2.9,1.77 -0.24,4.48 -6.1,-0.18 -2.17,-2.51 -2.46,-0.45 -3.51,-2.3 -2.91,-3.49 0.57,-1.13 2.37,-1.03 3.72,0.67 -0.58,-2.79 0.85,-3.84 1.74,-3.82 1.35,0.04 2.69,2.18 1.96,4.16z"/>
   <path class="fil1" d="M83.39 7.87c3.97,-1.87 3.86,4.03 0.47,2.7 2.62,2.91 -1.5,5.53 -2.44,1.49 -0.2,3.76 -5.13,-0.15 -1.82,-2.11 -2.06,-0.38 -2.95,-1.93 -2.45,-2.93 0.48,-0.95 1.99,-0.86 3.12,0.57 -0.49,-2.35 0.72,-3.22 1.46,-3.2 1.14,0.03 2.26,1.83 1.65,3.49z"/>
   <path class="fil0" d="M82.33 8.73c1.48,-0.7 1.51,1.39 0.25,0.89 1.25,1.18 -0.32,2.1 -0.76,0.53 -0.14,1.66 -2.24,0.3 -0.93,-0.68 -1.65,-0.54 -0.53,-2.06 0.45,-0.81 -0.34,-1.81 1.4,-1.22 0.99,0.07z"/>
   <path class="fil0" d="M13.02 41.16c-0.63,-0.86 -0.36,-1.96 -0.79,-2.97 -0.47,-1.11 -2.05,-1.61 -2.44,-2.69 0.47,0.98 -0.1,2.61 0.26,3.7 0.53,1.57 1.52,1.99 2.96,1.96z"/>
   <path class="fil1" d="M12.34 40.56c-0.42,-0.6 -0.15,-1.21 -0.37,-1.92 -0.21,-0.68 -1.2,-0.99 -1.6,-1.81 0.09,0.8 -0.05,1.67 0.2,2.41 0.31,0.9 0.76,1.15 1.76,1.33z"/>
   <path class="fil0" d="M31.44 61.87c-0.63,-0.87 -0.36,-1.96 -0.79,-2.97 -0.47,-1.11 -2.05,-1.61 -2.44,-2.69 0.47,0.98 -0.1,2.61 0.26,3.7 0.53,1.57 1.52,1.99 2.96,1.96z"/>
   <path class="fil1" d="M30.75 61.27c-0.42,-0.6 -0.15,-1.21 -0.37,-1.93 -0.21,-0.69 -1.2,-0.99 -1.6,-1.81 0.09,0.8 -0.05,1.67 0.2,2.41 0.31,0.89 0.76,1.15 1.76,1.33z"/>
   <path class="fil0" d="M19.28 14.41c-0.63,-0.87 -0.36,-1.96 -0.79,-2.97 -0.47,-1.1 -2.05,-1.61 -2.44,-2.69 0.47,0.98 -0.1,2.61 0.26,3.7 0.53,1.57 1.52,1.99 2.96,1.96z"/>
   <path class="fil1" d="M18.59 13.81c-0.42,-0.6 -0.15,-1.21 -0.37,-1.92 -0.21,-0.69 -1.2,-0.99 -1.6,-1.82 0.09,0.8 -0.05,1.67 0.2,2.41 0.31,0.89 0.76,1.15 1.76,1.33z"/>
   <path class="fil0" d="M58.37 31.98c-0.63,-0.87 -0.36,-1.96 -0.79,-2.97 -0.47,-1.11 -2.05,-1.61 -2.44,-2.69 0.47,0.98 -0.1,2.61 0.26,3.7 0.53,1.57 1.52,1.99 2.96,1.96z"/>
   <path class="fil1" d="M57.69 31.37c-0.42,-0.59 -0.15,-1.21 -0.37,-1.93 -0.21,-0.69 -1.2,-0.99 -1.59,-1.81 0.09,0.8 -0.05,1.67 0.2,2.41 0.31,0.89 0.76,1.15 1.76,1.33z"/>
   <path class="fil0" d="M50.19 79.3c-0.63,-0.87 -0.36,-1.96 -0.79,-2.97 -0.47,-1.1 -2.05,-1.61 -2.44,-2.69 0.46,0.98 -0.1,2.61 0.26,3.7 0.53,1.57 1.52,1.99 2.96,1.96z"/>
   <path class="fil1" d="M49.51 78.7c-0.42,-0.59 -0.15,-1.21 -0.37,-1.92 -0.21,-0.68 -1.2,-0.99 -1.59,-1.81 0.09,0.8 -0.05,1.67 0.2,2.41 0.31,0.9 0.76,1.15 1.76,1.33z"/>
   <path class="fil0" d="M20.4 23.38c0.84,-0.63 1.87,-0.31 2.85,-0.72 1.06,-0.45 1.6,-2.1 2.64,-2.47 -0.95,0.45 -2.47,-0.2 -3.52,0.14 -1.51,0.5 -1.94,1.53 -1.97,3.05z"/>
   <path class="fil1" d="M21 22.68c0.58,-0.42 1.15,-0.11 1.84,-0.32 0.66,-0.2 0.98,-1.22 1.78,-1.61 -0.77,0.06 -1.58,-0.12 -2.29,0.13 -0.86,0.3 -1.12,0.76 -1.33,1.8z"/>
   <path class="fil0" d="M56.41 63.19c0.84,-0.63 1.87,-0.31 2.85,-0.73 1.06,-0.45 1.6,-2.1 2.64,-2.47 -0.95,0.45 -2.47,-0.2 -3.52,0.15 -1.51,0.5 -1.94,1.53 -1.97,3.05z"/>
   <path class="fil1" d="M57 62.49c0.58,-0.42 1.15,-0.12 1.84,-0.32 0.66,-0.2 0.98,-1.22 1.78,-1.62 -0.77,0.06 -1.58,-0.12 -2.29,0.13 -0.86,0.29 -1.12,0.76 -1.33,1.8z"/>
   <path class="fil0" d="M42.07 52.97c0.84,-0.63 1.87,-0.31 2.85,-0.73 1.07,-0.45 1.6,-2.1 2.64,-2.47 -0.95,0.46 -2.47,-0.2 -3.52,0.15 -1.51,0.5 -1.94,1.53 -1.97,3.05z"/>
   <path class="fil1" d="M42.66 52.28c0.58,-0.42 1.15,-0.11 1.84,-0.32 0.66,-0.2 0.98,-1.22 1.78,-1.61 -0.77,0.06 -1.58,-0.12 -2.29,0.13 -0.86,0.3 -1.12,0.77 -1.33,1.81z"/>
   <path class="fil0" d="M45.26 13.78c-0.59,-0.51 -0.28,-1.11 -0.67,-1.7 -0.42,-0.64 -1.98,-0.97 -2.32,-1.6 0.43,0.57 -0.21,1.46 0.11,2.08 0.46,0.9 1.44,1.17 2.88,1.21z"/>
   <path class="fil1" d="M44.6 13.42c-0.39,-0.35 -0.1,-0.68 -0.29,-1.09 -0.18,-0.39 -1.15,-0.6 -1.52,-1.08 0.05,0.45 -0.12,0.93 0.11,1.36 0.28,0.51 0.72,0.67 1.7,0.81z"/>
   <path class="fil0" d="M65.1 61.7c0.47,-0.63 1.05,-0.31 1.6,-0.72 0.6,-0.45 0.9,-2.1 1.48,-2.47 -0.53,0.46 -1.39,-0.2 -1.98,0.15 -0.85,0.5 -1.09,1.53 -1.11,3.05z"/>
   <path class="fil1" d="M65.43 61.01c0.33,-0.42 0.65,-0.11 1.03,-0.32 0.37,-0.2 0.55,-1.22 1,-1.62 -0.43,0.06 -0.89,-0.12 -1.29,0.13 -0.48,0.3 -0.63,0.76 -0.75,1.8z"/>
   <path class="fil0" d="M24.96 37.43c0.47,-0.63 1.05,-0.31 1.6,-0.72 0.6,-0.45 0.9,-2.1 1.48,-2.47 -0.53,0.46 -1.39,-0.2 -1.98,0.15 -0.85,0.5 -1.09,1.53 -1.11,3.05z"/>
   <path class="fil1" d="M25.3 36.73c0.33,-0.42 0.65,-0.11 1.03,-0.32 0.37,-0.2 0.55,-1.23 1,-1.61 -0.43,0.06 -0.89,-0.12 -1.29,0.13 -0.48,0.3 -0.63,0.76 -0.75,1.8z"/>
   <path class="fil0" d="M72.74 21.13c-0.63,-0.87 -0.36,-1.96 -0.79,-2.97 -0.47,-1.1 -2.05,-1.61 -2.44,-2.69 0.47,0.98 -0.1,2.61 0.26,3.7 0.53,1.57 1.52,1.99 2.96,1.96z"/>
   <path class="fil1" d="M72.06 20.52c-0.42,-0.59 -0.15,-1.21 -0.37,-1.92 -0.21,-0.69 -1.2,-0.99 -1.6,-1.82 0.09,0.8 -0.05,1.67 0.2,2.41 0.31,0.9 0.76,1.15 1.76,1.33z"/>
   <path class="fil0" d="M76.75 49.04c-0.63,-0.87 -0.36,-1.96 -0.79,-2.97 -0.47,-1.1 -2.05,-1.61 -2.44,-2.69 0.47,0.98 -0.1,2.61 0.26,3.7 0.53,1.57 1.52,1.99 2.96,1.96z"/>
   <path class="fil1" d="M76.07 48.44c-0.42,-0.59 -0.15,-1.21 -0.37,-1.93 -0.21,-0.68 -1.2,-0.99 -1.6,-1.81 0.09,0.8 -0.05,1.67 0.2,2.41 0.31,0.9 0.76,1.15 1.76,1.33z"/>
   <path class="fil0" d="M19.53 52.73c1.17,0.93 -0.39,1.86 -0.56,0.59 -0.34,1.55 -1.71,0.64 -0.73,-0.4 -1.3,0.6 -1.19,-1.73 0.11,-1.07 -0.31,-1.61 1.32,-1.33 0.81,0.03 1.21,-1.07 1.52,0.64 0.38,0.85z"/>
   <path class="fil0" d="M38.17 15.17c0.75,0.12 0.52,-0.82 0.01,-0.43 0.42,-0.69 -0.39,-0.9 -0.4,-0.14 -0.26,-0.72 -1.04,0.15 -0.34,0.43 -0.68,0.46 0,0.99 0.3,0.31 0.06,0.86 0.77,0.37 0.43,-0.16z"/>
   <path class="fil1" d="M57.32 8.15c0.46,-1.75 2.15,-0.22 0.9,0.53 1.51,-0.11 1.22,1.88 -0.19,1.16 1.04,1.02 -1.34,1.61 -1.07,0.05 -0.63,0.57 -1.31,0.46 -1.47,0.04 -0.15,-0.39 0.25,-0.86 0.96,-0.86 -0.81,-0.44 -0.75,-1.05 -0.56,-1.28 0.3,-0.36 1.1,-0.26 1.43,0.35z"/>
   <path class="fil0" d="M56.37 8.57c0.25,-0.93 1.12,-0.19 0.46,0.21 0.94,-0.15 0.75,0.91 -0.05,0.54 0.63,0.67 -0.68,1.14 -0.62,0.18 -0.82,0.56 -1.05,-0.5 -0.17,-0.5 -0.87,-0.5 0,-1.08 0.39,-0.43z"/>
   <path class="fil1" d="M35.29 43.88c0.5,0.35 -0.16,0.7 -0.24,0.22 -0.15,0.58 -0.73,0.24 -0.31,-0.15 -0.56,0.22 -0.51,-0.65 0.05,-0.4 -0.13,-0.6 0.56,-0.5 0.34,0.01 0.52,-0.4 0.65,0.24 0.16,0.32z"/>
   <path class="fil0" d="M64.67 1.38c0.2,-0.74 0.91,-0.09 0.38,0.22 0.64,-0.05 0.52,0.8 -0.08,0.49 0.44,0.43 -0.57,0.68 -0.46,0.02 -0.27,0.24 -0.55,0.2 -0.62,0.02 -0.07,-0.17 0.11,-0.36 0.4,-0.36 -0.34,-0.19 -0.32,-0.45 -0.24,-0.54 0.13,-0.15 0.47,-0.11 0.61,0.15z"/>
   <path class="fil0" d="M64.69 1.7c0.05,-0.2 0.25,-0.04 0.1,0.05 0.21,-0.03 0.16,0.2 -0.01,0.12 0.14,0.15 -0.15,0.25 -0.14,0.04 -0.18,0.12 -0.23,-0.11 -0.04,-0.11 -0.19,-0.11 0,-0.24 0.08,-0.1z"/>
   <path class="fil0" d="M86.19 5.03c0.2,-0.74 0.91,-0.09 0.38,0.23 0.64,-0.05 0.52,0.8 -0.08,0.49 0.44,0.43 -0.57,0.68 -0.45,0.02 -0.27,0.24 -0.55,0.2 -0.62,0.02 -0.06,-0.17 0.11,-0.36 0.4,-0.36 -0.34,-0.19 -0.32,-0.44 -0.24,-0.55 0.13,-0.15 0.47,-0.11 0.6,0.15z"/>
   <path class="fil0" d="M86.22 5.35c0.05,-0.2 0.25,-0.04 0.1,0.05 0.21,-0.03 0.16,0.2 -0.01,0.12 0.14,0.15 -0.15,0.25 -0.14,0.04 -0.18,0.12 -0.23,-0.11 -0.04,-0.11 -0.19,-0.11 0,-0.24 0.08,-0.09z"/>
   <path class="fil0" d="M93.46 13.16c0.2,-0.74 0.91,-0.09 0.38,0.23 0.64,-0.05 0.52,0.8 -0.08,0.49 0.44,0.43 -0.57,0.69 -0.46,0.02 -0.27,0.24 -0.55,0.2 -0.62,0.02 -0.07,-0.17 0.11,-0.37 0.4,-0.37 -0.34,-0.18 -0.32,-0.44 -0.24,-0.54 0.13,-0.15 0.47,-0.11 0.61,0.15z"/>
   <path class="fil0" d="M93.49 13.48c0.05,-0.2 0.25,-0.04 0.1,0.05 0.21,-0.03 0.16,0.2 -0.01,0.12 0.14,0.15 -0.15,0.25 -0.13,0.04 -0.18,0.12 -0.23,-0.11 -0.04,-0.11 -0.19,-0.11 0,-0.24 0.08,-0.09z"/>
   <path class="fil0" d="M96.07 22.25c0.2,-0.74 0.91,-0.09 0.38,0.23 0.64,-0.04 0.52,0.8 -0.08,0.49 0.44,0.43 -0.57,0.68 -0.45,0.02 -0.27,0.24 -0.55,0.19 -0.62,0.02 -0.07,-0.17 0.11,-0.36 0.4,-0.37 -0.34,-0.18 -0.32,-0.44 -0.24,-0.54 0.13,-0.15 0.47,-0.11 0.61,0.15z"/>
   <path class="fil0" d="M96.09 22.57c0.05,-0.2 0.25,-0.04 0.1,0.05 0.2,-0.03 0.16,0.2 -0.01,0.12 0.14,0.15 -0.15,0.25 -0.13,0.04 -0.18,0.12 -0.23,-0.11 -0.04,-0.11 -0.19,-0.11 0,-0.24 0.08,-0.09z"/>
   <path class="fil0" d="M94.27 34.42c0.2,-0.74 0.91,-0.09 0.38,0.22 0.64,-0.04 0.52,0.8 -0.08,0.49 0.44,0.43 -0.57,0.68 -0.45,0.02 -0.27,0.24 -0.55,0.19 -0.62,0.02 -0.07,-0.17 0.11,-0.36 0.4,-0.36 -0.34,-0.19 -0.32,-0.45 -0.24,-0.55 0.13,-0.15 0.47,-0.11 0.61,0.15z"/>
   <path class="fil0" d="M94.3 34.73c0.05,-0.21 0.25,-0.04 0.1,0.05 0.21,-0.03 0.17,0.2 -0.01,0.12 0.14,0.15 -0.15,0.25 -0.13,0.04 -0.18,0.13 -0.23,-0.11 -0.04,-0.11 -0.19,-0.11 0,-0.24 0.08,-0.09z"/>
   <path class="fil0" d="M80.18 31.29c0.2,-0.74 0.91,-0.1 0.38,0.23 0.64,-0.04 0.52,0.8 -0.08,0.49 0.44,0.43 -0.57,0.68 -0.45,0.02 -0.27,0.24 -0.55,0.2 -0.62,0.02 -0.07,-0.17 0.11,-0.36 0.4,-0.37 -0.34,-0.18 -0.32,-0.44 -0.24,-0.54 0.13,-0.15 0.47,-0.11 0.6,0.15z"/>
   <path class="fil0" d="M80.21 31.61c0.05,-0.21 0.25,-0.04 0.1,0.05 0.21,-0.03 0.17,0.2 -0.01,0.12 0.14,0.15 -0.15,0.25 -0.13,0.04 -0.18,0.12 -0.23,-0.11 -0.04,-0.11 -0.19,-0.11 0,-0.24 0.08,-0.09z"/>
   <path class="fil0" d="M51.84 12.86c0.2,-0.74 0.91,-0.09 0.38,0.22 0.64,-0.04 0.52,0.8 -0.08,0.49 0.44,0.43 -0.57,0.68 -0.45,0.02 -0.27,0.24 -0.55,0.19 -0.62,0.02 -0.07,-0.17 0.11,-0.37 0.4,-0.37 -0.34,-0.19 -0.32,-0.44 -0.24,-0.54 0.12,-0.15 0.47,-0.11 0.6,0.15z"/>
   <path class="fil0" d="M51.86 13.18c0.05,-0.2 0.25,-0.04 0.1,0.05 0.21,-0.03 0.16,0.2 -0.01,0.12 0.14,0.15 -0.15,0.25 -0.14,0.04 -0.18,0.12 -0.23,-0.11 -0.04,-0.11 -0.19,-0.11 0,-0.24 0.09,-0.09z"/>
   <path class="fil0" d="M46.75 15.16c0.2,-0.74 0.91,-0.09 0.38,0.23 0.64,-0.04 0.52,0.8 -0.08,0.49 0.44,0.43 -0.57,0.68 -0.46,0.02 -0.27,0.24 -0.55,0.2 -0.62,0.02 -0.07,-0.17 0.11,-0.36 0.4,-0.36 -0.34,-0.19 -0.32,-0.44 -0.24,-0.54 0.13,-0.15 0.47,-0.11 0.61,0.15z"/>
   <path class="fil0" d="M46.78 15.47c0.05,-0.2 0.25,-0.04 0.1,0.05 0.21,-0.03 0.16,0.2 -0.01,0.12 0.14,0.15 -0.15,0.25 -0.14,0.04 -0.18,0.12 -0.23,-0.11 -0.04,-0.11 -0.19,-0.11 0,-0.24 0.08,-0.1z"/>
   <path class="fil0" d="M52.45 24.93c0.2,-0.74 0.91,-0.09 0.38,0.22 0.64,-0.04 0.52,0.8 -0.08,0.49 0.44,0.43 -0.57,0.68 -0.45,0.02 -0.27,0.24 -0.55,0.2 -0.62,0.02 -0.07,-0.17 0.11,-0.36 0.4,-0.37 -0.34,-0.18 -0.32,-0.44 -0.24,-0.54 0.13,-0.15 0.47,-0.11 0.61,0.15z"/>
   <path class="fil0" d="M52.48 25.25c0.05,-0.21 0.25,-0.04 0.1,0.05 0.21,-0.03 0.16,0.2 -0.01,0.12 0.14,0.15 -0.15,0.25 -0.14,0.04 -0.18,0.12 -0.23,-0.11 -0.04,-0.11 -0.19,-0.11 0,-0.24 0.08,-0.09z"/>
   <path class="fil0" d="M66.15 26.05c0.2,-0.74 0.91,-0.09 0.38,0.23 0.64,-0.05 0.52,0.8 -0.08,0.49 0.44,0.43 -0.57,0.68 -0.45,0.02 -0.27,0.24 -0.55,0.2 -0.62,0.02 -0.07,-0.17 0.11,-0.36 0.41,-0.36 -0.34,-0.18 -0.32,-0.44 -0.24,-0.54 0.13,-0.15 0.47,-0.11 0.61,0.15z"/>
   <path class="fil0" d="M66.18 26.37c0.05,-0.21 0.25,-0.04 0.1,0.05 0.21,-0.03 0.16,0.2 -0.01,0.12 0.14,0.15 -0.15,0.25 -0.14,0.04 -0.18,0.12 -0.23,-0.11 -0.04,-0.11 -0.19,-0.11 0,-0.24 0.08,-0.09z"/>
   <path class="fil0" d="M58.83 40.89c0.2,-0.74 0.91,-0.09 0.38,0.23 0.64,-0.05 0.52,0.8 -0.08,0.49 0.44,0.43 -0.57,0.68 -0.46,0.02 -0.27,0.24 -0.55,0.2 -0.62,0.02 -0.07,-0.17 0.11,-0.37 0.41,-0.37 -0.34,-0.18 -0.32,-0.44 -0.24,-0.54 0.13,-0.15 0.47,-0.11 0.61,0.15z"/>
   <path class="fil0" d="M58.85 41.21c0.05,-0.21 0.25,-0.04 0.1,0.05 0.21,-0.03 0.16,0.2 -0.01,0.12 0.14,0.14 -0.15,0.25 -0.14,0.04 -0.18,0.12 -0.23,-0.11 -0.04,-0.11 -0.19,-0.11 0,-0.24 0.08,-0.09z"/>
   <path class="fil0" d="M67.99 10.15c0.2,-0.74 0.91,-0.09 0.38,0.23 0.64,-0.04 0.52,0.8 -0.08,0.49 0.44,0.43 -0.57,0.68 -0.45,0.02 -0.27,0.24 -0.56,0.2 -0.62,0.02 -0.07,-0.17 0.11,-0.36 0.41,-0.36 -0.34,-0.18 -0.32,-0.44 -0.24,-0.54 0.13,-0.15 0.47,-0.11 0.61,0.15z"/>
   <path class="fil0" d="M68.02 10.47c0.05,-0.2 0.25,-0.04 0.1,0.05 0.21,-0.03 0.16,0.2 -0.01,0.12 0.14,0.15 -0.15,0.25 -0.13,0.04 -0.18,0.12 -0.23,-0.11 -0.04,-0.11 -0.19,-0.11 0,-0.24 0.08,-0.09z"/>
   <path class="fil0" d="M41.31 7.76c0.2,-0.74 0.91,-0.09 0.38,0.22 0.64,-0.04 0.52,0.8 -0.08,0.49 0.44,0.43 -0.57,0.68 -0.45,0.02 -0.27,0.24 -0.55,0.19 -0.62,0.02 -0.07,-0.17 0.11,-0.36 0.4,-0.36 -0.34,-0.19 -0.32,-0.44 -0.24,-0.54 0.13,-0.15 0.47,-0.11 0.61,0.15z"/>
   <path class="fil0" d="M41.34 8.07c0.05,-0.21 0.25,-0.04 0.1,0.04 0.21,-0.03 0.16,0.2 -0.01,0.12 0.14,0.14 -0.15,0.25 -0.14,0.04 -0.18,0.12 -0.23,-0.11 -0.04,-0.11 -0.19,-0.11 0,-0.24 0.08,-0.09z"/>
   <path class="fil0" d="M34.83 3.04c0.2,-0.74 0.91,-0.09 0.38,0.23 0.64,-0.05 0.52,0.8 -0.08,0.49 0.44,0.43 -0.57,0.68 -0.46,0.02 -0.27,0.24 -0.55,0.2 -0.62,0.02 -0.07,-0.17 0.11,-0.36 0.4,-0.37 -0.34,-0.18 -0.32,-0.44 -0.24,-0.54 0.13,-0.15 0.47,-0.11 0.61,0.15z"/>
   <path class="fil0" d="M34.86 3.36c0.05,-0.2 0.25,-0.04 0.1,0.05 0.21,-0.03 0.16,0.2 -0.01,0.12 0.14,0.14 -0.15,0.25 -0.14,0.04 -0.18,0.12 -0.23,-0.11 -0.04,-0.11 -0.19,-0.11 0,-0.24 0.08,-0.09z"/>
   <path class="fil0" d="M22.64 15.17c0.2,-0.74 0.91,-0.09 0.38,0.23 0.64,-0.04 0.52,0.8 -0.08,0.49 0.44,0.43 -0.57,0.68 -0.45,0.02 -0.27,0.24 -0.55,0.2 -0.62,0.02 -0.07,-0.16 0.11,-0.36 0.41,-0.36 -0.34,-0.18 -0.32,-0.44 -0.24,-0.54 0.13,-0.15 0.47,-0.11 0.61,0.15z"/>
   <path class="fil0" d="M22.67 15.49c0.05,-0.21 0.25,-0.04 0.1,0.05 0.21,-0.03 0.16,0.2 -0.01,0.12 0.14,0.15 -0.15,0.25 -0.14,0.04 -0.18,0.12 -0.23,-0.11 -0.04,-0.11 -0.19,-0.11 0,-0.24 0.08,-0.09z"/>
   <path class="fil0" d="M11.19 5.77c0.2,-0.74 0.91,-0.1 0.38,0.22 0.64,-0.04 0.52,0.8 -0.08,0.49 0.44,0.43 -0.57,0.68 -0.45,0.02 -0.27,0.24 -0.55,0.2 -0.62,0.02 -0.07,-0.17 0.11,-0.36 0.4,-0.36 -0.34,-0.18 -0.32,-0.44 -0.24,-0.54 0.13,-0.15 0.47,-0.11 0.61,0.15z"/>
   <path class="fil0" d="M11.21 6.09c0.05,-0.2 0.25,-0.04 0.1,0.05 0.21,-0.03 0.16,0.2 -0.01,0.12 0.14,0.15 -0.15,0.25 -0.14,0.04 -0.18,0.12 -0.23,-0.11 -0.04,-0.11 -0.19,-0.11 0,-0.24 0.08,-0.1z"/>
   <path class="fil0" d="M15.99 3.3c0.2,-0.74 0.91,-0.09 0.38,0.23 0.64,-0.04 0.52,0.8 -0.08,0.49 0.44,0.43 -0.57,0.68 -0.45,0.02 -0.27,0.24 -0.55,0.19 -0.62,0.02 -0.07,-0.17 0.11,-0.36 0.4,-0.37 -0.34,-0.18 -0.32,-0.44 -0.24,-0.54 0.13,-0.15 0.47,-0.11 0.6,0.15z"/>
   <path class="fil0" d="M16.02 3.62c0.06,-0.2 0.25,-0.04 0.1,0.05 0.21,-0.03 0.16,0.2 -0.01,0.12 0.14,0.15 -0.15,0.25 -0.14,0.04 -0.18,0.12 -0.23,-0.11 -0.04,-0.11 -0.19,-0.11 0,-0.24 0.08,-0.09z"/>
   <path class="fil0" d="M5.15 11.55c0.2,-0.75 0.91,-0.1 0.38,0.22 0.64,-0.04 0.52,0.8 -0.08,0.49 0.44,0.43 -0.57,0.68 -0.46,0.02 -0.27,0.24 -0.55,0.2 -0.62,0.02 -0.07,-0.17 0.11,-0.36 0.4,-0.36 -0.34,-0.19 -0.32,-0.44 -0.24,-0.54 0.13,-0.15 0.47,-0.11 0.61,0.15z"/>
   <path class="fil0" d="M5.17 11.86c0.05,-0.2 0.25,-0.04 0.1,0.05 0.21,-0.03 0.16,0.2 -0.01,0.12 0.14,0.15 -0.15,0.25 -0.14,0.04 -0.18,0.12 -0.23,-0.11 -0.04,-0.11 -0.19,-0.11 0,-0.24 0.08,-0.1z"/>
   <path class="fil0" d="M29.3 36.04c0.2,-0.75 0.91,-0.09 0.38,0.22 0.64,-0.04 0.52,0.8 -0.08,0.49 0.44,0.43 -0.57,0.68 -0.46,0.02 -0.27,0.24 -0.55,0.2 -0.62,0.02 -0.06,-0.17 0.11,-0.36 0.4,-0.36 -0.34,-0.19 -0.32,-0.45 -0.24,-0.54 0.13,-0.15 0.47,-0.11 0.61,0.15z"/>
   <path class="fil0" d="M29.33 36.36c0.05,-0.21 0.25,-0.04 0.1,0.04 0.21,-0.03 0.16,0.2 -0.01,0.12 0.14,0.15 -0.15,0.25 -0.14,0.04 -0.18,0.12 -0.23,-0.11 -0.04,-0.11 -0.19,-0.11 0,-0.24 0.08,-0.09z"/>
   <path class="fil0" d="M0.79 28.27c0.2,-0.74 0.91,-0.09 0.38,0.23 0.64,-0.05 0.52,0.8 -0.08,0.49 0.44,0.43 -0.57,0.68 -0.45,0.02 -0.27,0.24 -0.55,0.2 -0.62,0.02 -0.06,-0.17 0.11,-0.36 0.41,-0.36 -0.34,-0.18 -0.32,-0.44 -0.24,-0.54 0.13,-0.15 0.47,-0.11 0.61,0.15z"/>
   <path class="fil0" d="M0.81 28.59c0.05,-0.2 0.25,-0.04 0.1,0.05 0.21,-0.03 0.16,0.2 -0.01,0.12 0.14,0.15 -0.15,0.25 -0.14,0.04 -0.18,0.12 -0.23,-0.11 -0.04,-0.11 -0.19,-0.11 0,-0.24 0.08,-0.1z"/>
   <path class="fil0" d="M2.35 35.1c0.2,-0.74 0.91,-0.09 0.38,0.23 0.64,-0.05 0.52,0.8 -0.08,0.49 0.44,0.43 -0.57,0.68 -0.45,0.02 -0.27,0.24 -0.55,0.2 -0.62,0.02 -0.07,-0.17 0.11,-0.36 0.4,-0.37 -0.34,-0.18 -0.32,-0.44 -0.24,-0.54 0.13,-0.15 0.47,-0.11 0.61,0.15z"/>
   <path class="fil0" d="M2.38 35.42c0.05,-0.21 0.25,-0.04 0.1,0.04 0.21,-0.03 0.16,0.2 -0.01,0.12 0.14,0.14 -0.15,0.25 -0.14,0.04 -0.18,0.12 -0.23,-0.11 -0.04,-0.11 -0.19,-0.11 0,-0.24 0.08,-0.09z"/>
   <path class="fil0" d="M8.28 45c0.2,-0.74 0.91,-0.1 0.38,0.22 0.64,-0.04 0.52,0.8 -0.08,0.49 0.44,0.43 -0.57,0.68 -0.45,0.02 -0.27,0.24 -0.55,0.2 -0.62,0.02 -0.06,-0.17 0.11,-0.36 0.41,-0.36 -0.34,-0.19 -0.32,-0.44 -0.24,-0.54 0.13,-0.15 0.47,-0.11 0.61,0.15z"/>
   <path class="fil0" d="M8.31 45.31c0.05,-0.2 0.25,-0.04 0.1,0.05 0.2,-0.03 0.16,0.2 -0.01,0.12 0.14,0.15 -0.15,0.25 -0.14,0.04 -0.18,0.12 -0.23,-0.11 -0.04,-0.11 -0.19,-0.11 0,-0.24 0.08,-0.09z"/>
   <path class="fil0" d="M8.73 41.46c0.2,-0.74 0.91,-0.09 0.38,0.23 0.64,-0.04 0.52,0.8 -0.08,0.49 0.44,0.43 -0.57,0.68 -0.46,0.02 -0.27,0.24 -0.55,0.2 -0.62,0.02 -0.07,-0.17 0.11,-0.36 0.4,-0.36 -0.34,-0.19 -0.32,-0.45 -0.24,-0.54 0.13,-0.15 0.47,-0.11 0.61,0.15z"/>
   <path class="fil0" d="M8.75 41.78c0.05,-0.2 0.25,-0.04 0.1,0.05 0.21,-0.03 0.16,0.2 -0.01,0.12 0.14,0.15 -0.15,0.25 -0.14,0.04 -0.18,0.12 -0.23,-0.11 -0.04,-0.11 -0.19,-0.11 0,-0.24 0.08,-0.1z"/>
   <path class="fil0" d="M4.25 39.11c0.2,-0.74 0.91,-0.09 0.38,0.22 0.64,-0.04 0.52,0.8 -0.08,0.49 0.44,0.43 -0.57,0.68 -0.45,0.02 -0.27,0.24 -0.55,0.2 -0.62,0.02 -0.07,-0.17 0.11,-0.37 0.4,-0.37 -0.34,-0.18 -0.32,-0.44 -0.24,-0.54 0.13,-0.15 0.47,-0.11 0.61,0.15z"/>
   <path class="fil0" d="M4.28 39.42c0.05,-0.2 0.25,-0.04 0.1,0.05 0.21,-0.03 0.16,0.2 -0.01,0.12 0.14,0.15 -0.15,0.25 -0.14,0.04 -0.18,0.12 -0.23,-0.11 -0.04,-0.11 -0.19,-0.11 0,-0.24 0.08,-0.09z"/>
   <path class="fil0" d="M11.41 48.53c0.2,-0.74 0.91,-0.09 0.38,0.23 0.64,-0.05 0.52,0.8 -0.08,0.49 0.44,0.43 -0.57,0.68 -0.46,0.02 -0.27,0.24 -0.55,0.2 -0.62,0.02 -0.07,-0.17 0.11,-0.36 0.4,-0.37 -0.34,-0.19 -0.32,-0.44 -0.24,-0.54 0.13,-0.15 0.47,-0.11 0.61,0.15z"/>
   <path class="fil0" d="M11.44 48.85c0.05,-0.2 0.25,-0.04 0.1,0.05 0.21,-0.03 0.16,0.2 -0.01,0.12 0.14,0.15 -0.15,0.25 -0.14,0.04 -0.18,0.12 -0.23,-0.11 -0.04,-0.11 -0.19,-0.11 0,-0.24 0.08,-0.09z"/>
   <path class="fil0" d="M14.76 51.83c0.2,-0.74 0.91,-0.1 0.38,0.23 0.64,-0.05 0.52,0.8 -0.08,0.49 0.44,0.43 -0.57,0.68 -0.45,0.02 -0.27,0.24 -0.56,0.2 -0.62,0.02 -0.07,-0.17 0.11,-0.37 0.4,-0.37 -0.34,-0.18 -0.32,-0.44 -0.24,-0.54 0.13,-0.15 0.47,-0.11 0.61,0.15z"/>
   <path class="fil0" d="M14.79 52.14c0.05,-0.2 0.25,-0.04 0.1,0.05 0.2,-0.03 0.16,0.2 -0.01,0.12 0.14,0.15 -0.15,0.25 -0.14,0.04 -0.18,0.12 -0.23,-0.11 -0.04,-0.11 -0.19,-0.11 0,-0.24 0.08,-0.09z"/>
   <path class="fil0" d="M25.16 60.31c0.2,-0.74 0.91,-0.09 0.38,0.22 0.64,-0.05 0.52,0.8 -0.08,0.5 0.44,0.43 -0.57,0.68 -0.45,0.02 -0.27,0.24 -0.55,0.2 -0.62,0.02 -0.07,-0.17 0.11,-0.36 0.4,-0.36 -0.34,-0.19 -0.32,-0.44 -0.24,-0.55 0.13,-0.15 0.47,-0.11 0.61,0.15z"/>
   <path class="fil0" d="M25.19 60.62c0.05,-0.21 0.24,-0.04 0.1,0.05 0.21,-0.03 0.16,0.2 -0.01,0.12 0.14,0.15 -0.15,0.25 -0.14,0.04 -0.18,0.12 -0.23,-0.11 -0.04,-0.11 -0.19,-0.11 0,-0.23 0.08,-0.09z"/>
   <path class="fil0" d="M39.7 72.08c0.2,-0.74 0.91,-0.09 0.38,0.23 0.64,-0.05 0.52,0.8 -0.08,0.49 0.44,0.43 -0.57,0.68 -0.46,0.02 -0.27,0.24 -0.55,0.2 -0.62,0.02 -0.07,-0.17 0.11,-0.37 0.4,-0.37 -0.34,-0.18 -0.32,-0.44 -0.24,-0.54 0.13,-0.15 0.47,-0.11 0.61,0.15z"/>
   <path class="fil0" d="M39.73 72.4c0.05,-0.2 0.25,-0.04 0.1,0.05 0.21,-0.03 0.16,0.2 -0.01,0.12 0.14,0.14 -0.15,0.25 -0.14,0.04 -0.18,0.12 -0.23,-0.11 -0.04,-0.11 -0.19,-0.11 0,-0.24 0.08,-0.09z"/>
   <path class="fil0" d="M45.52 78.45c0.2,-0.74 0.91,-0.1 0.38,0.23 0.64,-0.05 0.52,0.8 -0.08,0.49 0.44,0.43 -0.57,0.68 -0.46,0.02 -0.27,0.24 -0.55,0.19 -0.62,0.02 -0.07,-0.17 0.11,-0.36 0.4,-0.36 -0.34,-0.19 -0.32,-0.45 -0.24,-0.54 0.13,-0.15 0.47,-0.11 0.61,0.15z"/>
   <path class="fil0" d="M45.54 78.76c0.05,-0.2 0.25,-0.04 0.1,0.05 0.2,-0.03 0.16,0.2 -0.01,0.12 0.14,0.15 -0.15,0.25 -0.13,0.04 -0.18,0.12 -0.23,-0.11 -0.04,-0.11 -0.19,-0.11 0,-0.24 0.08,-0.1z"/>
   <path class="fil0" d="M62.47 69.8c0.2,-0.74 0.91,-0.09 0.38,0.23 0.64,-0.05 0.52,0.8 -0.08,0.49 0.44,0.43 -0.57,0.69 -0.45,0.02 -0.27,0.24 -0.55,0.2 -0.62,0.02 -0.07,-0.17 0.11,-0.36 0.4,-0.37 -0.34,-0.18 -0.32,-0.44 -0.24,-0.54 0.13,-0.15 0.47,-0.11 0.61,0.15z"/>
   <path class="fil0" d="M62.5 70.12c0.05,-0.2 0.25,-0.04 0.1,0.04 0.21,-0.03 0.16,0.2 -0.01,0.12 0.14,0.15 -0.15,0.25 -0.13,0.04 -0.18,0.12 -0.23,-0.11 -0.04,-0.11 -0.19,-0.11 0,-0.24 0.08,-0.09z"/>
   <path class="fil0" d="M31.19 39.84c0.2,-0.74 0.91,-0.09 0.38,0.23 0.64,-0.05 0.52,0.8 -0.08,0.49 0.44,0.43 -0.57,0.68 -0.45,0.02 -0.27,0.24 -0.56,0.2 -0.62,0.02 -0.07,-0.17 0.11,-0.36 0.4,-0.37 -0.34,-0.18 -0.32,-0.44 -0.24,-0.54 0.13,-0.15 0.47,-0.11 0.61,0.15z"/>
   <path class="fil0" d="M31.22 40.16c0.05,-0.21 0.25,-0.04 0.1,0.04 0.2,-0.03 0.16,0.2 -0.01,0.12 0.14,0.15 -0.15,0.25 -0.13,0.04 -0.18,0.12 -0.23,-0.11 -0.04,-0.11 -0.19,-0.11 0,-0.24 0.08,-0.09z"/>
   <path class="fil0" d="M48.41 25.47c0.2,-0.74 0.91,-0.09 0.38,0.23 0.64,-0.05 0.52,0.8 -0.08,0.49 0.44,0.43 -0.57,0.68 -0.46,0.02 -0.27,0.24 -0.55,0.19 -0.62,0.02 -0.07,-0.17 0.11,-0.36 0.4,-0.36 -0.34,-0.19 -0.32,-0.45 -0.24,-0.55 0.13,-0.15 0.47,-0.11 0.61,0.15z"/>
   <path class="fil0" d="M48.44 25.79c0.05,-0.2 0.25,-0.04 0.1,0.05 0.21,-0.03 0.16,0.2 -0.01,0.12 0.14,0.15 -0.15,0.25 -0.14,0.04 -0.18,0.12 -0.23,-0.11 -0.04,-0.11 -0.19,-0.11 0,-0.24 0.09,-0.09z"/>
   <path class="fil0" d="M34.32 21.82c0.2,-0.74 0.91,-0.09 0.38,0.23 0.64,-0.04 0.52,0.8 -0.08,0.49 0.44,0.43 -0.57,0.68 -0.46,0.02 -0.27,0.24 -0.55,0.2 -0.62,0.02 -0.07,-0.17 0.11,-0.37 0.4,-0.37 -0.34,-0.18 -0.32,-0.44 -0.24,-0.54 0.13,-0.15 0.47,-0.11 0.61,0.15z"/>
   <path class="fil0" d="M34.35 22.14c0.05,-0.2 0.25,-0.04 0.1,0.05 0.21,-0.03 0.16,0.2 -0.01,0.12 0.14,0.15 -0.15,0.25 -0.14,0.04 -0.18,0.12 -0.23,-0.11 -0.04,-0.11 -0.19,-0.11 0,-0.24 0.08,-0.09z"/>
   <path class="fil0" d="M57.36 57.39c0.2,-0.74 0.91,-0.09 0.38,0.22 0.64,-0.04 0.52,0.8 -0.08,0.49 0.44,0.43 -0.57,0.68 -0.46,0.02 -0.27,0.24 -0.55,0.2 -0.62,0.02 -0.06,-0.17 0.11,-0.37 0.4,-0.37 -0.34,-0.18 -0.32,-0.44 -0.24,-0.54 0.13,-0.15 0.47,-0.11 0.61,0.15z"/>
   <path class="fil0" d="M57.38 57.7c0.05,-0.2 0.25,-0.04 0.1,0.05 0.21,-0.03 0.16,0.2 -0.01,0.12 0.14,0.15 -0.15,0.25 -0.14,0.04 -0.18,0.12 -0.23,-0.11 -0.04,-0.11 -0.19,-0.11 0,-0.24 0.08,-0.09z"/>
   <path class="fil0" d="M29.28 63.53c0.2,-0.74 0.91,-0.09 0.38,0.22 0.64,-0.04 0.52,0.8 -0.08,0.49 0.44,0.43 -0.57,0.68 -0.45,0.02 -0.27,0.24 -0.55,0.2 -0.62,0.02 -0.07,-0.17 0.11,-0.37 0.4,-0.37 -0.34,-0.19 -0.32,-0.44 -0.24,-0.54 0.13,-0.15 0.47,-0.11 0.61,0.15z"/>
   <path class="fil0" d="M32.92 59.76c0.2,-0.74 0.91,-0.09 0.38,0.22 0.64,-0.04 0.52,0.8 -0.08,0.49 0.44,0.43 -0.57,0.68 -0.45,0.02 -0.27,0.24 -0.55,0.2 -0.62,0.02 -0.06,-0.17 0.11,-0.36 0.4,-0.36 -0.34,-0.18 -0.32,-0.45 -0.24,-0.54 0.13,-0.15 0.47,-0.11 0.61,0.15z"/>
   <path class="fil0" d="M1.21 31.67c0.2,-0.74 0.91,-0.09 0.38,0.22 0.64,-0.05 0.52,0.8 -0.08,0.49 0.44,0.43 -0.57,0.68 -0.45,0.02 -0.27,0.24 -0.55,0.2 -0.62,0.02 -0.07,-0.17 0.11,-0.36 0.4,-0.36 -0.34,-0.18 -0.32,-0.44 -0.24,-0.54 0.13,-0.15 0.47,-0.11 0.61,0.15z"/>
   <path class="fil0" d="M3.23 14.71c0.2,-0.74 0.91,-0.09 0.38,0.22 0.64,-0.05 0.52,0.8 -0.08,0.49 0.44,0.43 -0.57,0.68 -0.45,0.02 -0.27,0.24 -0.55,0.19 -0.62,0.02 -0.06,-0.17 0.11,-0.36 0.4,-0.36 -0.34,-0.19 -0.32,-0.45 -0.24,-0.54 0.13,-0.15 0.47,-0.11 0.6,0.15z"/>
   <path class="fil0" d="M55.45 76.78c0.2,-0.74 0.91,-0.1 0.38,0.22 0.64,-0.05 0.52,0.8 -0.08,0.49 0.44,0.43 -0.57,0.68 -0.45,0.02 -0.27,0.24 -0.55,0.2 -0.62,0.02 -0.07,-0.17 0.11,-0.37 0.4,-0.37 -0.34,-0.19 -0.32,-0.44 -0.24,-0.54 0.13,-0.15 0.47,-0.11 0.61,0.15z"/>
   <path class="fil0" d="M49.86 73.49c0.2,-0.74 0.91,-0.09 0.38,0.22 0.64,-0.04 0.52,0.8 -0.08,0.49 0.44,0.43 -0.57,0.68 -0.45,0.02 -0.27,0.24 -0.55,0.2 -0.62,0.02 -0.07,-0.17 0.11,-0.36 0.41,-0.36 -0.34,-0.18 -0.32,-0.44 -0.24,-0.54 0.13,-0.15 0.47,-0.11 0.61,0.15z"/>
   <path class="fil0" d="M44.04 61.24c0.2,-0.74 0.91,-0.1 0.38,0.23 0.64,-0.05 0.52,0.8 -0.08,0.49 0.44,0.43 -0.57,0.68 -0.45,0.02 -0.27,0.24 -0.55,0.2 -0.62,0.02 -0.07,-0.17 0.11,-0.37 0.4,-0.37 -0.34,-0.18 -0.32,-0.44 -0.24,-0.54 0.13,-0.15 0.47,-0.11 0.61,0.15z"/>
   <path class="fil0" d="M82.51 52.87c0.2,-0.74 0.91,-0.09 0.38,0.23 0.64,-0.05 0.52,0.8 -0.08,0.49 0.44,0.43 -0.57,0.68 -0.45,0.02 -0.27,0.24 -0.55,0.19 -0.62,0.02 -0.07,-0.17 0.11,-0.37 0.4,-0.37 -0.34,-0.19 -0.32,-0.44 -0.24,-0.55 0.13,-0.15 0.47,-0.11 0.61,0.15z"/>
   <path class="fil0" d="M89.77 43.92c0.2,-0.74 0.91,-0.09 0.38,0.23 0.64,-0.05 0.52,0.8 -0.08,0.49 0.44,0.43 -0.57,0.68 -0.46,0.02 -0.27,0.24 -0.55,0.2 -0.62,0.02 -0.07,-0.17 0.11,-0.36 0.4,-0.37 -0.34,-0.18 -0.32,-0.44 -0.24,-0.54 0.13,-0.15 0.47,-0.11 0.61,0.15z"/>
   <path class="fil0" d="M95.92 26.49c0.2,-0.74 0.91,-0.1 0.38,0.22 0.64,-0.04 0.52,0.8 -0.08,0.49 0.44,0.43 -0.57,0.68 -0.45,0.02 -0.27,0.24 -0.55,0.2 -0.62,0.02 -0.07,-0.17 0.11,-0.36 0.4,-0.36 -0.34,-0.19 -0.32,-0.45 -0.24,-0.54 0.13,-0.15 0.47,-0.11 0.6,0.15z"/>
   <path class="fil0" d="M66.52 53.23c0.2,-0.74 0.91,-0.09 0.38,0.23 0.64,-0.05 0.52,0.8 -0.08,0.49 0.44,0.43 -0.57,0.68 -0.45,0.02 -0.27,0.24 -0.55,0.2 -0.62,0.02 -0.07,-0.17 0.11,-0.36 0.4,-0.37 -0.34,-0.18 -0.32,-0.44 -0.24,-0.54 0.13,-0.15 0.47,-0.11 0.61,0.15z"/>
   <path class="fil0" d="M59.4 50.17c0.2,-0.74 0.91,-0.09 0.38,0.23 0.64,-0.05 0.52,0.8 -0.08,0.49 0.44,0.43 -0.57,0.68 -0.45,0.02 -0.27,0.24 -0.55,0.2 -0.62,0.02 -0.07,-0.17 0.11,-0.37 0.4,-0.37 -0.34,-0.19 -0.32,-0.44 -0.24,-0.54 0.13,-0.15 0.47,-0.11 0.61,0.15z"/>
   <path class="fil0" d="M91.9 10.83c0.2,-0.74 0.91,-0.09 0.38,0.23 0.64,-0.04 0.52,0.8 -0.08,0.49 0.44,0.43 -0.57,0.68 -0.46,0.02 -0.27,0.24 -0.55,0.2 -0.62,0.02 -0.07,-0.17 0.11,-0.36 0.4,-0.36 -0.34,-0.18 -0.32,-0.45 -0.24,-0.54 0.12,-0.15 0.47,-0.11 0.6,0.15z"/>
   <path class="fil0" d="M90.22 8.7c0.2,-0.74 0.91,-0.09 0.38,0.23 0.64,-0.05 0.52,0.8 -0.08,0.49 0.44,0.43 -0.57,0.68 -0.45,0.02 -0.27,0.24 -0.55,0.2 -0.62,0.02 -0.07,-0.17 0.11,-0.36 0.4,-0.36 -0.34,-0.18 -0.32,-0.44 -0.24,-0.54 0.13,-0.15 0.47,-0.11 0.61,0.15z"/>
   <path class="fil0" d="M74.46 0.34c0.2,-0.74 0.91,-0.09 0.38,0.23 0.64,-0.04 0.52,0.8 -0.08,0.49 0.44,0.43 -0.57,0.68 -0.45,0.02 -0.27,0.24 -0.55,0.19 -0.62,0.02 -0.07,-0.17 0.11,-0.36 0.41,-0.36 -0.34,-0.19 -0.32,-0.45 -0.24,-0.54 0.13,-0.15 0.47,-0.11 0.61,0.15z"/>
   <path class="fil0" d="M58.24 5.06c0.2,-0.74 0.91,-0.09 0.38,0.22 0.64,-0.05 0.52,0.8 -0.08,0.49 0.44,0.43 -0.57,0.68 -0.46,0.02 -0.27,0.24 -0.55,0.2 -0.62,0.02 -0.07,-0.17 0.11,-0.36 0.4,-0.36 -0.34,-0.19 -0.32,-0.45 -0.24,-0.54 0.13,-0.15 0.47,-0.11 0.61,0.15z"/>
   <path class="fil0" d="M31.74 1.76c0.2,-0.74 0.91,-0.09 0.38,0.22 0.64,-0.04 0.52,0.8 -0.08,0.5 0.44,0.43 -0.57,0.68 -0.46,0.02 -0.27,0.24 -0.55,0.19 -0.62,0.02 -0.07,-0.17 0.11,-0.36 0.4,-0.36 -0.34,-0.18 -0.32,-0.45 -0.24,-0.54 0.13,-0.15 0.47,-0.11 0.61,0.15z"/>
   <path class="fil0" d="M23.47 18.01c0.2,-0.74 0.91,-0.09 0.38,0.22 0.64,-0.04 0.52,0.8 -0.08,0.49 0.44,0.43 -0.57,0.68 -0.45,0.02 -0.27,0.24 -0.55,0.19 -0.62,0.02 -0.06,-0.17 0.11,-0.36 0.4,-0.36 -0.34,-0.19 -0.32,-0.44 -0.24,-0.54 0.13,-0.15 0.47,-0.11 0.61,0.15z"/>
   <path class="fil0" d="M32.08 16.72c0.2,-0.74 0.91,-0.09 0.38,0.22 0.64,-0.04 0.52,0.8 -0.08,0.49 0.44,0.43 -0.57,0.69 -0.45,0.02 -0.27,0.24 -0.55,0.2 -0.62,0.02 -0.07,-0.17 0.11,-0.36 0.4,-0.36 -0.34,-0.19 -0.32,-0.44 -0.24,-0.54 0.13,-0.15 0.47,-0.11 0.61,0.15z"/>
   <path class="fil0" d="M42.36 21.9c0.2,-0.74 0.91,-0.09 0.38,0.23 0.64,-0.05 0.52,0.8 -0.08,0.49 0.44,0.43 -0.57,0.68 -0.45,0.02 -0.27,0.24 -0.55,0.2 -0.62,0.02 -0.07,-0.17 0.11,-0.36 0.4,-0.36 -0.34,-0.19 -0.32,-0.45 -0.24,-0.54 0.13,-0.15 0.47,-0.11 0.61,0.15z"/>
   <path class="fil0" d="M44.38 18.36c0.2,-0.74 0.91,-0.1 0.38,0.23 0.64,-0.05 0.52,0.8 -0.08,0.49 0.44,0.43 -0.57,0.68 -0.45,0.02 -0.27,0.24 -0.55,0.2 -0.62,0.02 -0.07,-0.17 0.11,-0.36 0.4,-0.36 -0.34,-0.19 -0.32,-0.44 -0.24,-0.54 0.13,-0.15 0.47,-0.11 0.61,0.15z"/>
   <path class="fil0" d="M53.21 27.79c0.2,-0.74 0.91,-0.1 0.38,0.22 0.64,-0.04 0.52,0.8 -0.08,0.49 0.44,0.43 -0.57,0.68 -0.45,0.02 -0.27,0.24 -0.55,0.2 -0.62,0.02 -0.06,-0.17 0.11,-0.36 0.4,-0.36 -0.34,-0.19 -0.32,-0.44 -0.24,-0.54 0.13,-0.15 0.47,-0.11 0.61,0.15z"/>
   <path class="fil0" d="M58.58 12.47c0.2,-0.74 0.91,-0.09 0.38,0.23 0.64,-0.05 0.52,0.8 -0.08,0.49 0.44,0.43 -0.57,0.68 -0.45,0.02 -0.27,0.24 -0.55,0.19 -0.62,0.02 -0.06,-0.17 0.11,-0.36 0.4,-0.37 -0.34,-0.18 -0.32,-0.44 -0.24,-0.54 0.13,-0.15 0.47,-0.11 0.6,0.15z"/>
   <path class="fil0" d="M74.79 19.31c0.2,-0.74 0.91,-0.09 0.38,0.22 0.64,-0.04 0.52,0.8 -0.08,0.49 0.44,0.43 -0.57,0.68 -0.45,0.02 -0.27,0.24 -0.55,0.2 -0.62,0.02 -0.07,-0.17 0.11,-0.37 0.4,-0.37 -0.34,-0.19 -0.32,-0.45 -0.24,-0.55 0.13,-0.15 0.47,-0.11 0.61,0.15z"/>
   <path class="fil0" d="M86.53 16.48c0.2,-0.74 0.91,-0.09 0.38,0.23 0.64,-0.05 0.52,0.8 -0.08,0.49 0.44,0.43 -0.57,0.68 -0.45,0.02 -0.27,0.24 -0.55,0.2 -0.62,0.02 -0.07,-0.17 0.11,-0.37 0.4,-0.37 -0.34,-0.19 -0.32,-0.44 -0.24,-0.54 0.12,-0.15 0.47,-0.11 0.61,0.15z"/>
   <path class="fil0" d="M26.82 38.74c0.2,-0.74 0.91,-0.09 0.38,0.22 0.64,-0.04 0.52,0.8 -0.08,0.49 0.44,0.43 -0.57,0.68 -0.45,0.02 -0.27,0.24 -0.55,0.2 -0.62,0.02 -0.07,-0.17 0.11,-0.37 0.4,-0.37 -0.34,-0.18 -0.32,-0.44 -0.24,-0.54 0.13,-0.15 0.47,-0.11 0.61,0.15z"/>
   <path class="fil0" d="M21.54 44.04c0.18,-0.74 0.81,-0.09 0.34,0.22 0.57,-0.04 0.46,0.8 -0.07,0.49 0.39,0.43 -0.51,0.68 -0.4,0.02 -0.24,0.24 -0.49,0.19 -0.56,0.02 -0.06,-0.17 0.1,-0.36 0.36,-0.36 -0.3,-0.19 -0.28,-0.44 -0.21,-0.54 0.11,-0.15 0.42,-0.11 0.54,0.15z"/>
   <path class="fil0" d="M22.3 39.17c0.39,-1.47 1.8,-0.19 0.76,0.45 1.26,-0.09 1.02,1.57 -0.16,0.97 0.87,0.85 -1.12,1.35 -0.9,0.04 -0.53,0.48 -1.09,0.39 -1.23,0.04 -0.13,-0.33 0.21,-0.72 0.8,-0.72 -0.67,-0.37 -0.63,-0.88 -0.47,-1.07 0.25,-0.3 0.92,-0.22 1.2,0.3z"/>
   <path class="fil1" d="M22.31 39.34c0.3,-1.14 1.4,-0.14 0.59,0.35 0.98,-0.07 0.8,1.23 -0.12,0.76 0.68,0.66 -0.87,1.05 -0.7,0.04 -0.41,0.37 -0.85,0.3 -0.96,0.03 -0.1,-0.26 0.17,-0.56 0.62,-0.56 -0.52,-0.28 -0.49,-0.68 -0.36,-0.84 0.19,-0.23 0.72,-0.17 0.93,0.23z"/>
   <path class="fil0" d="M22.35 39.83c0.08,-0.32 0.38,-0.06 0.15,0.07 0.32,-0.05 0.25,0.3 -0.02,0.18 0.21,0.22 -0.23,0.38 -0.21,0.06 -0.27,0.19 -0.35,-0.17 -0.06,-0.17 -0.29,-0.17 0,-0.36 0.13,-0.14z"/>
   <path class="fil0" d="M60.96 27.41c0.53,-2.01 2.46,-0.25 1.03,0.61 1.72,-0.12 1.4,2.15 -0.21,1.33 1.19,1.16 -1.53,1.84 -1.23,0.06 -0.72,0.65 -1.5,0.53 -1.68,0.05 -0.18,-0.45 0.29,-0.98 1.09,-0.98 -0.92,-0.5 -0.86,-1.2 -0.64,-1.47 0.34,-0.41 1.26,-0.3 1.64,0.4z"/>
   <path class="fil1" d="M60.97 27.64c0.41,-1.56 1.91,-0.2 0.8,0.47 1.34,-0.09 1.09,1.68 -0.16,1.04 0.92,0.91 -1.19,1.43 -0.96,0.05 -0.56,0.5 -1.16,0.41 -1.31,0.04 -0.14,-0.35 0.23,-0.77 0.85,-0.77 -0.72,-0.39 -0.67,-0.93 -0.5,-1.14 0.26,-0.32 0.98,-0.23 1.27,0.32z"/>
   <path class="fil0" d="M61.03 28.31c0.11,-0.43 0.52,-0.09 0.21,0.1 0.43,-0.07 0.34,0.42 -0.02,0.25 0.29,0.3 -0.31,0.52 -0.29,0.08 -0.38,0.26 -0.48,-0.23 -0.08,-0.23 -0.4,-0.23 0,-0.5 0.18,-0.2z"/>
   <path class="fil0" d="M64.12 46.58c-0.94,0.64 0.31,1.28 0.46,0.41 0.28,1.07 1.38,0.44 0.59,-0.27 1.05,0.41 0.96,-1.19 -0.09,-0.74 0.25,-1.11 -1.07,-0.92 -0.65,0.02 -0.98,-0.74 -1.23,0.44 -0.3,0.59z"/>
   <g>
    <path class="fil0" d="M26.91 47.28c5.98,4.48 6.37,-5.69 0.99,-4.49 4.34,-4.15 -1.79,-9.96 -3.64,-3.33 0.04,-6.52 -7.96,-1.38 -3.02,3.04 -3.24,-0 -4.76,2.37 -4.07,4.25 0.65,1.78 3.01,2.12 4.89,0.03 -0.99,3.87 0.8,5.76 1.96,5.96 1.77,0.31 3.68,-2.42 2.89,-5.46z"/>
    <path class="fil1" d="M26.37 46.57c4.66,3.48 4.96,-4.43 0.77,-3.49 3.37,-3.24 -1.39,-7.76 -2.83,-2.6 0.03,-5.07 -6.2,-1.07 -2.35,2.37 -2.52,-0 -3.71,1.85 -3.17,3.31 0.51,1.39 2.34,1.65 3.81,0.02 -0.77,3.02 0.62,4.48 1.53,4.64 1.37,0.24 2.86,-1.88 2.25,-4.25z"/>
    <path class="fil0" d="M24.93 44.47c1.28,0.96 1.42,-1.09 0.27,-0.84 1.18,-0.93 -0.17,-2.12 -0.64,-0.66 -0.04,-1.66 -1.97,-0.7 -0.87,0.5 -1.49,0.23 -0.58,1.93 0.36,0.88 -0.4,1.72 1.18,1.46 0.88,0.12z"/>
   </g>
  </g>
 </g>
</svg>
