<?xml version="1.0" encoding="UTF-8"?>
<!DOCTYPE svg PUBLIC "-//W3C//DTD SVG 1.1//EN" "http://www.w3.org/Graphics/SVG/1.1/DTD/svg11.dtd">
<!-- Creator: CorelDRAW -->
<svg xmlns="http://www.w3.org/2000/svg" xml:space="preserve" width="0.979098in" height="0.142681in" version="1.1" style="shape-rendering:geometricPrecision; text-rendering:geometricPrecision; image-rendering:optimizeQuality; fill-rule:evenodd; clip-rule:evenodd"
viewBox="0 0 979.1 142.68"
 xmlns:xlink="http://www.w3.org/1999/xlink"
 xmlns:xodm="http://www.corel.com/coreldraw/odm/2003">
 <defs>
  <style type="text/css">
   <![CDATA[
    .fil1 {fill:#EE428D;fill-rule:nonzero}
    .fil0 {fill:#EF609D;fill-rule:nonzero}
    .fil3 {fill:#FCD58F;fill-rule:nonzero}
    .fil2 {fill:#FFC7B8;fill-rule:nonzero}
   ]]>
  </style>
 </defs>
 <g id="_23Layer_x0020_2">
  <metadata id="CorelCorpID_0Corel-Layer"/>
  <g id="_2081295776432">
   <path class="fil0" d="M870.07 99.83c13.77,7.24 24.8,18.54 37.19,28.09 6.2,4.77 12.84,9.22 20.35,12.07 7.52,2.63 15.91,3.68 23.81,1.54 15.58,-3.95 28.85,-18.87 27.59,-35.88 -1.37,-16.46 -16.46,-31.27 -33.79,-29.95l0.44 4.11c12.56,-1.37 22.44,-11.63 25.4,-23.43 1.54,-5.93 1.04,-12.51 -1.65,-18.21 -2.74,-5.65 -7.41,-10.15 -12.84,-13.06 -10.53,-6.04 -25.62,-5.21 -34.72,3.57 -8.72,8.28 -15.69,16.29 -24.74,22.98 -35.71,26.99 -81.96,36.37 -126.34,35.71 -44.87,-0.82 -88.98,-11.69 -133.2,-21.67 -44.16,-10.53 -89.69,-17.39 -135.06,-20.46l-12.51 -0.84 0 -0.06 -0.46 0.03 -0.46 -0.03 0 0.06 -12.51 0.84c-45.37,3.07 -90.9,9.93 -135.06,20.46 -44.22,9.98 -88.33,20.85 -133.2,21.67 -44.38,0.66 -90.63,-8.72 -126.34,-35.71 -9.05,-6.69 -16.02,-14.7 -24.74,-22.98 -9.1,-8.78 -24.19,-9.61 -34.72,-3.57 -5.43,2.91 -10.1,7.41 -12.84,13.06 -2.69,5.7 -3.19,12.28 -1.65,18.21 2.96,11.8 12.84,22.06 25.4,23.43l0.44 -4.11c-17.33,-1.32 -32.42,13.49 -33.79,29.95 -1.26,17.01 12.01,31.93 27.59,35.88 7.9,2.14 16.29,1.09 23.81,-1.54 7.51,-2.85 14.15,-7.3 20.35,-12.07 12.39,-9.55 23.42,-20.85 37.19,-28.09l0.02 -0.04 -0.01 -0.1 -0.6 -1.26c-14.15,7.18 -25.4,18.43 -37.8,27.7 -6.19,4.61 -12.72,8.83 -19.91,11.41 -7.13,2.41 -15.03,3.23 -22.22,1.15 -14.43,-3.84 -26.34,-18.04 -24.91,-32.91 1.32,-14.59 15.42,-27.65 29.9,-26.11l0.44 -4.11c-10.36,-1.2 -18.98,-10.26 -21.28,-20.35 -2.75,-10.26 2.85,-21.06 12.34,-25.62 9.27,-4.93 21.01,-4.17 28.58,3.24 7.63,7.4 15.58,16.62 24.69,23.59 36.92,28.8 84.65,38.9 130.18,38.73 46.14,-0.33 90.9,-10.91 135.12,-20.35 44.16,-9.98 88.65,-16.18 133.8,-18.76l12.19 -0.63 12.19 0.63c45.15,2.58 89.64,8.78 133.8,18.76 44.22,9.44 88.98,20.02 135.12,20.35 45.53,0.17 93.26,-9.93 130.18,-38.73 9.11,-6.97 17.06,-16.19 24.69,-23.59 7.57,-7.41 19.31,-8.17 28.58,-3.24 9.49,4.56 15.09,15.36 12.34,25.62 -2.3,10.09 -10.92,19.15 -21.28,20.35l0.44 4.11c14.48,-1.54 28.58,11.52 29.9,26.11 1.43,14.87 -10.48,29.07 -24.91,32.91 -7.19,2.08 -15.09,1.26 -22.22,-1.15 -7.19,-2.58 -13.72,-6.8 -19.91,-11.41 -12.4,-9.27 -23.65,-20.52 -37.8,-27.7l-0.6 1.26 -0.01 0.1 0.02 0.04z"/>
   <g>
    <g>
     <g>
      <path class="fil1" d="M316.47 42.35c1.7,-2.98 4.61,-4.91 7.43,-6.84 3.51,-2.33 7.31,-4.86 11.57,-4.73 1.81,0.06 3.5,0.52 5.26,0.99 4.44,1.22 8.94,2.51 13.09,4.56 2.51,1.22 4.97,2.87 6.55,5.2 1.58,2.33 2.11,5.5 0.76,7.95 -1.05,1.87 -2.98,3.04 -4.8,4.33 -1.81,1.22 -3.5,2.63 -5.03,4.26 -3.57,3.69 -6.02,8.3 -9.41,12.16 -1.87,2.05 -3.97,3.85 -6.25,5.31 -0.82,0.52 -1.76,1.05 -2.75,0.99 -2.17,-0.06 -3.27,-2.45 -4.09,-4.44 -2.11,-5.26 -4.86,-10.23 -8.25,-14.79 -1.64,-2.28 -2.8,-4.73 -4.21,-7.07 -1.39,-2.4 -1.22,-5.5 0.12,-7.9l0 0 0 0.03z"/>
      <path class="fil1" d="M366.04 53.35c3.8,-1.46 8.13,-1.99 11.92,-0.47 1.81,0.7 3.39,1.87 4.8,3.15 1.05,0.99 1.99,2.05 2.51,3.39 0.75,1.81 0.7,3.85 0.64,5.84 -0.06,1.52 -0.12,2.98 -0.18,4.5 -0.18,4.26 -0.3,8.65 -1.4,12.8 -1.11,4.15 -3.22,8.19 -6.61,10.82 -3.39,2.63 -8.25,3.63 -12.09,1.76 -1.57,-0.76 -2.92,-1.93 -4.32,-2.98 -3.15,-2.33 -6.61,-4.21 -10.06,-6.02 -3.81,-1.99 -7.6,-4.03 -11.4,-6.02 -0.52,-0.3 -1.05,-0.52 -1.34,-0.99 -0.59,-0.76 -0.47,-1.93 0,-2.75 0.47,-0.82 1.29,-1.46 2.05,-2.05 4.73,-3.69 10.11,-7.36 13.79,-12.16 3.1,-4.03 6.78,-6.84 11.64,-8.7l0.05 -0.11 0.02 -0.01z"/>
      <path class="fil1" d="M305.49 49.14c-1.81,-0.12 -3.57,0.12 -5.31,0.52 -4.61,0.94 -9.59,2.98 -11.45,7.36 -1.46,3.45 -0.59,7.36 -1.11,11.05 -0.24,1.76 -0.82,3.45 -0.99,5.2 -0.42,4.97 2.51,9.71 6.55,12.63 1.76,1.29 3.85,2.33 6.07,2.22 1.87,-0.12 3.57,-0.99 5.31,-1.76 6.37,-2.63 13.5,-2.74 20.4,-3.27 0.94,-0.06 1.87,-0.18 2.63,-0.7 0.99,-0.7 1.34,-2.11 1.22,-3.33 -0.18,-1.22 -0.76,-2.33 -1.4,-3.45 -3.27,-5.96 -6.31,-12.28 -10,-18.06 -2.45,-3.92 -6.89,-8.47 -11.87,-8.47l-0.06 0.05 -0.01 0.02z"/>
      <path class="fil1" d="M298.06 101.62c-2.05,4.56 -2.33,10 -0.18,14.5 2.17,4.5 6.89,7.83 11.87,7.71 0.94,0 1.81,-0.12 2.75,0.06 1.17,0.3 2.17,1.06 3.22,1.76 1.99,1.29 4.32,2.11 6.72,1.99 2.33,-0.12 4.73,-1.17 6.14,-3.1 0.99,-1.34 1.46,-2.92 1.81,-4.56 0.59,-2.51 0.99,-5.03 1.17,-7.59 0.3,-3.74 0.12,-7.54 0,-11.28 -0.18,-3.85 -0.3,-7.66 -0.47,-11.52 -0.06,-0.7 -0.11,-1.52 -0.59,-1.99 -0.35,-0.42 -0.94,-0.52 -1.46,-0.64 -12.39,-2.63 -25.54,2.8 -30.92,14.67l-0.06 0 0 -0.01z"/>
      <path class="fil1" d="M336.81 109.51c2.21,5.15 6.49,9.06 10.63,12.81 1.52,1.34 3.1,2.74 5.03,3.39 2.11,0.7 4.44,0.47 6.49,-0.41 2.69,-1.11 4.97,-3.22 6.32,-5.84 0.82,-1.58 1.29,-3.33 2.45,-4.61 1.17,-1.22 2.87,-1.87 3.74,-3.27 1.17,-1.76 0.7,-4.15 -0.12,-6.14 -1.93,-4.5 -5.62,-8.19 -9.83,-10.7 -4.2,-2.57 -8.94,-4.09 -13.73,-5.31 -2.39,-0.64 -4.86,-1.17 -6.84,-2.63 -1.34,-0.94 -2.57,-2.33 -4.2,-2.28 -1.11,0 -2.11,0.75 -2.75,1.69 -0.64,0.94 -0.87,2.05 -1.06,3.15 -0.59,3.51 -0.3,7.13 0.7,10.52 0.99,3.22 1.7,6.61 3.04,9.71l0.12 -0.06 0 -0z"/>
      <path class="fil1" d="M328.98 80.88c-0.18,0.59 -0.3,1.22 -0.24,1.81 0.18,1.22 0.99,2.28 2.05,2.92 3.92,2.57 9.29,-1.29 7.95,-5.84 -1.52,-5.09 -8.42,-2.92 -9.76,1.11l0 0z"/>
     </g>
     <g>
      <path class="fil1" d="M623.1 42.38c1.69,-2.98 4.61,-4.91 7.43,-6.84 3.5,-2.33 7.31,-4.86 11.57,-4.73 1.81,0 3.51,0.52 5.26,0.99 4.44,1.23 8.94,2.52 13.1,4.56 2.51,1.22 4.96,2.86 6.55,5.2 1.58,2.33 2.11,5.5 0.76,7.95 -1.06,1.87 -2.98,3.04 -4.8,4.26 -1.81,1.22 -3.51,2.63 -5.03,4.26 -3.57,3.69 -6.02,8.36 -9.41,12.15 -1.88,2.05 -3.97,3.86 -6.26,5.31 -0.82,0.52 -1.76,1.06 -2.75,0.99 -2.17,-0.06 -3.27,-2.45 -4.09,-4.44 -2.11,-5.26 -4.85,-10.22 -8.24,-14.79 -1.64,-2.28 -2.8,-4.73 -4.21,-7.08 -1.4,-2.39 -1.22,-5.5 0.12,-7.89l0 0.06 0 0.03z"/>
      <path class="fil1" d="M672.61 53.37c3.81,-1.46 8.13,-1.99 11.92,-0.47 1.81,0.7 3.39,1.81 4.8,3.15 1.06,0.99 1.99,2.05 2.51,3.39 0.76,1.81 0.7,3.85 0.64,5.84 -0.06,1.52 -0.11,2.98 -0.18,4.5 -0.18,4.26 -0.3,8.65 -1.4,12.81 -1.11,4.14 -3.15,8.18 -6.61,10.82 -3.39,2.63 -8.25,3.62 -12.09,1.76 -1.58,-0.76 -2.92,-1.93 -4.32,-2.98 -3.16,-2.33 -6.61,-4.14 -10.06,-6.02 -3.81,-2 -7.6,-4.03 -11.4,-6.02 -0.52,-0.3 -1.06,-0.52 -1.34,-0.99 -0.59,-0.76 -0.47,-1.93 0,-2.75 0.47,-0.82 1.29,-1.46 2.05,-2.05 4.73,-3.69 10.11,-7.36 13.79,-12.15 3.1,-4.03 6.78,-6.84 11.63,-8.7l0.06 -0.12 0.01 -0z"/>
      <path class="fil1" d="M612.05 49.16c-1.81,-0.12 -3.57,0.12 -5.31,0.52 -4.61,0.94 -9.59,2.98 -11.45,7.36 -1.46,3.45 -0.59,7.36 -1.11,11.05 -0.24,1.76 -0.82,3.45 -0.94,5.2 -0.42,4.96 2.51,9.7 6.55,12.63 1.76,1.29 3.85,2.33 6.07,2.21 1.87,-0.11 3.57,-0.99 5.31,-1.76 6.37,-2.63 13.5,-2.75 20.4,-3.27 0.94,-0.06 1.87,-0.18 2.63,-0.7 0.99,-0.7 1.4,-2.11 1.22,-3.33 -0.18,-1.22 -0.75,-2.33 -1.39,-3.45 -3.27,-5.96 -6.32,-12.27 -10,-18.06 -2.45,-3.92 -6.96,-8.47 -11.87,-8.47l-0.11 0.06 -0.01 0.02z"/>
      <path class="fil1" d="M604.62 101.59c-2.05,4.56 -2.33,10 -0.24,14.5 2.17,4.5 6.89,7.83 11.87,7.71 0.94,0 1.81,-0.18 2.75,0.06 1.17,0.3 2.17,1.05 3.22,1.76 1.99,1.29 4.33,2.11 6.72,1.99 2.33,-0.11 4.73,-1.17 6.14,-3.1 0.99,-1.34 1.46,-2.92 1.81,-4.56 0.59,-2.51 0.99,-5.03 1.17,-7.6 0.3,-3.74 0.12,-7.53 0,-11.28 -0.18,-3.85 -0.3,-7.66 -0.47,-11.52 0,-0.7 -0.06,-1.52 -0.59,-1.99 -0.35,-0.42 -0.94,-0.52 -1.46,-0.64 -12.39,-2.63 -25.54,2.8 -30.92,14.67l0 0 -0.01 -0.02z"/>
      <path class="fil1" d="M643.38 109.54c2.22,5.15 6.49,9.06 10.63,12.81 1.52,1.34 3.1,2.75 5.03,3.39 2.11,0.7 4.44,0.47 6.49,-0.41 2.69,-1.11 4.97,-3.22 6.32,-5.84 0.82,-1.58 1.29,-3.34 2.45,-4.61 1.17,-1.23 2.87,-1.88 3.74,-3.28 1.17,-1.76 0.7,-4.14 -0.12,-6.13 -1.93,-4.56 -5.61,-8.19 -9.82,-10.7 -4.21,-2.57 -8.94,-4.09 -13.73,-5.31 -2.4,-0.59 -4.86,-1.17 -6.84,-2.63 -1.34,-0.94 -2.57,-2.33 -4.21,-2.28 -1.11,0 -2.11,0.76 -2.74,1.7 -0.59,0.94 -0.87,2.05 -1.06,3.15 -0.59,3.51 -0.3,7.13 0.7,10.52 0.99,3.22 1.7,6.61 3.04,9.7l0.12 -0.06 0 -0z"/>
      <path class="fil1" d="M635.6 80.89c-0.18,0.59 -0.3,1.23 -0.24,1.81 0.18,1.22 0.99,2.28 2.05,2.92 3.93,2.57 9.29,-1.29 7.95,-5.84 -1.52,-5.08 -8.42,-2.92 -9.76,1.11l0 0z"/>
     </g>
    </g>
    <g>
     <g>
      <path class="fil2" d="M547.46 26.73c1.69,-3.04 4.68,-5.03 7.59,-6.96 3.57,-2.39 7.48,-4.91 11.76,-4.86 1.81,0.06 3.57,0.52 5.31,0.99 4.56,1.29 9.12,2.57 13.33,4.68 2.57,1.29 5.03,2.92 6.66,5.26 1.58,2.39 2.17,5.61 0.76,8.13 -1.05,1.93 -3.04,3.1 -4.86,4.38 -1.81,1.29 -3.57,2.69 -5.08,4.32 -3.63,3.81 -6.14,8.47 -9.59,12.33 -1.87,2.11 -4.02,3.92 -6.37,5.43 -0.82,0.52 -1.76,1.05 -2.75,1.05 -2.17,-0.06 -3.33,-2.45 -4.15,-4.5 -2.16,-5.38 -4.96,-10.4 -8.36,-15.07 -1.7,-2.28 -2.87,-4.8 -4.26,-7.19 -1.46,-2.39 -1.22,-5.61 0.12,-8.01l-0.12 0 0.02 0.02z"/>
      <path class="fil2" d="M597.85 37.95c3.85,-1.52 8.3,-2.05 12.15,-0.52 1.81,0.7 3.45,1.87 4.91,3.22 1.06,0.99 1.99,2.11 2.57,3.45 0.76,1.87 0.7,3.92 0.64,5.96 -0.06,1.52 -0.12,3.04 -0.18,4.56 -0.18,4.38 -0.3,8.76 -1.39,12.98 -1.11,4.21 -3.22,8.3 -6.72,10.99 -3.45,2.69 -8.37,3.69 -12.33,1.81 -1.57,-0.76 -2.98,-1.93 -4.38,-2.98 -3.22,-2.39 -6.72,-4.26 -10.23,-6.13 -3.85,-2.05 -7.71,-4.09 -11.57,-6.14 -0.52,-0.3 -1.06,-0.59 -1.4,-1.06 -0.59,-0.82 -0.47,-1.93 0,-2.8 0.47,-0.87 1.29,-1.52 2.11,-2.11 4.8,-3.74 10.28,-7.48 14.03,-12.39 3.15,-4.09 6.89,-6.96 11.87,-8.88l-0.06 0.06 -0.02 -0.01z"/>
      <path class="fil2" d="M536.25 33.63c-1.81,-0.12 -3.63,0.12 -5.43,0.52 -4.73,0.99 -9.76,3.04 -11.69,7.48 -1.52,3.51 -0.64,7.48 -1.17,11.22 -0.23,1.76 -0.82,3.51 -0.99,5.26 -0.42,5.03 2.57,9.88 6.66,12.86 1.81,1.34 3.92,2.39 6.19,2.28 1.93,-0.11 3.63,-1.05 5.43,-1.76 6.49,-2.69 13.73,-2.8 20.76,-3.33 0.94,-0.06 1.93,-0.18 2.69,-0.7 1.05,-0.76 1.4,-2.17 1.22,-3.39 -0.18,-1.22 -0.82,-2.39 -1.4,-3.51 -3.33,-6.07 -6.43,-12.45 -10.18,-18.35 -2.51,-3.97 -7.07,-8.59 -12.09,-8.59z"/>
      <path class="fil2" d="M528.65 87.06c-2.11,4.61 -2.39,10.18 -0.24,14.72 2.17,4.56 7.01,7.95 12.09,7.83 0.94,0 1.87,-0.18 2.75,0.06 1.22,0.3 2.22,1.11 3.27,1.76 2.05,1.29 4.38,2.11 6.84,2.05 2.39,-0.12 4.8,-1.22 6.25,-3.15 0.99,-1.34 1.46,-2.98 1.88,-4.61 0.59,-2.57 0.99,-5.15 1.17,-7.78 0.3,-3.81 0.12,-7.66 0,-11.45 -0.18,-3.92 -0.3,-7.78 -0.47,-11.69 -0.06,-0.7 -0.12,-1.52 -0.59,-2.05 -0.41,-0.42 -0.94,-0.52 -1.46,-0.64 -12.63,-2.69 -26.01,2.86 -31.45,14.9l-0.06 0.06 0.01 -0.02z"/>
      <path class="fil2" d="M568.15 95.13c2.28,5.2 6.61,9.24 10.82,13.03 1.52,1.4 3.15,2.8 5.09,3.45 2.16,0.7 4.56,0.47 6.61,-0.42 2.74,-1.11 5.08,-3.27 6.43,-5.96 0.82,-1.57 1.29,-3.39 2.51,-4.73 1.17,-1.22 2.87,-1.93 3.81,-3.33 1.17,-1.81 0.75,-4.21 -0.12,-6.26 -1.99,-4.61 -5.74,-8.3 -10,-10.93 -4.26,-2.57 -9.12,-4.2 -13.97,-5.43 -2.4,-0.64 -4.97,-1.22 -6.96,-2.69 -1.34,-0.99 -2.63,-2.4 -4.26,-2.33 -1.11,0 -2.17,0.76 -2.8,1.7 -0.64,0.94 -0.87,2.11 -1.11,3.22 -0.59,3.57 -0.3,7.24 0.76,10.7 0.99,3.27 1.76,6.72 3.1,9.88l0.12 0.12 -0.02 -0.01z"/>
      <path class="fil3" d="M560.14 65.95c-0.18,0.59 -0.3,1.22 -0.23,1.87 0.18,1.22 1.05,2.28 2.11,2.98 3.97,2.63 9.47,-1.29 8.07,-5.96 -1.52,-5.2 -8.59,-2.98 -9.94,1.11l0 0 0 -0.01z"/>
     </g>
     <g>
      <path class="fil2" d="M391.47 26.76c1.7,-3.04 4.68,-5.03 7.6,-6.96 3.57,-2.39 7.42,-4.91 11.75,-4.86 1.81,0.06 3.57,0.52 5.31,0.99 4.56,1.29 9.12,2.57 13.33,4.68 2.57,1.29 5.03,2.92 6.66,5.26 1.57,2.39 2.17,5.61 0.76,8.13 -1.06,1.93 -3.04,3.1 -4.86,4.38 -1.81,1.29 -3.57,2.69 -5.09,4.32 -3.62,3.81 -6.13,8.47 -9.59,12.33 -1.87,2.11 -4.03,3.92 -6.37,5.43 -0.82,0.52 -1.76,1.06 -2.74,1.06 -2.17,-0.06 -3.33,-2.51 -4.15,-4.5 -2.17,-5.38 -4.97,-10.4 -8.37,-15.07 -1.69,-2.28 -2.86,-4.8 -4.26,-7.19 -1.46,-2.39 -1.22,-5.61 0.12,-8.01l-0.12 0 0.01 0.02z"/>
      <path class="fil2" d="M441.86 37.92c3.85,-1.52 8.3,-2.05 12.16,-0.52 1.81,0.7 3.45,1.88 4.91,3.22 1.05,0.99 1.99,2.11 2.57,3.45 0.75,1.87 0.7,3.97 0.64,5.95 -0.06,1.52 -0.12,3.04 -0.18,4.56 -0.18,4.38 -0.3,8.76 -1.4,12.98 -1.11,4.21 -3.22,8.3 -6.72,10.99 -3.45,2.68 -8.36,3.69 -12.33,1.81 -1.58,-0.76 -2.98,-1.93 -4.38,-2.98 -3.22,-2.39 -6.72,-4.26 -10.22,-6.14 -3.85,-2.04 -7.72,-4.09 -11.57,-6.13 -0.52,-0.3 -1.05,-0.59 -1.39,-1.06 -0.59,-0.82 -0.47,-1.93 0,-2.8 0.47,-0.87 1.29,-1.52 2.11,-2.11 4.8,-3.74 10.28,-7.48 14.03,-12.39 3.16,-4.09 6.89,-6.96 11.87,-8.88l-0.06 0.06 -0.02 -0.01z"/>
      <path class="fil2" d="M380.25 33.65c-1.81,-0.12 -3.62,0.12 -5.43,0.52 -4.73,0.99 -9.76,3.04 -11.69,7.48 -1.52,3.51 -0.64,7.48 -1.17,11.22 -0.24,1.76 -0.82,3.51 -0.99,5.26 -0.41,5.03 2.57,9.88 6.66,12.86 1.81,1.34 3.92,2.39 6.19,2.28 1.93,-0.11 3.62,-1.05 5.43,-1.76 6.49,-2.69 13.73,-2.8 20.75,-3.33 0.94,-0.06 1.93,-0.18 2.69,-0.7 1.06,-0.76 1.4,-2.17 1.22,-3.39 -0.18,-1.22 -0.82,-2.39 -1.39,-3.51 -3.33,-6.07 -6.44,-12.45 -10.18,-18.35 -2.51,-3.97 -7.08,-8.59 -12.09,-8.59z"/>
      <path class="fil2" d="M372.66 87.02c-2.11,4.61 -2.4,10.18 -0.24,14.72 2.17,4.56 7.01,7.95 12.09,7.83 0.94,0 1.87,-0.18 2.74,0.06 1.23,0.3 2.22,1.11 3.27,1.76 2.05,1.29 4.38,2.11 6.84,2.05 2.4,-0.12 4.8,-1.22 6.26,-3.15 0.99,-1.34 1.46,-2.98 1.87,-4.61 0.59,-2.57 0.99,-5.15 1.17,-7.78 0.3,-3.8 0.12,-7.66 0,-11.45 -0.18,-3.92 -0.3,-7.78 -0.47,-11.69 -0.06,-0.7 -0.12,-1.52 -0.59,-2.04 -0.42,-0.42 -0.94,-0.52 -1.46,-0.64 -12.63,-2.69 -26.01,2.86 -31.45,14.9l-0.06 0.06 0.02 -0.02z"/>
      <path class="fil2" d="M412.16 95.08c2.28,5.2 6.61,9.24 10.82,13.03 1.52,1.4 3.15,2.8 5.08,3.45 2.17,0.7 4.56,0.47 6.61,-0.42 2.75,-1.11 5.08,-3.27 6.43,-5.96 0.82,-1.57 1.29,-3.39 2.52,-4.73 1.17,-1.22 2.86,-1.93 3.8,-3.33 1.17,-1.81 0.76,-4.2 -0.12,-6.19 -1.99,-4.61 -5.73,-8.3 -10,-10.93 -4.26,-2.57 -9.12,-4.21 -13.97,-5.43 -2.39,-0.64 -4.96,-1.22 -6.96,-2.68 -1.34,-0.99 -2.63,-2.4 -4.26,-2.33 -1.11,0 -2.17,0.76 -2.8,1.7 -0.64,0.94 -0.87,2.11 -1.11,3.22 -0.59,3.57 -0.3,7.24 0.76,10.7 0.99,3.27 1.76,6.72 3.1,9.88l0.12 0.06 -0.02 -0.02z"/>
      <path class="fil3" d="M404.16 65.91c-0.18,0.59 -0.3,1.23 -0.24,1.88 0.18,1.22 1.06,2.28 2.11,2.98 3.97,2.63 9.47,-1.29 8.07,-5.96 -1.52,-5.2 -8.59,-2.98 -9.94,1.11l0 0 0 -0.01z"/>
     </g>
    </g>
    <g>
     <path class="fil1" d="M469.7 11.58c1.7,-2.98 4.61,-4.91 7.43,-6.84 3.51,-2.33 7.31,-4.86 11.57,-4.73 1.81,0.06 3.5,0.52 5.26,0.99 4.44,1.22 8.94,2.51 13.09,4.56 2.51,1.23 4.97,2.87 6.55,5.2 1.58,2.33 2.11,5.5 0.76,7.95 -1.05,1.87 -2.98,3.04 -4.8,4.32 -1.81,1.22 -3.5,2.63 -5.03,4.26 -3.57,3.69 -6.02,8.3 -9.41,12.15 -1.87,2.05 -3.97,3.85 -6.25,5.31 -0.82,0.52 -1.76,1.06 -2.75,0.99 -2.11,-0.06 -3.27,-2.45 -4.09,-4.44 -2.11,-5.26 -4.86,-10.22 -8.25,-14.79 -1.64,-2.28 -2.8,-4.73 -4.2,-7.08 -1.4,-2.39 -1.23,-5.5 0.11,-7.89l0 0 0 0.03z"/>
     <path class="fil1" d="M519.27 22.63c3.8,-1.46 8.13,-1.99 11.92,-0.47 1.81,0.7 3.39,1.88 4.86,3.16 1.05,0.99 1.99,2.05 2.51,3.39 0.76,1.81 0.7,3.85 0.64,5.84 -0.06,1.52 -0.12,2.98 -0.18,4.5 -0.18,4.26 -0.3,8.65 -1.4,12.81 -1.11,4.14 -3.22,8.18 -6.61,10.81 -3.39,2.63 -8.25,3.63 -12.09,1.76 -1.57,-0.76 -2.92,-1.93 -4.32,-2.98 -3.15,-2.33 -6.61,-4.2 -10.06,-6.02 -3.8,-1.99 -7.6,-4.02 -11.4,-6.02 -0.52,-0.3 -1.05,-0.52 -1.34,-0.99 -0.59,-0.76 -0.47,-1.93 0,-2.75 0.47,-0.82 1.29,-1.46 2.05,-2.05 4.73,-3.69 10.11,-7.36 13.79,-12.16 3.1,-4.02 6.78,-6.84 11.64,-8.7l0 -0.12 0 -0z"/>
     <path class="fil1" d="M458.72 18.35c-1.81,-0.12 -3.57,0.12 -5.31,0.52 -4.61,0.94 -9.59,2.98 -11.45,7.36 -1.46,3.45 -0.59,7.36 -1.11,11.05 -0.24,1.76 -0.82,3.45 -0.94,5.2 -0.41,4.96 2.52,9.7 6.56,12.63 1.76,1.29 3.85,2.33 6.07,2.21 1.88,-0.12 3.57,-0.99 5.31,-1.76 6.37,-2.63 13.5,-2.75 20.41,-3.27 0.94,-0.06 1.87,-0.18 2.63,-0.7 0.99,-0.7 1.34,-2.11 1.22,-3.33 -0.18,-1.22 -0.76,-2.33 -1.4,-3.45 -3.27,-5.96 -6.31,-12.28 -10,-18.06 -2.45,-3.92 -6.96,-8.47 -11.87,-8.47l-0.12 0.06 -0 0.02z"/>
     <path class="fil1" d="M451.29 70.84c-2.05,4.56 -2.33,10 -0.18,14.5 2.17,4.5 6.89,7.83 11.87,7.72 0.94,0 1.81,-0.12 2.75,0.06 1.22,0.3 2.17,1.11 3.22,1.76 1.99,1.29 4.32,2.11 6.65,1.99 2.33,-0.12 4.73,-1.17 6.14,-3.1 0.99,-1.34 1.46,-2.92 1.81,-4.56 0.59,-2.52 0.99,-5.03 1.17,-7.6 0.3,-3.74 0.12,-7.53 0,-11.28 -0.18,-3.85 -0.3,-7.66 -0.47,-11.52 -0.06,-0.7 -0.06,-1.52 -0.59,-1.99 -0.35,-0.41 -0.94,-0.52 -1.46,-0.64 -12.39,-2.63 -25.54,2.8 -30.92,14.67l0 0 0 -0.01z"/>
     <path class="fil1" d="M490.04 78.73c2.21,5.15 6.49,9.06 10.63,12.81 1.52,1.34 3.1,2.75 5.03,3.39 2.11,0.7 4.44,0.47 6.49,-0.42 2.69,-1.11 4.97,-3.22 6.32,-5.84 0.82,-1.57 1.29,-3.33 2.45,-4.61 1.17,-1.22 2.87,-1.87 3.74,-3.27 1.17,-1.76 0.7,-4.14 -0.12,-6.14 -1.93,-4.5 -5.62,-8.18 -9.83,-10.69 -4.2,-2.57 -8.94,-4.09 -13.73,-5.31 -2.39,-0.64 -4.86,-1.17 -6.84,-2.63 -1.34,-0.94 -2.57,-2.33 -4.2,-2.28 -1.11,0 -2.17,0.76 -2.75,1.69 -0.59,0.94 -0.87,2.05 -1.06,3.16 -0.59,3.5 -0.3,7.13 0.76,10.52 0.99,3.22 1.7,6.61 3.04,9.7l0.06 -0.06 0.01 -0z"/>
     <path class="fil1" d="M482.21 50.09c-0.18,0.59 -0.3,1.22 -0.24,1.81 0.18,1.22 0.99,2.28 2.05,2.92 3.92,2.57 9.29,-1.29 7.95,-5.84 -1.46,-5.08 -8.42,-2.92 -9.76,1.11l0 0z"/>
    </g>
   </g>
  </g>
 </g>
</svg>
