<?xml version="1.0" encoding="UTF-8"?>
<!DOCTYPE svg PUBLIC "-//W3C//DTD SVG 1.1//EN" "http://www.w3.org/Graphics/SVG/1.1/DTD/svg11.dtd">
<!-- Creator: CorelDRAW -->
<svg xmlns="http://www.w3.org/2000/svg" xml:space="preserve" width="0.97737in" height="0.154in" version="1.1" style="shape-rendering:geometricPrecision; text-rendering:geometricPrecision; image-rendering:optimizeQuality; fill-rule:evenodd; clip-rule:evenodd"
viewBox="0 0 977.37 154"
 xmlns:xlink="http://www.w3.org/1999/xlink"
 xmlns:xodm="http://www.corel.com/coreldraw/odm/2003">
 <defs>
  <style type="text/css">
   <![CDATA[
    .fil0 {fill:#EF609D;fill-rule:nonzero}
    .fil1 {fill:#EE428D;fill-rule:nonzero}
    .fil3 {fill:#FCD58F;fill-rule:nonzero}
    .fil2 {fill:#FFC7B8;fill-rule:nonzero}
   ]]>
  </style>
 </defs>
 <g id="_23Layer_x0020_2">
  <metadata id="CorelCorpID_0Corel-Layer"/>
  <path class="fil0" d="M109.04 111.16c-13.77,7.24 -24.8,18.54 -37.19,28.09 -6.2,4.77 -12.84,9.22 -20.35,12.07 -7.52,2.63 -15.91,3.68 -23.81,1.54 -15.58,-3.95 -28.85,-18.87 -27.59,-35.88 1.37,-16.46 16.46,-31.27 33.79,-29.95l-0.44 4.11c-12.56,-1.37 -22.44,-11.63 -25.4,-23.43 -1.54,-5.93 -1.04,-12.51 1.65,-18.21 2.74,-5.65 7.41,-10.15 12.84,-13.06 10.53,-6.04 25.62,-5.21 34.72,3.57 8.72,8.28 15.69,16.29 24.74,22.98 35.71,26.99 81.96,36.37 126.34,35.71 44.87,-0.82 88.98,-11.69 133.2,-21.67 44.16,-10.53 89.69,-17.39 135.06,-20.46 45.42,-3.13 90.68,-5.54 136.38,-5.48 45.59,0.17 91.61,3.35 136.49,13.72 45.31,9.65 86.84,30.06 130.18,37.69 10.81,1.92 21.67,2.91 32.48,2.63 10.81,-0.33 21.72,-1.54 31.11,-5.38 9.16,-3.57 17.5,-10.81 18.49,-19.09 1.43,-8.72 -3.78,-19.04 -11.24,-19.42l0.33 -10.92c6.8,0 13.22,-6.04 15.63,-13.77 2.41,-7.79 0.99,-16.07 -5.21,-21.45 -5.98,-5.38 -14.98,-7.57 -23.54,-6.47 -8.67,1.04 -16.13,5.87 -22,12.89 -11.63,13.66 -18.65,34.4 -36.81,44.76 -17.11,10.31 -39.11,11.91 -56.83,3.46l0.55 -1.26c17.67,7.3 38.57,4.5 53.87,-5.93 16.13,-10.15 21.23,-29.62 33.74,-45.59 11.8,-17.17 39.17,-23.43 57,-8.78 18.76,15.09 10.59,50.63 -16.19,53.05l0.33 -10.92c7.74,0.55 14.65,5.76 17.89,11.91 3.51,6.15 4.77,13.06 3.95,19.97 -2.03,14.92 -13.99,24.03 -25.24,28.91 -11.63,4.99 -23.65,6.36 -35.38,7.02 -11.85,0.55 -23.65,-0.33 -35.22,-2.14 -46.35,-7.95 -87.39,-28.64 -130.95,-37.74 -87.5,-19.48 -178.95,-15.52 -269.03,-10.86 -45.15,2.58 -89.64,8.78 -133.8,18.76 -44.22,9.44 -88.98,20.02 -135.12,20.35 -45.53,0.17 -93.26,-9.93 -130.18,-38.73 -9.11,-6.97 -17.06,-16.19 -24.69,-23.59 -7.57,-7.41 -19.31,-8.17 -28.58,-3.24 -9.49,4.56 -15.09,15.36 -12.34,25.62 2.3,10.09 10.92,19.15 21.28,20.35l-0.44 4.11c-14.48,-1.54 -28.58,11.52 -29.9,26.11 -1.43,14.87 10.48,29.07 24.91,32.91 7.19,2.08 15.09,1.26 22.22,-1.15 7.19,-2.58 13.72,-6.8 19.91,-11.41 12.4,-9.27 23.65,-20.52 37.8,-27.7l0.6 1.26 0.01 0.1z"/>
  <g id="_2668475189520">
   <g>
    <path class="fil1" d="M297.34 61.36c1.59,-2.8 4.33,-4.61 6.97,-6.42 3.29,-2.19 6.86,-4.56 10.86,-4.44 1.7,0.06 3.29,0.49 4.94,0.93 4.17,1.15 8.39,2.36 12.29,4.28 2.36,1.15 4.66,2.69 6.15,4.88 1.48,2.19 1.98,5.16 0.71,7.46 -0.99,1.76 -2.8,2.85 -4.5,4.06 -1.7,1.15 -3.29,2.47 -4.72,4 -3.35,3.46 -5.65,7.79 -8.83,11.41 -1.76,1.92 -3.73,3.62 -5.87,4.99 -0.77,0.49 -1.65,0.99 -2.58,0.93 -2.03,-0.06 -3.07,-2.3 -3.84,-4.17 -1.98,-4.94 -4.56,-9.6 -7.74,-13.88 -1.54,-2.14 -2.63,-4.44 -3.95,-6.64 -1.31,-2.25 -1.15,-5.16 0.11,-7.41l-0 0z"/>
    <path class="fil1" d="M343.86 71.68c3.57,-1.37 7.63,-1.87 11.19,-0.44 1.7,0.66 3.18,1.76 4.5,2.96 0.99,0.93 1.87,1.92 2.36,3.18 0.71,1.7 0.66,3.62 0.6,5.48 -0.06,1.43 -0.11,2.8 -0.17,4.22 -0.17,4 -0.28,8.12 -1.31,12.02 -1.04,3.89 -3.02,7.68 -6.2,10.15 -3.18,2.47 -7.74,3.4 -11.35,1.65 -1.48,-0.71 -2.74,-1.81 -4.06,-2.8 -2.96,-2.19 -6.2,-3.95 -9.44,-5.65 -3.57,-1.87 -7.13,-3.78 -10.7,-5.65 -0.49,-0.28 -0.99,-0.49 -1.26,-0.93 -0.55,-0.71 -0.44,-1.81 0,-2.58 0.44,-0.77 1.21,-1.37 1.92,-1.92 4.44,-3.46 9.49,-6.91 12.94,-11.41 2.91,-3.78 6.36,-6.42 10.92,-8.17l0.05 -0.11z"/>
    <path class="fil1" d="M287.03 67.73c-1.7,-0.11 -3.35,0.11 -4.99,0.49 -4.33,0.88 -9,2.8 -10.75,6.91 -1.37,3.24 -0.55,6.91 -1.04,10.37 -0.22,1.65 -0.77,3.24 -0.93,4.88 -0.39,4.66 2.36,9.11 6.15,11.85 1.65,1.21 3.62,2.19 5.7,2.08 1.76,-0.11 3.35,-0.93 4.99,-1.65 5.98,-2.47 12.67,-2.58 19.15,-3.07 0.88,-0.06 1.76,-0.17 2.47,-0.66 0.93,-0.66 1.26,-1.98 1.15,-3.13 -0.17,-1.15 -0.71,-2.19 -1.31,-3.24 -3.07,-5.59 -5.93,-11.52 -9.38,-16.95 -2.3,-3.68 -6.47,-7.95 -11.14,-7.95l-0.06 0.05z"/>
    <path class="fil1" d="M280.06 116.99c-1.92,4.28 -2.19,9.38 -0.17,13.61 2.03,4.22 6.47,7.35 11.14,7.24 0.88,0 1.7,-0.11 2.58,0.06 1.1,0.28 2.03,0.99 3.02,1.65 1.87,1.21 4.06,1.98 6.31,1.87 2.19,-0.11 4.44,-1.1 5.76,-2.91 0.93,-1.26 1.37,-2.74 1.7,-4.28 0.55,-2.36 0.93,-4.72 1.1,-7.13 0.28,-3.51 0.11,-7.07 0,-10.59 -0.17,-3.62 -0.28,-7.19 -0.44,-10.81 -0.06,-0.66 -0.11,-1.43 -0.55,-1.87 -0.33,-0.39 -0.88,-0.49 -1.37,-0.6 -11.63,-2.47 -23.97,2.63 -29.02,13.77l-0.06 0z"/>
    <path class="fil1" d="M316.43 124.39c2.08,4.83 6.09,8.5 9.98,12.02 1.43,1.26 2.91,2.58 4.72,3.18 1.98,0.66 4.17,0.44 6.09,-0.39 2.52,-1.04 4.66,-3.02 5.93,-5.48 0.77,-1.48 1.21,-3.13 2.3,-4.33 1.1,-1.15 2.69,-1.76 3.51,-3.07 1.1,-1.65 0.66,-3.89 -0.11,-5.76 -1.81,-4.22 -5.27,-7.68 -9.22,-10.04 -3.95,-2.41 -8.39,-3.84 -12.89,-4.99 -2.25,-0.6 -4.56,-1.1 -6.42,-2.47 -1.26,-0.88 -2.41,-2.19 -3.95,-2.14 -1.04,0 -1.98,0.71 -2.58,1.59 -0.6,0.88 -0.82,1.92 -0.99,2.96 -0.55,3.29 -0.28,6.69 0.66,9.87 0.93,3.02 1.59,6.2 2.85,9.11l0.11 -0.06z"/>
    <path class="fil1" d="M309.08 97.52c-0.17,0.55 -0.28,1.15 -0.22,1.7 0.17,1.15 0.93,2.14 1.92,2.74 3.68,2.41 8.72,-1.21 7.46,-5.48 -1.43,-4.77 -7.9,-2.74 -9.16,1.04l0 -0z"/>
   </g>
   <g>
    <path class="fil1" d="M466.25 30.59c1.59,-2.8 4.33,-4.61 6.97,-6.42 3.29,-2.19 6.86,-4.56 10.86,-4.44 1.7,0.06 3.29,0.49 4.94,0.93 4.17,1.15 8.39,2.36 12.29,4.28 2.36,1.15 4.66,2.69 6.15,4.88 1.48,2.19 1.98,5.16 0.71,7.46 -0.99,1.76 -2.8,2.85 -4.5,4.06 -1.7,1.15 -3.29,2.47 -4.72,4 -3.35,3.46 -5.65,7.79 -8.83,11.41 -1.76,1.92 -3.73,3.62 -5.87,4.99 -0.77,0.49 -1.65,0.99 -2.58,0.93 -1.98,-0.06 -3.07,-2.3 -3.84,-4.17 -1.98,-4.94 -4.56,-9.6 -7.74,-13.88 -1.54,-2.14 -2.63,-4.44 -3.95,-6.64 -1.31,-2.25 -1.15,-5.16 0.11,-7.41l-0 0z"/>
    <path class="fil1" d="M512.77 40.96c3.57,-1.37 7.63,-1.87 11.19,-0.44 1.7,0.66 3.18,1.76 4.56,2.96 0.99,0.93 1.87,1.92 2.36,3.18 0.71,1.7 0.66,3.62 0.6,5.48 -0.06,1.43 -0.11,2.8 -0.17,4.22 -0.17,4 -0.28,8.12 -1.31,12.02 -1.04,3.89 -3.02,7.68 -6.2,10.15 -3.18,2.47 -7.74,3.4 -11.35,1.65 -1.48,-0.71 -2.74,-1.81 -4.06,-2.8 -2.96,-2.19 -6.2,-3.95 -9.44,-5.65 -3.57,-1.87 -7.13,-3.78 -10.7,-5.65 -0.49,-0.28 -0.99,-0.49 -1.26,-0.93 -0.55,-0.71 -0.44,-1.81 0,-2.58 0.44,-0.77 1.21,-1.37 1.92,-1.92 4.44,-3.46 9.49,-6.91 12.94,-11.41 2.91,-3.78 6.36,-6.42 10.92,-8.17l-0 -0.11z"/>
    <path class="fil1" d="M455.94 36.95c-1.7,-0.11 -3.35,0.11 -4.99,0.49 -4.33,0.88 -9,2.8 -10.75,6.91 -1.37,3.24 -0.55,6.91 -1.04,10.37 -0.22,1.65 -0.77,3.24 -0.88,4.88 -0.39,4.66 2.36,9.11 6.15,11.85 1.65,1.21 3.62,2.19 5.7,2.08 1.76,-0.11 3.35,-0.93 4.99,-1.65 5.98,-2.47 12.67,-2.58 19.15,-3.07 0.88,-0.06 1.76,-0.17 2.47,-0.66 0.93,-0.66 1.26,-1.98 1.15,-3.13 -0.17,-1.15 -0.71,-2.19 -1.31,-3.24 -3.07,-5.59 -5.93,-11.52 -9.38,-16.95 -2.3,-3.68 -6.53,-7.95 -11.14,-7.95l-0.11 0.05z"/>
    <path class="fil1" d="M448.97 86.21c-1.92,4.28 -2.19,9.38 -0.17,13.61 2.03,4.22 6.47,7.35 11.14,7.24 0.88,0 1.7,-0.11 2.58,0.06 1.15,0.28 2.03,1.04 3.02,1.65 1.87,1.21 4.06,1.98 6.25,1.87 2.19,-0.11 4.44,-1.1 5.76,-2.91 0.93,-1.26 1.37,-2.74 1.7,-4.28 0.55,-2.36 0.93,-4.72 1.1,-7.13 0.28,-3.51 0.11,-7.07 0,-10.59 -0.17,-3.62 -0.28,-7.19 -0.44,-10.81 -0.06,-0.66 -0.06,-1.43 -0.55,-1.87 -0.33,-0.39 -0.88,-0.49 -1.37,-0.6 -11.63,-2.47 -23.97,2.63 -29.02,13.77l-0 0z"/>
    <path class="fil1" d="M485.34 93.62c2.08,4.83 6.09,8.5 9.98,12.02 1.43,1.26 2.91,2.58 4.72,3.18 1.98,0.66 4.17,0.44 6.09,-0.39 2.52,-1.04 4.66,-3.02 5.93,-5.48 0.77,-1.48 1.21,-3.13 2.3,-4.33 1.1,-1.15 2.69,-1.76 3.51,-3.07 1.1,-1.65 0.66,-3.89 -0.11,-5.76 -1.81,-4.22 -5.27,-7.68 -9.22,-10.04 -3.95,-2.41 -8.39,-3.84 -12.89,-4.99 -2.25,-0.6 -4.56,-1.1 -6.42,-2.47 -1.26,-0.88 -2.41,-2.19 -3.95,-2.14 -1.04,0 -2.03,0.71 -2.58,1.59 -0.55,0.88 -0.82,1.92 -0.99,2.96 -0.55,3.29 -0.28,6.69 0.71,9.87 0.93,3.02 1.59,6.2 2.85,9.11l0.06 -0.06z"/>
    <path class="fil1" d="M477.99 66.74c-0.17,0.55 -0.28,1.15 -0.22,1.7 0.17,1.15 0.93,2.14 1.92,2.74 3.68,2.41 8.72,-1.21 7.46,-5.48 -1.37,-4.77 -7.9,-2.74 -9.16,1.04l0 -0z"/>
   </g>
   <g>
    <path class="fil1" d="M642.95 34.21c1.59,-2.8 4.33,-4.61 6.97,-6.42 3.29,-2.19 6.86,-4.56 10.86,-4.44 1.7,0 3.29,0.49 4.94,0.93 4.17,1.15 8.39,2.36 12.29,4.28 2.36,1.15 4.66,2.69 6.15,4.88 1.48,2.19 1.98,5.16 0.71,7.46 -0.99,1.76 -2.8,2.85 -4.5,4 -1.7,1.15 -3.29,2.47 -4.72,4 -3.35,3.46 -5.65,7.85 -8.83,11.41 -1.76,1.92 -3.73,3.62 -5.87,4.99 -0.77,0.49 -1.65,0.99 -2.58,0.93 -2.03,-0.06 -3.07,-2.3 -3.84,-4.17 -1.98,-4.94 -4.56,-9.6 -7.74,-13.88 -1.54,-2.14 -2.63,-4.44 -3.95,-6.64 -1.31,-2.25 -1.15,-5.16 0.11,-7.41l-0 0.06z"/>
    <path class="fil1" d="M689.42 44.52c3.57,-1.37 7.63,-1.87 11.19,-0.44 1.7,0.66 3.18,1.7 4.5,2.96 0.99,0.93 1.87,1.92 2.36,3.18 0.71,1.7 0.66,3.62 0.6,5.48 -0.06,1.43 -0.11,2.8 -0.17,4.22 -0.17,4 -0.28,8.12 -1.31,12.02 -1.04,3.89 -2.96,7.68 -6.2,10.15 -3.18,2.47 -7.74,3.4 -11.35,1.65 -1.48,-0.71 -2.74,-1.81 -4.06,-2.8 -2.96,-2.19 -6.2,-3.89 -9.44,-5.65 -3.57,-1.87 -7.13,-3.78 -10.7,-5.65 -0.49,-0.28 -0.99,-0.49 -1.26,-0.93 -0.55,-0.71 -0.44,-1.81 0,-2.58 0.44,-0.77 1.21,-1.37 1.92,-1.92 4.44,-3.46 9.49,-6.91 12.94,-11.41 2.91,-3.78 6.36,-6.42 10.92,-8.17l0.05 -0.11z"/>
    <path class="fil1" d="M632.58 40.57c-1.7,-0.11 -3.35,0.11 -4.99,0.49 -4.33,0.88 -9,2.8 -10.75,6.91 -1.37,3.24 -0.55,6.91 -1.04,10.37 -0.22,1.65 -0.77,3.24 -0.88,4.88 -0.39,4.66 2.36,9.11 6.15,11.85 1.65,1.21 3.62,2.19 5.7,2.08 1.76,-0.11 3.35,-0.93 4.99,-1.65 5.98,-2.47 12.67,-2.58 19.15,-3.07 0.88,-0.06 1.76,-0.17 2.47,-0.66 0.93,-0.66 1.31,-1.98 1.15,-3.13 -0.17,-1.15 -0.71,-2.19 -1.31,-3.24 -3.07,-5.59 -5.93,-11.52 -9.38,-16.95 -2.3,-3.68 -6.53,-7.95 -11.14,-7.95l-0.11 0.05z"/>
    <path class="fil1" d="M625.61 89.78c-1.92,4.28 -2.19,9.38 -0.22,13.61 2.03,4.22 6.47,7.35 11.14,7.24 0.88,0 1.7,-0.17 2.58,0.06 1.1,0.28 2.03,0.99 3.02,1.65 1.87,1.21 4.06,1.98 6.31,1.87 2.19,-0.11 4.44,-1.1 5.76,-2.91 0.93,-1.26 1.37,-2.74 1.7,-4.28 0.55,-2.36 0.93,-4.72 1.1,-7.13 0.28,-3.51 0.11,-7.07 0,-10.59 -0.17,-3.62 -0.28,-7.19 -0.44,-10.81 0,-0.66 -0.06,-1.43 -0.55,-1.87 -0.33,-0.39 -0.88,-0.49 -1.37,-0.6 -11.63,-2.47 -23.97,2.63 -29.02,13.77l-0 0z"/>
    <path class="fil1" d="M661.99 97.24c2.08,4.83 6.09,8.5 9.98,12.02 1.43,1.26 2.91,2.58 4.72,3.18 1.98,0.66 4.17,0.44 6.09,-0.39 2.52,-1.04 4.66,-3.02 5.93,-5.48 0.77,-1.48 1.21,-3.13 2.3,-4.33 1.1,-1.15 2.69,-1.76 3.51,-3.07 1.1,-1.65 0.66,-3.89 -0.11,-5.76 -1.81,-4.28 -5.27,-7.68 -9.22,-10.04 -3.95,-2.41 -8.39,-3.84 -12.89,-4.99 -2.25,-0.55 -4.56,-1.1 -6.42,-2.47 -1.26,-0.88 -2.41,-2.19 -3.95,-2.14 -1.04,0 -1.98,0.71 -2.58,1.59 -0.55,0.88 -0.82,1.92 -0.99,2.96 -0.55,3.29 -0.28,6.69 0.66,9.87 0.93,3.02 1.59,6.2 2.85,9.11l0.11 -0.06z"/>
    <path class="fil1" d="M654.69 70.36c-0.17,0.55 -0.28,1.15 -0.22,1.7 0.17,1.15 0.93,2.14 1.92,2.74 3.68,2.41 8.72,-1.21 7.46,-5.48 -1.43,-4.77 -7.9,-2.74 -9.16,1.04l0 -0z"/>
   </g>
   <g>
    <path class="fil2" d="M385.06 36.62c1.59,-2.85 4.39,-4.72 7.13,-6.53 3.35,-2.25 7.02,-4.61 11.03,-4.56 1.7,0.06 3.35,0.49 4.99,0.93 4.28,1.21 8.56,2.41 12.51,4.39 2.41,1.21 4.72,2.74 6.25,4.94 1.48,2.25 2.03,5.27 0.71,7.63 -0.99,1.81 -2.85,2.91 -4.56,4.11 -1.7,1.21 -3.35,2.52 -4.77,4.06 -3.4,3.57 -5.76,7.95 -9,11.57 -1.76,1.98 -3.78,3.68 -5.98,5.1 -0.77,0.49 -1.65,0.99 -2.58,0.99 -2.03,-0.06 -3.13,-2.3 -3.89,-4.22 -2.03,-5.05 -4.66,-9.76 -7.85,-14.15 -1.59,-2.14 -2.69,-4.5 -4,-6.75 -1.37,-2.25 -1.15,-5.27 0.11,-7.52l-0.11 0z"/>
    <path class="fil2" d="M432.35 47.15c3.62,-1.43 7.79,-1.92 11.41,-0.49 1.7,0.66 3.24,1.76 4.61,3.02 0.99,0.93 1.87,1.98 2.41,3.24 0.71,1.76 0.66,3.68 0.6,5.59 -0.06,1.43 -0.11,2.85 -0.17,4.28 -0.17,4.11 -0.28,8.23 -1.31,12.18 -1.04,3.95 -3.02,7.79 -6.31,10.31 -3.24,2.52 -7.85,3.46 -11.57,1.7 -1.48,-0.71 -2.8,-1.81 -4.11,-2.8 -3.02,-2.25 -6.31,-4 -9.6,-5.76 -3.62,-1.92 -7.24,-3.84 -10.86,-5.76 -0.49,-0.28 -0.99,-0.55 -1.31,-0.99 -0.55,-0.77 -0.44,-1.81 0,-2.63 0.44,-0.82 1.21,-1.43 1.98,-1.98 4.5,-3.51 9.65,-7.02 13.17,-11.63 2.96,-3.84 6.47,-6.53 11.14,-8.34l-0.06 0.06z"/>
    <path class="fil2" d="M374.53 43.09c-1.7,-0.11 -3.4,0.11 -5.1,0.49 -4.44,0.93 -9.16,2.85 -10.97,7.02 -1.43,3.29 -0.6,7.02 -1.1,10.53 -0.22,1.65 -0.77,3.29 -0.93,4.94 -0.39,4.72 2.41,9.27 6.25,12.07 1.7,1.26 3.68,2.25 5.81,2.14 1.81,-0.11 3.4,-0.99 5.1,-1.65 6.09,-2.52 12.89,-2.63 19.48,-3.13 0.88,-0.06 1.81,-0.17 2.52,-0.66 0.99,-0.71 1.31,-2.03 1.15,-3.18 -0.17,-1.15 -0.77,-2.25 -1.31,-3.29 -3.13,-5.7 -6.04,-11.69 -9.55,-17.22 -2.36,-3.73 -6.64,-8.06 -11.35,-8.06z"/>
    <path class="fil2" d="M367.4 93.24c-1.98,4.33 -2.25,9.55 -0.22,13.82 2.03,4.28 6.58,7.46 11.35,7.35 0.88,0 1.76,-0.17 2.58,0.06 1.15,0.28 2.08,1.04 3.07,1.65 1.92,1.21 4.11,1.98 6.42,1.92 2.25,-0.11 4.5,-1.15 5.87,-2.96 0.93,-1.26 1.37,-2.8 1.76,-4.33 0.55,-2.41 0.93,-4.83 1.1,-7.3 0.28,-3.57 0.11,-7.19 0,-10.75 -0.17,-3.68 -0.28,-7.3 -0.44,-10.97 -0.06,-0.66 -0.11,-1.43 -0.55,-1.92 -0.39,-0.39 -0.88,-0.49 -1.37,-0.6 -11.85,-2.52 -24.41,2.69 -29.52,13.99l-0.06 0.06z"/>
    <path class="fil2" d="M404.48 100.81c2.14,4.88 6.2,8.67 10.15,12.23 1.43,1.31 2.96,2.63 4.77,3.24 2.03,0.66 4.28,0.44 6.2,-0.39 2.58,-1.04 4.77,-3.07 6.04,-5.59 0.77,-1.48 1.21,-3.18 2.36,-4.44 1.1,-1.15 2.69,-1.81 3.57,-3.13 1.1,-1.7 0.71,-3.95 -0.11,-5.87 -1.87,-4.33 -5.38,-7.79 -9.38,-10.26 -4,-2.41 -8.56,-3.95 -13.11,-5.1 -2.25,-0.6 -4.66,-1.15 -6.53,-2.52 -1.26,-0.93 -2.47,-2.25 -4,-2.19 -1.04,0 -2.03,0.71 -2.63,1.59 -0.6,0.88 -0.82,1.98 -1.04,3.02 -0.55,3.35 -0.28,6.8 0.71,10.04 0.93,3.07 1.65,6.31 2.91,9.27l0.11 0.11z"/>
    <path class="fil3" d="M396.96 73.43c-0.17,0.55 -0.28,1.15 -0.22,1.76 0.17,1.15 0.99,2.14 1.98,2.8 3.73,2.47 8.89,-1.21 7.57,-5.59 -1.43,-4.88 -8.06,-2.8 -9.33,1.04l0 -0z"/>
   </g>
   <g>
    <path class="fil2" d="M551.17 23.68c1.59,-2.85 4.39,-4.72 7.13,-6.53 3.35,-2.25 6.97,-4.61 11.03,-4.56 1.7,0.06 3.35,0.49 4.99,0.93 4.28,1.21 8.56,2.41 12.51,4.39 2.41,1.21 4.72,2.74 6.25,4.94 1.48,2.25 2.03,5.27 0.71,7.63 -0.99,1.81 -2.85,2.91 -4.56,4.11 -1.7,1.21 -3.35,2.52 -4.77,4.06 -3.4,3.57 -5.76,7.95 -9,11.57 -1.76,1.98 -3.78,3.68 -5.98,5.1 -0.77,0.49 -1.65,0.99 -2.58,0.99 -2.03,-0.06 -3.13,-2.36 -3.89,-4.22 -2.03,-5.05 -4.66,-9.76 -7.85,-14.15 -1.59,-2.14 -2.69,-4.5 -4,-6.75 -1.37,-2.25 -1.15,-5.27 0.11,-7.52l-0.11 0z"/>
    <path class="fil2" d="M598.46 34.15c3.62,-1.43 7.79,-1.92 11.41,-0.49 1.7,0.66 3.24,1.76 4.61,3.02 0.99,0.93 1.87,1.98 2.41,3.24 0.71,1.76 0.66,3.73 0.6,5.59 -0.06,1.43 -0.11,2.85 -0.17,4.28 -0.17,4.11 -0.28,8.23 -1.31,12.18 -1.04,3.95 -3.02,7.79 -6.31,10.31 -3.24,2.52 -7.85,3.46 -11.57,1.7 -1.48,-0.71 -2.8,-1.81 -4.11,-2.8 -3.02,-2.25 -6.31,-4 -9.6,-5.76 -3.62,-1.92 -7.24,-3.84 -10.86,-5.76 -0.49,-0.28 -0.99,-0.55 -1.31,-0.99 -0.55,-0.77 -0.44,-1.81 0,-2.63 0.44,-0.82 1.21,-1.43 1.98,-1.98 4.5,-3.51 9.65,-7.02 13.17,-11.63 2.96,-3.84 6.47,-6.53 11.14,-8.34l-0.06 0.06z"/>
    <path class="fil2" d="M540.64 30.15c-1.7,-0.11 -3.4,0.11 -5.1,0.49 -4.44,0.93 -9.16,2.85 -10.97,7.02 -1.43,3.29 -0.6,7.02 -1.1,10.53 -0.22,1.65 -0.77,3.29 -0.93,4.94 -0.39,4.72 2.41,9.27 6.25,12.07 1.7,1.26 3.68,2.25 5.81,2.14 1.81,-0.11 3.4,-0.99 5.1,-1.65 6.09,-2.52 12.89,-2.63 19.48,-3.13 0.88,-0.06 1.81,-0.17 2.52,-0.66 0.99,-0.71 1.31,-2.03 1.15,-3.18 -0.17,-1.15 -0.77,-2.25 -1.31,-3.29 -3.13,-5.7 -6.04,-11.69 -9.55,-17.22 -2.36,-3.73 -6.64,-8.06 -11.35,-8.06z"/>
    <path class="fil2" d="M533.51 80.24c-1.98,4.33 -2.25,9.55 -0.22,13.82 2.03,4.28 6.58,7.46 11.35,7.35 0.88,0 1.76,-0.17 2.58,0.06 1.15,0.28 2.08,1.04 3.07,1.65 1.92,1.21 4.11,1.98 6.42,1.92 2.25,-0.11 4.5,-1.15 5.87,-2.96 0.93,-1.26 1.37,-2.8 1.76,-4.33 0.55,-2.41 0.93,-4.83 1.1,-7.3 0.28,-3.57 0.11,-7.19 0,-10.75 -0.17,-3.68 -0.28,-7.3 -0.44,-10.97 -0.06,-0.66 -0.11,-1.43 -0.55,-1.92 -0.39,-0.39 -0.88,-0.49 -1.37,-0.6 -11.85,-2.52 -24.41,2.69 -29.52,13.99l-0.06 0.06z"/>
    <path class="fil2" d="M570.59 87.8c2.14,4.88 6.2,8.67 10.15,12.23 1.43,1.31 2.96,2.63 4.77,3.24 2.03,0.66 4.28,0.44 6.2,-0.39 2.58,-1.04 4.77,-3.07 6.04,-5.59 0.77,-1.48 1.21,-3.18 2.36,-4.44 1.1,-1.15 2.69,-1.81 3.57,-3.13 1.1,-1.7 0.71,-3.95 -0.11,-5.81 -1.87,-4.33 -5.38,-7.79 -9.38,-10.26 -4,-2.41 -8.56,-3.95 -13.11,-5.1 -2.25,-0.6 -4.66,-1.15 -6.53,-2.52 -1.26,-0.93 -2.47,-2.25 -4,-2.19 -1.04,0 -2.03,0.71 -2.63,1.59 -0.6,0.88 -0.82,1.98 -1.04,3.02 -0.55,3.35 -0.28,6.8 0.71,10.04 0.93,3.07 1.65,6.31 2.91,9.27l0.11 0.06z"/>
    <path class="fil3" d="M563.08 60.43c-0.17,0.55 -0.28,1.15 -0.22,1.76 0.17,1.15 0.99,2.14 1.98,2.8 3.73,2.47 8.89,-1.21 7.57,-5.59 -1.43,-4.88 -8.06,-2.8 -9.33,1.04l0 -0z"/>
   </g>
  </g>
 </g>
</svg>
